<svg width="3200" height="2000" viewBox="0 0 3200 2000" fill="none" xmlns="http://www.w3.org/2000/svg">
<g clip-path="url(#clip0_2009_500)">
<path d="M181.525 1978.94L1199.84 1973.66L1471.28 1973.58L1561.2 1973.54L1833.16 1973.46L3075.61 1973.12C3075.61 1973.12 3359.8 1608.71 3056.24 1262.59C2741.5 903.739 2588.47 1195.99 2491.72 690.861C2248.2 -580.629 -159.471 159.406 472.043 1241.39C699.429 1630.98 24.4498 1423.91 181.525 1978.94Z" fill="#EBF3FA" fill-opacity="0.2"/>
<path d="M1118.35 1713.58L1112.84 1710.57C1106.96 1707.35 1104.8 1699.95 1108.02 1694.07L1133.32 1647.87C1136.53 1641.99 1143.93 1639.83 1149.81 1643.05L1157.7 1647.36C1158.85 1648 1159.27 1649.44 1158.64 1650.59C1158.01 1651.74 1156.57 1652.17 1155.41 1651.54L1147.53 1647.22C1143.95 1645.26 1139.45 1646.58 1137.49 1650.15L1112.19 1696.35C1110.23 1699.93 1111.55 1704.44 1115.12 1706.39L1120.63 1709.41C1124.21 1711.37 1128.71 1710.05 1130.67 1706.47L1147.47 1675.81C1148.1 1674.65 1149.54 1674.23 1150.69 1674.86C1151.85 1675.49 1152.27 1676.94 1151.64 1678.09L1134.84 1708.76C1131.62 1714.64 1124.22 1716.8 1118.35 1713.58Z" fill="#AFCDFB"/>
<path d="M1094.87 1762.1L1085 1756.69C1075.84 1751.68 1072.76 1739.6 1078.13 1729.78L1116.17 1660.33C1116.8 1659.17 1118.24 1658.75 1119.39 1659.38C1120.55 1660.01 1120.97 1661.46 1120.34 1662.61L1082.31 1732.07C1078.19 1739.59 1080.42 1748.76 1087.29 1752.52L1097.16 1757.93C1104.02 1761.68 1112.96 1758.63 1117.07 1751.11L1160.4 1671.99C1164.51 1664.47 1162.28 1655.29 1155.41 1651.54C1154.26 1650.9 1153.84 1649.46 1154.47 1648.31C1155.1 1647.16 1156.55 1646.73 1157.7 1647.36C1166.86 1652.38 1169.94 1664.45 1164.57 1674.27L1121.25 1753.39C1115.87 1763.21 1104.04 1767.12 1094.87 1762.1Z" fill="#AFCDFB"/>
<path opacity="0.6" d="M2045.77 1456.63H834.135C804.348 1456.63 780.2 1432.48 780.2 1402.7V385.754C780.2 355.967 804.347 331.82 834.135 331.82H2045.77C2075.56 331.82 2099.71 355.967 2099.71 385.754V1402.7C2099.71 1432.49 2075.56 1456.63 2045.77 1456.63Z" fill="#171717"/>
<path d="M2099.71 456.633H780.2V372.085C780.2 349.848 798.226 331.821 820.464 331.821H2059.44C2081.68 331.821 2099.7 349.848 2099.7 372.085L2099.71 456.633Z" fill="#699DEE"/>
<path d="M833.561 393.476C833.561 385.235 840.242 378.553 848.483 378.553C856.724 378.553 863.405 385.234 863.405 393.476C863.405 401.717 856.724 408.398 848.483 408.398C840.241 408.398 833.561 401.717 833.561 393.476Z" fill="#DDE7FE"/>
<path d="M896.19 393.476C896.19 385.235 902.871 378.553 911.113 378.553C919.354 378.553 926.035 385.234 926.035 393.476C926.035 401.717 919.354 408.398 911.113 408.398C902.872 408.398 896.19 401.717 896.19 393.476Z" fill="#DDE7FE"/>
<path d="M958.822 393.476C958.822 385.235 965.503 378.553 973.745 378.553C981.986 378.553 988.667 385.234 988.667 393.476C988.667 401.717 981.986 408.398 973.745 408.398C965.503 408.398 958.822 401.717 958.822 393.476Z" fill="#DDE7FE"/>
<path opacity="0.5" d="M1258.81 555.67H884.77V929.706H1258.81V555.67Z" fill="#CDE0FB"/>
<path opacity="0.5" d="M1658.02 583.551H1360.51C1352.7 583.551 1346.37 577.222 1346.37 569.416C1346.37 561.61 1352.7 555.281 1360.51 555.281H1658.02C1665.83 555.281 1672.16 561.61 1672.16 569.416C1672.16 577.222 1665.83 583.551 1658.02 583.551Z" fill="#7C9AF2"/>
<path opacity="0.5" d="M2013.8 564.592H1716.28C1708.48 564.592 1702.15 558.263 1702.15 550.457C1702.15 542.649 1708.48 536.321 1716.28 536.321H2013.8C2021.61 536.321 2027.93 542.65 2027.93 550.457C2027.93 558.263 2021.6 564.592 2013.8 564.592Z" fill="#7C9AF2"/>
<g opacity="0.3">
<path d="M1716.92 692.369H1355.54C1350.48 692.369 1346.37 688.267 1346.37 683.208C1346.37 678.148 1350.48 674.046 1355.54 674.046H1716.92C1721.98 674.046 1726.08 678.148 1726.08 683.208C1726.08 688.267 1721.98 692.369 1716.92 692.369Z" fill="#BDD1F9"/>
<path d="M1854.3 692.369H1758.9C1753.84 692.369 1749.74 688.267 1749.74 683.208C1749.74 678.148 1753.84 674.046 1758.9 674.046H1854.3C1859.36 674.046 1863.46 678.148 1863.46 683.208C1863.46 688.267 1859.36 692.369 1854.3 692.369Z" fill="#BDD1F9"/>
<path d="M1491.89 749.192H1355.54C1350.48 749.192 1346.37 745.09 1346.37 740.03C1346.37 734.97 1350.48 730.868 1355.54 730.868H1491.89C1496.95 730.868 1501.05 734.97 1501.05 740.03C1501.05 745.09 1496.95 749.192 1491.89 749.192Z" fill="#BDD1F9"/>
<path d="M1712.74 749.192H1525.9C1520.84 749.192 1516.74 745.09 1516.74 740.03C1516.74 734.97 1520.84 730.868 1525.9 730.868H1712.74C1717.8 730.868 1721.9 734.97 1721.9 740.03C1721.9 745.09 1717.8 749.192 1712.74 749.192Z" fill="#BDD1F9"/>
<path d="M1854.3 749.192H1758.9C1753.84 749.192 1749.74 745.09 1749.74 740.03C1749.74 734.97 1753.84 730.868 1758.9 730.868H1854.3C1859.36 730.868 1863.46 734.97 1863.46 740.03C1863.46 745.09 1859.36 749.192 1854.3 749.192Z" fill="#BDD1F9"/>
<path d="M1540.55 798.324H1355.54C1350.48 798.324 1346.37 794.223 1346.37 789.163C1346.37 784.102 1350.48 780 1355.54 780H1540.55C1545.61 780 1549.71 784.102 1549.71 789.163C1549.71 794.223 1545.61 798.324 1540.55 798.324Z" fill="#BDD1F9"/>
<path d="M1893.86 798.324H1591.26C1586.2 798.324 1582.1 794.223 1582.1 789.163C1582.1 784.102 1586.2 780 1591.26 780H1893.86C1898.92 780 1903.02 784.102 1903.02 789.163C1903.02 794.223 1898.92 798.324 1893.86 798.324Z" fill="#BDD1F9"/>
</g>
<g opacity="0.3">
<path d="M1716.92 872.883H1355.54C1350.48 872.883 1346.37 868.781 1346.37 863.722C1346.37 858.662 1350.48 854.561 1355.54 854.561H1716.92C1721.98 854.561 1726.08 858.662 1726.08 863.722C1726.08 868.781 1721.98 872.883 1716.92 872.883Z" fill="#BDD1F9"/>
<path d="M1854.3 872.883H1758.9C1753.84 872.883 1749.74 868.781 1749.74 863.722C1749.74 858.662 1753.84 854.561 1758.9 854.561H1854.3C1859.36 854.561 1863.46 858.662 1863.46 863.722C1863.46 868.781 1859.36 872.883 1854.3 872.883Z" fill="#BDD1F9"/>
<path d="M1491.89 929.706H1355.54C1350.48 929.706 1346.37 925.604 1346.37 920.544C1346.37 915.484 1350.48 911.382 1355.54 911.382H1491.89C1496.95 911.382 1501.05 915.484 1501.05 920.544C1501.05 925.604 1496.95 929.706 1491.89 929.706Z" fill="#BDD1F9"/>
<path d="M1712.74 929.706H1525.9C1520.84 929.706 1516.74 925.604 1516.74 920.544C1516.74 915.484 1520.84 911.382 1525.9 911.382H1712.74C1717.8 911.382 1721.9 915.484 1721.9 920.544C1721.9 925.604 1717.8 929.706 1712.74 929.706Z" fill="#BDD1F9"/>
</g>
<path d="M1052.47 611.426H1091.1L1195.47 850.31H1151.42L1127.36 793.047H1015.2L990.805 850.31H948.111L1052.47 611.426ZM1112.11 756.112L1071.11 661.237L1030.45 756.112H1112.11Z" fill="#BDD1F9"/>
<path d="M1093.71 1005.05H884.77V1045.39H1093.71V1005.05Z" fill="#F99746"/>
<path d="M1093.71 1045.39H884.77V1085.72H1093.71V1045.39Z" fill="#ED7D2B"/>
<path d="M1093.71 1085.72H884.77V1126.06H1093.71V1085.72Z" fill="#474FEA"/>
<path d="M1247.66 1027.89H1132.7C1127.88 1027.89 1123.99 1023.99 1123.99 1019.18C1123.99 1014.37 1127.88 1010.46 1132.7 1010.46H1247.66C1252.47 1010.46 1256.37 1014.36 1256.37 1019.18C1256.37 1023.99 1252.47 1027.89 1247.66 1027.89Z" fill="#BDD1F9"/>
<path d="M1208.93 1058.59H1132.7C1127.88 1058.59 1123.99 1054.69 1123.99 1049.88C1123.99 1045.07 1127.88 1041.17 1132.7 1041.17H1208.93C1213.74 1041.17 1217.64 1045.07 1217.64 1049.88C1217.64 1054.69 1213.74 1058.59 1208.93 1058.59Z" fill="#BDD1F9"/>
<path d="M1093.71 1213.61H884.77V1296.03H1093.71V1213.61Z" fill="#F99746"/>
<path d="M1093.71 1275.67H884.77V1334.62H1093.71V1275.67Z" fill="#B5453C"/>
<path d="M884.77 1213.61L959.726 1276.57L884.77 1334.62V1213.61Z" fill="#474FEA"/>
<path d="M1247.66 1236.44H1132.7C1127.88 1236.44 1123.99 1232.54 1123.99 1227.73C1123.99 1222.92 1127.88 1219.02 1132.7 1219.02H1247.66C1252.47 1219.02 1256.37 1222.92 1256.37 1227.73C1256.37 1232.54 1252.47 1236.44 1247.66 1236.44Z" fill="#BDD1F9"/>
<path d="M1208.93 1267.15H1132.7C1127.88 1267.15 1123.99 1263.25 1123.99 1258.44C1123.99 1253.63 1127.88 1249.73 1132.7 1249.73H1208.93C1213.74 1249.73 1217.64 1253.63 1217.64 1258.44C1217.64 1263.25 1213.74 1267.15 1208.93 1267.15Z" fill="#BDD1F9"/>
<path d="M2113.03 433.685C2113.03 433.685 2118.46 498.54 2103.69 497.558C2088.92 496.577 2059.74 468.024 2000.87 472.668C1941.99 477.312 1869.96 490.193 1826.42 413.141C1782.88 336.087 1882.1 313.91 1882.1 313.91L2113.03 433.685Z" fill="#233862"/>
<path d="M1987.88 428.935L2284.53 453.33L2290.7 440.133L2006.29 230.191L1718.99 196.627L1713.47 208.436L1987.88 428.935Z" fill="#2B478B"/>
<path d="M2189.76 652.349C2188.01 646.242 2181.64 642.711 2175.54 644.456C2169.43 646.204 2165.9 652.57 2167.65 658.679C2169.39 664.784 2175.76 668.317 2181.87 666.572C2187.97 664.82 2191.51 658.455 2189.76 652.349Z" fill="#F99746"/>
<path d="M2179.87 655.542C2191.77 654.616 2194.55 762.881 2194.55 762.881C2194.55 762.881 2186.79 766.529 2182.98 765.672C2179.17 764.813 2177.22 750.193 2177.22 750.193L2176.85 765.522C2176.85 765.522 2163.8 765.976 2159.28 762.8C2159.28 762.8 2161.05 657.009 2179.87 655.542Z" fill="#F99746"/>
<path d="M2183.75 657.98L2181.6 421.446L2180.07 420.299L2025.11 305.671L2019.55 313.206L2172.96 426.688L2176.42 657.571L2183.75 657.98Z" fill="#F99746"/>
<path d="M2383.67 1773.92H1731.96V1526.31H2385.84C2438.7 1526.31 2481.54 1569.15 2481.54 1622V1676.05C2481.54 1730.1 2437.72 1773.92 2383.67 1773.92Z" fill="#FCECDB"/>
<path d="M3040.6 1628.18V1665.43C3040.6 1685.34 3035.6 1703.98 3026.85 1720C3009.29 1752.24 2976.63 1773.91 2939.24 1773.91H1711.89C1703.77 1773.91 1697.18 1766.87 1697.18 1758.19V1752.61C1697.18 1743.93 1703.77 1736.89 1711.89 1736.89H2460.07C2464.07 1731.67 2467.59 1726.02 2470.57 1720C2477.58 1705.87 2481.54 1689.77 2481.54 1672.66V1625.31C2481.54 1616.6 2480.49 1608.15 2478.51 1600.11C2475.16 1586.48 2469.16 1574 2461.16 1563.34H1711.89C1703.77 1563.34 1697.18 1556.3 1697.18 1547.61V1542.04C1697.18 1533.35 1703.77 1526.31 1711.89 1526.31H2945.42C2988.89 1526.31 3025.55 1557.5 3036.93 1600.11C3039.32 1609.03 3040.6 1618.45 3040.6 1628.18Z" fill="#699DEE"/>
<path d="M3036.93 1600.11H2478.51C2475.16 1586.48 2469.16 1574 2461.16 1563.34H1711.89C1703.77 1563.34 1697.19 1556.3 1697.19 1547.61V1542.04C1697.19 1533.35 1703.77 1526.31 1711.89 1526.31H2945.42C2988.89 1526.31 3025.55 1557.49 3036.93 1600.11Z" fill="#548EE2"/>
<path d="M1731.96 1650.11L1822.84 1654.28L1731.96 1656.78V1650.11Z" fill="#F4D2B8"/>
<path d="M1731.96 1688.96L1948.17 1693.13L1731.96 1695.63V1688.96Z" fill="#F4D2B8"/>
<path d="M1636.73 1966H2276.49V1773.4H1631.1C1583.16 1773.4 1544.31 1812.26 1544.31 1860.19V1873.58C1544.31 1924.62 1585.69 1966 1636.73 1966Z" fill="#F99746"/>
<path d="M2245.67 1966H2974.81V1773.4H2243.67C2194.93 1773.4 2155.43 1812.91 2155.43 1861.64V1875.76C2155.43 1925.6 2195.83 1966 2245.67 1966Z" fill="#FCECDB"/>
<path d="M2107.25 1966H2999.42C3006.82 1966 3012.82 1960 3012.82 1952.6V1950.59C3012.82 1943.19 3006.82 1937.19 2999.42 1937.19H2107.25C2099.85 1937.19 2093.85 1943.19 2093.85 1950.59V1952.6C2093.85 1960 2099.85 1966 2107.25 1966Z" fill="#F99746"/>
<path d="M2107.25 1802.2H2999.42C3006.82 1802.2 3012.82 1796.21 3012.82 1788.8V1786.8C3012.82 1779.4 3006.82 1773.4 2999.42 1773.4H2107.25C2099.85 1773.4 2093.85 1779.4 2093.85 1786.8V1788.8C2093.85 1796.21 2099.85 1802.2 2107.25 1802.2Z" fill="#F99746"/>
<path d="M2974.81 1869.7L2875.47 1872.94L2974.81 1874.89V1869.7Z" fill="#F4D2B8"/>
<path d="M2974.81 1825.38L2738.47 1828.61L2974.81 1830.56V1825.38Z" fill="#F4D2B8"/>
<path d="M2740.9 1827.97C2740.9 1827.97 2751.03 1836.25 2754.38 1849.85C2754.98 1852.22 2755.36 1854.77 2755.44 1857.46C2755.99 1875.53 2755.44 1916.43 2755.44 1916.43L2785.34 1895.98L2815.16 1916.43V1861C2815.16 1850.51 2812.6 1840.32 2807.85 1833.64C2805.55 1830.4 2802.75 1827.97 2799.59 1827.97L2740.9 1827.97Z" fill="#699DEE"/>
<path d="M2740.9 1827.97C2740.9 1827.97 2751.03 1836.25 2754.38 1849.85L2814.31 1850.66C2814.31 1850.66 2811.96 1831.18 2799.59 1827.97H2740.9Z" fill="#568CDB"/>
<path d="M2197.19 1526.83H1567.52V1243.86H2199.48C2255.36 1243.86 2300.66 1289.15 2300.66 1345.03V1423.36C2300.66 1480.5 2254.33 1526.83 2197.19 1526.83Z" fill="#FCECDB"/>
<path d="M2301.02 1353.65V1414.55C2300.86 1440.56 2288.81 1463.13 2271.09 1475.2C2262.37 1481.11 2252.29 1484.5 2241.58 1484.5H1548.22C1540.1 1484.5 1533.51 1492.37 1533.51 1502.07V1509.26C1533.51 1518.96 1540.1 1526.83 1548.22 1526.83H2746.01C2780.38 1526.83 2810.75 1506.43 2829.09 1475.2C2840.66 1455.52 2847.45 1431.56 2847.45 1405.67V1357.62C2847.45 1339.9 2844.06 1323.1 2837.99 1308.15C2822.59 1270.1 2789.97 1243.87 2752.2 1243.87H1548.22C1540.1 1243.87 1533.51 1251.72 1533.51 1261.42V1268.61C1533.51 1278.31 1540.1 1286.18 1548.22 1286.18H2243.7C2260.32 1286.18 2275.37 1294.63 2285.88 1308.15C2295.18 1320.13 2300.92 1336.08 2301.02 1353.65Z" fill="#AFCDFB"/>
<path d="M1533.51 1502.07V1509.26C1533.51 1518.96 1540.1 1526.83 1548.22 1526.83H2746.01C2780.38 1526.83 2810.75 1506.43 2829.09 1475.2H2271.09C2262.37 1481.11 2252.29 1484.5 2241.58 1484.5H1548.22C1540.1 1484.5 1533.51 1492.37 1533.51 1502.07Z" fill="#A4C4F4"/>
<path d="M1567.52 1385.34L1656.4 1390.1L1567.52 1392.97V1385.34Z" fill="#F4D2B8"/>
<path d="M1567.52 1320.22L1778.98 1324.98L1567.52 1327.84V1320.22Z" fill="#F4D2B8"/>
<path d="M1776.8 1324.03C1776.8 1324.03 1762.85 1333.01 1758.23 1347.75C1757.41 1350.33 1756.89 1353.1 1756.78 1356C1756.01 1375.6 1756.78 1419.95 1756.78 1419.95L1715.58 1397.78L1674.48 1419.95V1359.84C1674.48 1348.48 1678.01 1337.42 1684.55 1330.18C1687.73 1326.67 1691.58 1324.03 1695.94 1324.03L1776.8 1324.03Z" fill="#F99746"/>
<path d="M1776.8 1324.03C1776.8 1324.03 1762.85 1333.01 1758.23 1347.75L1675.66 1348.63C1675.66 1348.63 1678.9 1327.51 1695.94 1324.03H1776.8Z" fill="#ED7D2B"/>
<path d="M724.279 1501.8C724.279 1501.8 853.349 1558.03 876.779 1557.01C900.207 1555.99 1044.58 1513.04 1044.58 1513.04L1040.9 1537.87C1040.9 1537.87 929.486 1601.95 890.535 1605.58C852.186 1609.16 721.061 1571.17 708.401 1563.14C695.743 1555.12 687.49 1509.92 724.279 1501.8Z" fill="#ED985F"/>
<path d="M704.886 1294.93C704.886 1294.93 657.271 1285.89 633.558 1303.2C590.6 1334.58 588.293 1442.73 572.193 1458.84C556.093 1474.95 517.283 1468.07 513.829 1551.44C510.373 1634.8 529.28 1641.77 506.764 1678.98C484.248 1716.2 516.29 1753.44 516.29 1753.44C516.29 1753.44 503.167 1732.9 508.791 1718.07C508.791 1718.07 514.253 1750.8 535.042 1758.47C555.831 1766.14 558.907 1771.76 562.227 1783.01C562.227 1783.01 739.581 1692.13 739.773 1627.67C739.966 1563.21 774.674 1499.36 757.631 1471.43C757.631 1471.43 765.222 1483.38 766.154 1496.67C766.154 1496.67 776.38 1477.08 758.654 1458.84C740.928 1440.6 779.447 1402.85 773.744 1359.13C769.826 1329.12 748.766 1296.24 704.886 1294.93Z" fill="#233862"/>
<path d="M739.965 1563.21C728.629 1571.08 714.415 1577.56 696.572 1581.68C629.686 1597.13 604.054 1540.6 594.428 1501.8C603.549 1496.58 612.131 1495.43 617.088 1494.84C621.923 1494.27 627.007 1493.89 631.218 1493.68C638.729 1487.93 649.92 1464.38 652.394 1427.83L655.541 1428.67L708.255 1443.1C708.255 1443.1 705.84 1459.86 704.657 1475.7C703.741 1488.09 703.598 1499.93 705.946 1502.83C710.059 1503.72 712.527 1504.31 712.527 1504.31C712.527 1504.31 712.531 1504.33 712.553 1504.36C713.262 1505.51 728.555 1530.66 739.965 1563.21Z" fill="#FFB27D"/>
<path d="M708.257 1443.11C708.257 1443.11 705.833 1459.85 704.66 1475.7C674.796 1472.71 660.936 1444.28 655.541 1428.68L708.257 1443.11Z" fill="#ED985F"/>
<path d="M717.174 1458.84C717.174 1458.84 646.288 1454.93 649.403 1410.82C652.518 1366.71 645.467 1336.5 690.858 1337.14C736.249 1337.77 743.844 1355.22 746.385 1370.19C748.927 1385.17 735.694 1458.72 717.174 1458.84Z" fill="#FFB27D"/>
<path d="M746.039 1345.52C736.046 1331.47 727.568 1333.79 722.647 1337.44C685.473 1313.39 658.28 1343.06 658.28 1343.06C651.274 1374.36 627.154 1390.85 627.154 1390.85C627.154 1390.85 639.487 1399.75 669.786 1394.24C679.041 1392.55 687.619 1386.67 695.077 1379.33C681.59 1398.65 664.159 1412.02 664.159 1412.02C700.874 1398.14 718.69 1349.74 720.487 1344.61C724.532 1348.81 732.446 1357.85 734.45 1366.3C737.174 1377.78 748.924 1395.74 755.719 1395.43C755.719 1395.43 761.025 1366.59 746.039 1345.52Z" fill="#233862"/>
<path d="M574.238 1707.33C567.836 1674.61 546.964 1543.87 567.836 1501.8C575.333 1486.68 604.747 1485.32 637.019 1486.65C647.061 1493.13 685.327 1517.63 701.045 1514.57C701.213 1514.54 701.519 1514.46 701.925 1514.36C709.326 1512.51 712.12 1507.31 705.947 1502.83C705.933 1502.82 721.931 1501.29 741.78 1505.02C752.992 1507.14 783.231 1522.78 783.231 1522.78C783.231 1522.78 768.002 1550.29 745.547 1559.79C749.365 1593.95 743.689 1609.01 708.254 1687.91C678.312 1754.59 712.293 1814.63 712.293 1814.63C712.293 1814.63 536.032 1956.35 535.05 1884.19C534.315 1829.87 582.419 1749.16 574.238 1707.33Z" fill="#F9DDBF"/>
<path d="M721.03 1968.73C730.616 1967.65 739.246 1962.4 744.605 1954.38C745.456 1953.1 746.365 1951.73 747.329 1950.27C767.392 1919.9 775.2 1826.88 820.329 1727.79C831.322 1703.67 870.779 1699.33 881.537 1672.06C881.537 1672.06 908.019 1583.66 830.851 1581.06C753.684 1578.45 624.183 1827 622.138 1853.07C620.158 1878.32 571.121 1985.64 721.03 1968.73Z" fill="#DD6D22"/>
<path d="M1027.74 1966.69H917.906C917.906 1966.69 913.8 1949.18 921.011 1937.26C927.394 1926.71 924.947 1920.7 920.22 1911.97C925.196 1914.01 931.632 1915.86 938.719 1915.46C944.191 1915.14 949.978 1912.66 955.053 1909.71C959.78 1915.1 980.022 1938.04 986.346 1942.59C993.525 1947.74 1025.53 1945.91 1027.74 1966.69Z" fill="#233862"/>
<path d="M884.048 1606.61C890.663 1656.19 916.489 1812.68 962.048 1889.04C976.736 1913.65 925.042 1927.45 924.762 1927.38C917.829 1925.56 906.278 1914.51 900.955 1909.71C863.967 1876.38 788.883 1781.99 788.883 1706.31C788.883 1669.41 788.236 1598.94 815.066 1581.03C831.591 1570 881.421 1586.91 884.048 1606.61Z" fill="#ED7D2B"/>
<path d="M655.537 1966.7C655.537 1966.7 659.607 1961.03 666.704 1950.27C675.152 1937.48 684.498 1912.3 695.839 1880.03C707.753 1846.15 721.886 1804.46 739.546 1761.1C744.997 1747.71 750.785 1734.16 756.941 1720.63C767.934 1696.51 798.173 1699.84 808.931 1672.57C808.931 1672.57 850.91 1578.02 773.743 1575.42C696.575 1572.81 549.939 1828.32 541.514 1853.07C532.289 1880.16 487.283 1992.65 655.537 1966.7Z" fill="#F99746"/>
<path d="M947.115 1966.69H837.28C837.28 1966.69 833.174 1949.18 840.385 1937.26C846.769 1926.71 844.322 1920.7 839.595 1911.97C844.571 1914.01 851.007 1915.86 858.093 1915.46C863.565 1915.14 869.352 1912.66 874.426 1909.71C879.153 1915.1 899.395 1938.04 905.719 1942.59C912.898 1947.74 944.904 1945.91 947.115 1966.69Z" fill="#2B478B"/>
<path d="M695.839 1880.03C707.752 1846.15 721.886 1804.46 739.546 1761.1C734.934 1728.24 724.984 1699.49 708.254 1687.91C708.254 1687.91 667.665 1813.65 695.839 1880.03Z" fill="#ED7D2B"/>
<path d="M819.935 1603.09C826.549 1652.67 835.864 1812.68 881.423 1889.04C896.111 1913.65 844.417 1927.45 844.137 1927.38C837.203 1925.56 825.653 1914.51 820.329 1909.71C783.342 1876.38 708.257 1781.99 708.257 1706.31C708.257 1669.41 751.56 1601.9 778.391 1583.99C794.915 1572.96 817.307 1583.4 819.935 1603.09Z" fill="#F99746"/>
<path d="M730.445 1433.47C730.445 1433.47 723.743 1430.82 704.886 1432.35C704.886 1432.35 705.888 1439.71 719.795 1440.44C727.673 1440.85 730.445 1433.47 730.445 1433.47Z" fill="white"/>
<path d="M1058.35 1461.08L1035.58 1420L986.32 1557.45L1015.38 1588.65L1058.35 1461.08Z" fill="#163560"/>
<path d="M939.453 1485.14L893.663 1615.96L1015.38 1588.65L1058.35 1461.08L939.453 1485.14Z" fill="#1C468A"/>
<path d="M896.09 1609.36L893.957 1605.63L937.286 1481.84L939.453 1485.15L896.09 1609.36Z" fill="#EFDECE"/>
<path d="M937.286 1481.84L1052.68 1459.38L1058.35 1461.08L939.453 1485.14L937.286 1481.84Z" fill="#FCECDB"/>
<path d="M1058.35 1461.08L1033.73 1422L1018.03 1466.12L1052.68 1459.38L1058.35 1461.08Z" fill="#EFDECE"/>
<path d="M974.598 1504.09C970.639 1503.33 962.148 1500.12 953.55 1497.76C956.118 1495.77 958.973 1493.32 959.769 1490.81C961.303 1485.96 962.325 1484.4 957.213 1485.94C952.099 1487.47 934.21 1495.68 934.21 1495.68C934.21 1495.68 934.247 1495.7 934.256 1495.7C924.091 1498.67 914.726 1513.04 914.726 1513.04C914.726 1513.04 788.883 1557.27 773.742 1558.03C750.321 1559.21 594.428 1501.8 594.428 1501.8C557.638 1509.92 565.892 1555.12 578.551 1563.15C591.211 1571.17 703.386 1611.98 769.866 1612.74C803.538 1613.13 926.022 1534.41 926.022 1534.41C926.022 1534.41 940.339 1527.86 951.588 1529.91C962.837 1531.96 988.914 1529.91 994.539 1520.71C1000.16 1511.5 981.245 1505.37 974.598 1504.09Z" fill="#FFB27D"/>
<path d="M674.744 1530.11C674.744 1530.11 660.802 1574.25 612.917 1584.29C612.917 1584.29 533.843 1559.93 573.214 1506.06C573.214 1506.06 612.143 1477.13 674.744 1530.11Z" fill="#F9DDBF"/>
<path d="M1056.3 1507.41L1056.29 1507.42C1056.32 1506.2 1056.2 1504.99 1055.87 1503.83C1055.87 1503.83 1044.59 1485.99 1040.9 1485.26C1029.65 1483.04 1029.65 1497.85 1032.04 1507.41C1033.7 1514.07 1037.93 1520.46 1041.35 1523.91L1041.35 1523.91L1040.9 1537.87C1059.91 1527.43 1056.3 1507.41 1056.3 1507.41Z" fill="#FFB27D"/>
<path d="M395.633 1274.43C400.128 1163.18 306.879 1113.75 211.534 1113.75C116.188 1113.75 12.429 1138.46 3.43886 1286.39C-2.34504 1381.56 48.3896 1440.12 194.48 1440.12C243.75 1440.12 282.041 1432.35 311.37 1418.49L384.396 1483.38L348.51 1393.69C380.3 1364.13 393.694 1322.44 395.633 1274.43Z" fill="#EBF3FA" fill-opacity="0.2"/>
<path d="M139.092 1237.23V1263.22H156.09V1237.23H163.014V1297.85H156.09V1269.52H139.092V1297.85H132.168V1237.23H139.092Z" fill="#91B5F8"/>
<path d="M177.767 1276.71C177.767 1290.11 183.072 1292.9 188.02 1292.9C191.077 1292.9 193.505 1292.18 195.214 1291.28L196.384 1296.32C193.956 1297.58 190.268 1298.38 186.761 1298.38C176.329 1298.38 170.933 1289.84 170.933 1276.53C170.933 1262.5 176.958 1253.69 185.682 1253.69C194.495 1253.69 198.093 1263.04 198.093 1272.76C198.093 1274.47 198.002 1275.63 197.913 1276.71L177.767 1276.71ZM191.436 1271.59C191.526 1262.95 188.288 1259.09 184.96 1259.09C180.374 1259.09 178.125 1265.65 177.856 1271.59H191.436Z" fill="#91B5F8"/>
<path d="M205.556 1235.62H212.48V1297.85H205.556V1235.62Z" fill="#91B5F8"/>
<path d="M222.733 1235.62H229.657V1297.85H222.733V1235.62Z" fill="#91B5F8"/>
<path d="M266.62 1276.08C266.62 1292.9 258.886 1298.57 252.141 1298.57C244.317 1298.57 238.022 1291.46 238.022 1276.17C238.022 1260.34 245.127 1253.69 252.591 1253.69C260.416 1253.69 266.62 1260.97 266.62 1276.08ZM244.947 1276.08C244.947 1283.28 246.207 1293.08 252.502 1293.08C258.438 1293.08 259.696 1282.92 259.696 1276.08C259.696 1269.43 258.438 1259.18 252.322 1259.18C246.116 1259.18 244.947 1269.43 244.947 1276.08Z" fill="#91B5F8"/>
<path d="M2305.47 940.542C2309.58 838.833 2224.33 793.646 2137.16 793.646C2049.99 793.646 1955.14 816.231 1946.92 951.476C1941.63 1038.48 1988.01 1092.02 2121.57 1092.02C2166.61 1092.02 2201.62 1084.91 2228.43 1072.24L2295.19 1131.57L2262.39 1049.57C2291.45 1022.55 2303.7 984.432 2305.47 940.542Z" fill="#91B5F8"/>
<path d="M2036.22 922.895C2038.65 922.287 2041.47 921.906 2044.74 921.906C2049.38 921.906 2053.33 922.895 2056.07 925.482C2058.28 927.536 2059.42 930.579 2059.42 934.231C2059.42 939.48 2056.53 943.589 2051.51 945.566V945.794C2057.44 947.392 2061.02 952.184 2061.02 958.879C2061.02 963.139 2059.65 966.563 2057.37 969.073C2054.48 972.345 2049.68 973.715 2043.82 973.715C2040.1 973.715 2037.81 973.486 2036.22 973.182V922.895ZM2042 943.893H2044.66C2049.45 943.893 2053.56 940.241 2053.56 934.841C2053.56 930.124 2051.36 926.472 2045.12 926.472C2043.75 926.472 2042.68 926.624 2042 926.852V943.893H2042ZM2042 968.769C2042.68 968.922 2043.67 969.074 2044.97 969.074C2050.98 969.074 2054.93 965.5 2054.93 958.88C2054.93 951.806 2050.06 948.459 2044.59 948.382H2042V968.769Z" fill="white"/>
<path d="M2090.54 955C2090.54 969.227 2083.99 974.019 2078.29 974.019C2071.67 974.019 2066.34 968.009 2066.34 955.076C2066.34 941.687 2072.35 936.058 2078.67 936.058C2085.29 936.058 2090.54 942.219 2090.54 955ZM2072.2 955C2072.2 961.087 2073.27 969.379 2078.59 969.379C2083.61 969.379 2084.68 960.783 2084.68 955C2084.68 949.372 2083.61 940.699 2078.44 940.699C2073.19 940.698 2072.2 949.371 2072.2 955Z" fill="white"/>
<path d="M2097.08 946.099C2097.08 941.762 2096.85 939.555 2096.77 936.589H2101.87L2102.18 941.077H2102.33C2103.93 938.111 2106.89 936.056 2110.77 936.056C2115.87 936.056 2119.67 939.784 2119.67 948.684V973.408H2113.81V949.749C2113.81 945.336 2112.98 941 2108.72 941C2106.28 941 2103.93 943.055 2103.24 946.934C2103.01 947.848 2102.94 948.988 2102.94 950.282V973.408H2097.08V946.099Z" fill="white"/>
<path d="M2121.65 983.985C2123.33 983.528 2125.38 982.92 2126.6 981.094C2127.89 979.115 2128.35 976.377 2128.35 969.378V936.59H2134.2V971.051C2134.2 978.811 2133.06 982.387 2130.48 985.126C2128.27 987.408 2124.7 988.55 2122.41 988.625L2121.65 983.985ZM2134.74 927.081C2134.74 929.363 2133.37 930.885 2131.24 930.885C2129.26 930.885 2127.81 929.363 2127.81 927.081C2127.81 924.798 2129.34 923.277 2131.31 923.277C2133.37 923.276 2134.74 924.798 2134.74 927.081Z" fill="white"/>
<path d="M2164.79 955C2164.79 969.227 2158.24 974.019 2152.54 974.019C2145.92 974.019 2140.59 968.009 2140.59 955.076C2140.59 941.687 2146.6 936.058 2152.92 936.058C2159.54 936.058 2164.79 942.219 2164.79 955ZM2146.45 955C2146.45 961.087 2147.52 969.379 2152.84 969.379C2157.86 969.379 2158.93 960.783 2158.93 955C2158.93 949.372 2157.86 940.699 2152.69 940.699C2147.44 940.698 2146.45 949.371 2146.45 955Z" fill="white"/>
<path d="M2193.39 963.367C2193.39 967.4 2193.62 970.67 2193.7 973.409H2188.6L2188.14 969.529H2187.99C2186.93 971.355 2184.11 974.017 2180.16 974.017C2173.77 974.017 2171.18 968.996 2171.18 959.867V936.589H2177.04V959.03C2177.04 964.812 2177.95 969.073 2181.98 969.073C2185.4 969.073 2186.93 965.878 2187.23 964.204C2187.46 963.215 2187.54 962.073 2187.54 960.857V936.589H2193.39L2193.39 963.367Z" fill="white"/>
<path d="M2201.53 946.099C2201.53 942.981 2201.31 939.328 2201.23 936.589H2206.48L2206.78 942.448H2206.93C2208.15 938.948 2211.27 936.058 2214.69 936.058C2215.15 936.058 2215.53 936.058 2215.91 936.133V942.068C2215.53 942.068 2215.15 942.068 2214.69 942.068C2210.97 942.068 2208.23 945.492 2207.62 949.675C2207.47 950.664 2207.39 951.805 2207.39 953.022V973.41H2201.53L2201.53 946.099Z" fill="white"/>
<path d="M2278.34 1477.18C2299.02 1513.78 2325.26 1528.03 2325.26 1528.03L2434.84 1528.8C2434.84 1528.8 2262.56 1449.26 2278.34 1477.18Z" fill="#233862"/>
<path d="M2360.51 1759.77C2363.34 1763.07 2363.68 1766.73 2362.24 1770.62C2362.24 1770.64 2362.23 1770.66 2362.21 1770.67C2359.54 1777.88 2350.85 1785.88 2340.77 1793.86C2339.48 1794.89 2338.33 1795.82 2337.33 1796.69C2337.07 1796.91 2336.81 1797.14 2336.56 1797.37C2336.36 1797.55 2336.16 1797.73 2335.97 1797.9C2326.55 1806.45 2330.06 1808.45 2313.13 1825.83C2293.83 1845.63 2280.64 1845.89 2276.9 1844.05C2273.74 1842.48 2280.26 1831.95 2287.49 1820.12C2287.84 1819.55 2288.19 1818.97 2288.55 1818.4C2289.51 1816.82 2290.47 1815.23 2291.42 1813.65C2299.9 1799.4 2297.8 1792.68 2295.96 1771.38C2294.47 1754.07 2269.74 1674.56 2269.74 1674.56L2306.49 1668.5C2306.49 1668.5 2317.11 1731.75 2329.22 1741.56C2335.7 1746.79 2342.99 1746.91 2349.22 1750.8C2349.66 1751.07 2350.1 1751.34 2350.52 1751.63C2354.06 1754.01 2357.67 1756.47 2360.51 1759.77Z" fill="#FFB27D"/>
<path d="M2360.51 1759.77C2363.34 1763.07 2363.68 1766.73 2362.24 1770.62C2362.24 1770.64 2362.23 1770.66 2362.21 1770.67C2358.96 1777.87 2350.48 1785.83 2340.73 1793.79C2339.46 1794.83 2338.33 1795.79 2337.33 1796.69C2337.07 1796.91 2336.81 1797.14 2336.56 1797.37C2336.36 1797.55 2336.16 1797.73 2335.97 1797.9C2326.55 1806.45 2330.06 1808.45 2313.13 1825.83C2293.83 1845.63 2280.64 1845.89 2276.9 1844.05C2273.74 1842.48 2280.26 1831.95 2287.49 1820.12C2291.23 1818.78 2308.6 1811.87 2321.82 1795.2C2333.46 1780.56 2341.29 1761.7 2349.22 1750.8C2349.66 1751.07 2350.09 1751.34 2350.52 1751.63C2354.06 1754.01 2357.67 1756.47 2360.51 1759.77Z" fill="#233862"/>
<path d="M2064.62 1734.75C2062.27 1746.07 2046.13 1744.07 2028.11 1739.53C2010.1 1734.99 2014.35 1740.26 1988.68 1737.24C1963.02 1734.21 1955.3 1724.58 1954.54 1720.76C1953.87 1717.36 1966.57 1716.26 1980.19 1714.78C1981.91 1714.6 1983.63 1714.4 1985.35 1714.2C2000.73 1712.38 2012.06 1702.54 2026.08 1694.5C2039.36 1686.88 2059.31 1655.58 2059.31 1655.58L2094.52 1658.62C2094.52 1658.62 2075.84 1686.57 2068.6 1698.72C2064.35 1705.87 2064.5 1715.37 2064.97 1722.7C2065.22 1726.69 2065.45 1730.77 2064.62 1734.75Z" fill="#FFB27D"/>
<path d="M2028.11 1739.53C2010.1 1734.99 2014.35 1740.26 1988.68 1737.24C1963.02 1734.21 1955.3 1724.58 1954.54 1720.76C1953.87 1717.36 1966.57 1716.26 1980.19 1714.79L1980.32 1715.05C1980.32 1715.05 1995.64 1726.08 2017.02 1726.74C2034.45 1727.29 2052.94 1722.43 2064.97 1722.71C2065.22 1726.69 2065.45 1730.77 2064.62 1734.75C2062.27 1746.07 2046.13 1744.07 2028.11 1739.53Z" fill="#233862"/>
<path d="M2201.21 1510.46L2233.51 1599.3L2275.69 1715.31C2275.69 1715.31 2287.35 1716.52 2298.54 1713.38C2308.85 1710.48 2320.71 1702.79 2320.71 1702.79C2320.71 1702.79 2309.65 1578.47 2287.88 1507C2282.3 1488.65 2276.01 1473.8 2269.01 1465.42C2234.78 1424.37 2201.21 1510.46 2201.21 1510.46Z" fill="#233862"/>
<path d="M2235.68 1369.96C2257.3 1363.16 2318.78 1372.52 2380.5 1385.06L2393.59 1363.81L2527.18 1354.32C2527.18 1354.32 2570.54 1452.33 2545.99 1514.41C2542.38 1523.54 2533.57 1527.34 2521.57 1527.44C2521.56 1527.45 2521.56 1527.46 2521.55 1527.46C2521.55 1527.46 2441.87 1528.85 2416.07 1528.66C2349.67 1528.19 2275.87 1482.03 2266.29 1480.05C2250.62 1476.79 2244.12 1508.14 2228.2 1540.99C2212.27 1573.84 2079.64 1685.91 2079.64 1685.91C2079.64 1685.91 2059.38 1685.96 2051.03 1682.77C2042.05 1679.33 2038.79 1674.92 2038.79 1674.92C2038.79 1674.92 2186.92 1385.31 2235.68 1369.96Z" fill="#2B478B"/>
<path d="M2395.67 1179.95C2443.03 1206.46 2539.1 1261.41 2539.6 1261.06C2539.6 1261.06 2574.96 1274.67 2595.16 1261.45C2628.84 1239.43 2647.24 1179.65 2586.3 1127.65C2555.91 1101.72 2534.23 1095.31 2531.22 1054.23C2529.59 1031.94 2499.66 958.21 2449.02 964.652C2444.79 965.191 2440.52 965.568 2436.26 965.4C2430.35 965.167 2420.59 965.961 2410.54 971.849C2381.79 988.693 2324.47 1169.31 2395.67 1179.95Z" fill="#233862"/>
<path d="M2435.68 1157.95C2435.47 1158.08 2459.02 1166.3 2474.85 1159.43C2489.74 1152.97 2501.16 1128.62 2500.94 1128.61C2494.19 1128.25 2486.81 1122.29 2481.38 1083.51L2478.49 1084.52L2430.02 1101.58C2430.02 1101.58 2433.41 1117.12 2435.57 1131.91C2437.39 1144.32 2438.34 1156.21 2435.68 1157.95Z" fill="#FFB27D"/>
<path d="M2430.02 1101.58C2430.02 1101.58 2432.08 1112.47 2434.95 1128.03C2462.76 1123.23 2474.48 1099.51 2478.49 1084.52L2430.02 1101.58Z" fill="#ED975D"/>
<path d="M2422.71 1116.93C2422.71 1116.93 2488.93 1108.52 2483.05 1067.36C2477.18 1026.2 2481.77 997.395 2439.24 1001.03C2396.72 1004.66 2390.76 1021.53 2389.38 1035.75C2388 1049.96 2405.33 1118.05 2422.71 1116.93Z" fill="#FFB27D"/>
<path d="M2391.95 1013.23C2391.95 1013.23 2434.04 1050.02 2462.83 1053.17C2491.61 1056.31 2502.58 1047.14 2502.58 1047.14C2502.58 1047.14 2485.7 1032.93 2475.65 1010.1C2472.68 1003.38 2466.35 998.729 2459.03 998.045C2438.48 996.125 2399.49 995.04 2391.95 1013.23Z" fill="#233862"/>
<path d="M2418.45 1010.15C2418.45 1010.15 2404.18 1023.74 2399.65 1033.87C2395.27 1043.65 2393.82 1067.09 2397.18 1076.43C2397.18 1076.43 2375.41 1033.35 2388.05 1012.58C2401.46 990.565 2418.45 1010.15 2418.45 1010.15Z" fill="#233862"/>
<path d="M2379.29 1255.01C2380.34 1388.94 2379.09 1360.94 2393.65 1373.76C2397.16 1376.84 2407.07 1378.73 2420.12 1379.69C2461.16 1382.7 2533.4 1376.45 2536.2 1368.88C2545.85 1342.69 2539.22 1334.48 2547.41 1294.34C2548.26 1290.07 2549.31 1285.45 2550.55 1280.42C2557.33 1252.85 2563.81 1243.5 2540.75 1198.98C2519.83 1158.65 2498.04 1125.88 2496.05 1127.05C2439.89 1159.85 2435.58 1131.91 2435.58 1131.91C2435.58 1131.91 2378.77 1189.68 2379.29 1255.01Z" fill="#F9DDBF"/>
<path d="M2233.51 1599.3L2275.69 1715.31C2275.69 1715.31 2287.35 1716.52 2298.54 1713.38C2308.85 1710.48 2320.71 1702.79 2320.71 1702.79C2320.71 1702.79 2309.65 1578.47 2287.88 1507L2233.51 1599.3Z" fill="#2B478B"/>
<path d="M2435.57 1131.91C2435.57 1131.91 2377.96 1141.26 2371.02 1165.99C2364.09 1190.72 2323.3 1336.1 2323.3 1336.1C2323.3 1336.1 2352.52 1341.56 2366.13 1328.14C2379.74 1314.72 2414.04 1203.08 2414.04 1203.08L2435.57 1131.91Z" fill="#F9DDBF"/>
<path d="M2420.12 1379.69C2461.16 1382.7 2533.4 1376.45 2536.2 1368.88C2545.85 1342.69 2539.22 1334.48 2547.41 1294.34L2528 1238.43C2528 1238.43 2530.83 1300.55 2512.4 1316.76C2493.99 1332.97 2437.19 1347.76 2428.19 1361.35C2423.85 1367.87 2420.98 1374.42 2420.12 1379.69Z" fill="#F2CCAA"/>
<path d="M2467.35 1353.9C2467.35 1353.9 2426.9 1344.59 2420.34 1348.14C2413.78 1351.69 2397.71 1364.67 2395.68 1369.21C2393.65 1373.76 2410.26 1365.86 2415.65 1364.45C2419.14 1363.54 2428.3 1366.79 2432.83 1368.34C2451.91 1374.85 2463.65 1371.65 2463.65 1371.65L2467.35 1353.9Z" fill="#FFB27D"/>
<path d="M2496.09 1127.02C2496.09 1127.02 2550.46 1130.75 2569.1 1157.15C2595.35 1194.31 2646.82 1352.24 2616.54 1373.04C2582.43 1396.47 2462.03 1378.14 2462.03 1378.14C2462.03 1378.14 2458.15 1359.37 2463.8 1350.34C2469.44 1341.31 2560.23 1327.3 2564.44 1323.14C2568.66 1318.99 2512.7 1241.16 2512.79 1228.6C2512.88 1216.05 2496.09 1127.02 2496.09 1127.02Z" fill="#F9DDBF"/>
<path d="M2418.3 1359.4C2418.3 1359.4 2409.73 1370.29 2406.94 1371.58C2404.15 1372.87 2402.36 1372.53 2402.36 1372.53L2408.15 1362.27L2418.3 1359.4Z" fill="#FFB27D"/>
<path d="M2420.34 1348.14L2395.58 1359.95C2395.58 1359.95 2396.62 1361.68 2399.66 1361.56C2402.7 1361.44 2410.38 1358.69 2410.38 1358.69L2420.34 1348.14Z" fill="#FFB27D"/>
<path d="M2412.22 1389.25L2217.01 1387.88L2159.31 1241.43L2354.23 1242.8L2412.22 1389.25Z" fill="#F99746"/>
<path d="M2214.76 1382.17L2472.55 1383.99L2472.51 1389.68L2217.01 1387.88L2214.76 1382.17Z" fill="#ED7D2B"/>
<path d="M2266.8 1315.21C2265.36 1310.06 2268.36 1305.92 2273.5 1305.96C2278.63 1305.99 2283.95 1310.19 2285.39 1315.34C2286.83 1320.48 2283.83 1324.62 2278.7 1324.59C2273.56 1324.55 2268.24 1320.35 2266.8 1315.21Z" fill="white"/>
<path d="M1225.82 1850.08L1225.8 1967.99L1818.94 1968.11L1818.96 1850.19L1225.82 1850.08Z" fill="#C65447"/>
<path d="M1225.79 1968L1138.62 1930.7L1087.91 1909.01L1139.81 1886.83L1225.82 1850.08C1225.82 1850.08 1237.3 1878.79 1237.47 1905.79C1237.74 1948.16 1225.79 1968 1225.79 1968Z" fill="#FCECDB"/>
<path d="M1887.91 1889.32L1887.91 1926.6C1887.9 1949.53 1869.31 1968.12 1846.38 1968.11L1818.94 1968.11L1818.96 1850.19L1848.8 1850.2C1870.41 1850.2 1887.92 1867.72 1887.91 1889.32Z" fill="#FCECDB"/>
<path d="M1139.81 1886.83C1141.97 1898.75 1143.85 1917 1138.62 1930.7L1087.91 1909.01L1139.81 1886.83Z" fill="#2B478B"/>
<path d="M1353.32 1236.13C1353.32 1236.13 1363.95 1282.23 1394.92 1282.23C1421.47 1282.23 1457.88 1222.23 1457.88 1222.23L1353.32 1236.13Z" fill="#F99746"/>
<path d="M1708.89 1917.04L1688.99 1930.72C1688.99 1930.72 1593.29 1828.72 1570.19 1730.95C1566.07 1713.49 1564.4 1696.27 1566.17 1679.94C1566.17 1679.94 1564.77 1675.51 1562.33 1667.68C1562.22 1667.34 1562.11 1666.99 1562 1666.64C1560.93 1663.2 1559.65 1659.16 1558.22 1654.59C1553.58 1639.81 1547.21 1619.59 1539.95 1596.58C1523.22 1543.61 1484.97 1424.15 1468.62 1374.45L1586.11 1331.95C1586.11 1331.95 1599.45 1362.38 1618.62 1445.09C1621.58 1455.88 1624.54 1467.82 1627.3 1480.82C1630.43 1495.56 1633.36 1511.66 1635.79 1529.07C1639.91 1558.55 1642.66 1591.71 1642.83 1628.09C1642.9 1642.89 1642.54 1658.24 1641.66 1674.07C1641.02 1685.68 1642.74 1701.15 1645.98 1718.75C1660.78 1799.22 1708.89 1917.04 1708.89 1917.04Z" fill="#2B478B"/>
<path d="M1771.47 1966.19H1676.49C1676.49 1966.19 1672.94 1951.04 1679.18 1940.73C1684.7 1931.61 1682.58 1926.41 1678.5 1918.87C1682.8 1920.63 1688.36 1922.23 1694.49 1921.88C1699.22 1921.61 1704.23 1919.46 1708.62 1916.91C1712.7 1921.57 1730.21 1941.41 1735.68 1945.34C1741.89 1949.8 1769.56 1948.21 1771.47 1966.19Z" fill="#233862"/>
<path d="M1635.79 1529.06L1562 1666.64C1560.93 1663.2 1559.65 1659.16 1558.22 1654.58C1553.58 1639.81 1547.21 1619.59 1539.95 1596.58C1523.22 1543.61 1484.97 1424.14 1468.62 1374.45L1586.11 1331.95C1586.11 1331.95 1599.45 1362.38 1618.62 1445.08C1621.58 1455.88 1624.54 1467.82 1627.3 1480.82C1630.44 1495.55 1633.36 1511.66 1635.79 1529.06Z" fill="#233862"/>
<path d="M1466.71 1936.46C1466.71 1936.46 1460.14 1952.59 1466.33 1966.19H1517.99C1517.99 1966.19 1519.07 1953.92 1500.32 1939.7C1486.12 1928.93 1466.71 1936.46 1466.71 1936.46Z" fill="#233862"/>
<path d="M1522.94 886.291C1522.97 883.72 1524.29 855.989 1566.42 853.525C1566.42 853.525 1545.75 856.497 1542.38 865.699C1542.38 865.699 1556.23 854.095 1567.82 857.44C1579.4 860.786 1586.64 880.767 1586.87 887.392C1587.1 894.016 1581.22 915.528 1573.97 917.521C1571.22 918.275 1568.03 918.168 1565.13 917.745C1567.15 920.73 1569.13 924.028 1571.04 927.719C1588.7 961.852 1573.46 1002.06 1559.13 998.674C1549.94 996.502 1544.35 1012.43 1544.35 1012.43L1455.93 936.405C1455.93 936.405 1486.91 868.164 1522.94 886.291Z" fill="#2C3A64"/>
<path d="M1467.36 1117.32C1477.16 1124.12 1489.46 1129.73 1504.89 1133.29C1562.73 1146.65 1584.89 1097.77 1593.22 1064.21C1585.33 1059.7 1577.91 1058.7 1573.62 1058.19C1569.44 1057.7 1565.04 1057.37 1561.4 1057.19C1554.91 1052.21 1545.23 1031.86 1543.09 1000.24L1540.37 1000.97L1494.78 1013.45C1494.78 1013.45 1496.87 1027.94 1497.89 1041.64C1498.69 1052.35 1498.81 1062.6 1496.78 1065.1C1493.22 1065.87 1491.09 1066.38 1491.09 1066.38C1491.09 1066.38 1491.09 1066.39 1491.06 1066.42C1490.45 1067.42 1477.23 1089.17 1467.36 1117.32Z" fill="#FFB27D"/>
<path d="M1494.78 1013.46C1494.78 1013.46 1496.88 1027.94 1497.89 1041.64C1523.72 1039.06 1535.7 1014.47 1540.37 1000.98L1494.78 1013.46Z" fill="#ED985F"/>
<path d="M1494.25 1035.2C1494.25 1035.2 1553.71 1019.92 1543.63 983.043C1533.54 946.16 1534.42 919.348 1496.03 927.545C1457.64 935.741 1454.14 951.823 1454.52 964.953C1454.89 978.083 1478.52 1038.23 1494.25 1035.2Z" fill="#FFB27D"/>
<path d="M1450.65 943.967C1456.75 930.364 1464.33 930.899 1469.12 933.169C1496.59 906.497 1524.66 927.07 1524.66 927.07C1535.89 952.438 1559.13 962.354 1559.13 962.354C1559.13 962.354 1550.17 971.982 1523.54 972.416C1515.41 972.549 1507.14 969.013 1499.58 964.047C1514.27 978.155 1531.31 986.548 1531.31 986.548C1497.83 980.974 1474.55 942.929 1472.17 938.887C1469.44 943.124 1464.26 952.128 1463.98 959.635C1463.61 969.835 1467.59 989.528 1461.78 990.418C1461.78 990.418 1441.49 964.368 1450.65 943.967Z" fill="#2C3A64"/>
<path d="M1477.15 1063.31C1477.15 1063.31 1577.01 1039.06 1620.43 1074.88L1598.73 1377.52L1403.43 1330.33C1403.43 1330.33 1408.93 1311.18 1446.38 1260.26C1483.82 1209.34 1467.54 1134.64 1477.15 1063.31Z" fill="#FFB27D"/>
<path d="M1535.37 1343.83C1535.37 1343.83 1535.25 1344.85 1535.05 1346.81C1534.96 1347.65 1534.84 1348.66 1534.72 1349.85C1533.88 1357.69 1532.29 1372.74 1530.24 1392.31C1524.88 1443.64 1516.47 1526.08 1510.74 1591.15C1506.25 1642.02 1503.41 1682.29 1504.94 1688.75C1509.57 1708.21 1504.94 1940.78 1504.94 1940.78C1488.34 1948.74 1463.18 1940.78 1463.18 1940.78C1463.18 1940.78 1418.96 1731.2 1425.15 1702.07C1431.34 1672.94 1421.01 1648.07 1421.01 1648.07C1386.68 1488.19 1390.44 1399.58 1397.26 1357.16C1399.24 1344.83 1401.49 1336.4 1403.13 1331.26C1404.52 1326.89 1405.48 1324.89 1405.48 1324.89C1481.21 1304.52 1535.37 1343.83 1535.37 1343.83Z" fill="#2B478B"/>
<path d="M1633.9 1161.2C1629.08 1197.6 1609.79 1242.16 1602.9 1266.14C1602.9 1266.14 1614.42 1349.4 1603.42 1372.26C1602.18 1374.87 1600.63 1376.69 1598.74 1377.51C1558.01 1395.25 1399.42 1378.02 1392.72 1326.87C1390.29 1308.28 1453.13 1242.89 1456.79 1234.96C1458.31 1231.68 1459.93 1221.04 1452.57 1198.99C1442.12 1231.19 1384.48 1221.93 1384.48 1221.93C1391.25 1210.35 1408.1 1130.27 1426.92 1094.12C1441.07 1066.94 1478.85 1063.01 1478.85 1063.01C1478.85 1063.01 1494.57 1087.95 1532.6 1084.41C1570.62 1080.87 1577.58 1057.6 1577.58 1057.6C1577.58 1057.6 1611.3 1062.08 1621.69 1070.46C1623.49 1071.92 1640.22 1113.5 1633.9 1161.2Z" fill="#F99746"/>
<path d="M1602.9 1266.14C1602.9 1266.14 1614.42 1349.4 1603.42 1372.26C1573.75 1357.36 1550.37 1317.08 1555.77 1272.2C1559.76 1239.03 1565.69 1231.46 1583.44 1212.47C1596.48 1198.53 1626.63 1197.74 1624.27 1204.38C1617.23 1224.14 1606.54 1253.47 1602.9 1266.14Z" fill="#ED7D2B"/>
<path d="M1479.05 1167.68L1547.05 1276.77H1431.35L1366.56 1170.04L1479.05 1167.68Z" fill="#1C468A"/>
<path d="M1543.51 1271.29L1544.69 1267.49L1480.34 1164.24L1479.05 1167.68L1543.51 1271.29Z" fill="#EFDECE"/>
<path d="M1480.34 1164.24L1371.34 1167.35L1366.56 1170.04L1479.05 1167.68L1480.34 1164.24Z" fill="#FCECDB"/>
<path d="M1366.56 1170.04L1305.41 1136.94L1376.69 1248.87L1431.35 1276.77L1366.56 1170.04Z" fill="#163560"/>
<path d="M1690.14 1246.49C1683.59 1249.48 1666.78 1269.28 1660.78 1271.29C1633.8 1280.32 1518.98 1256.3 1518.98 1256.3L1522.53 1236.19C1522.53 1236.19 1635.23 1239.18 1647.62 1235.87C1649.95 1235.24 1662.13 1216.19 1666.81 1213.45L1690.14 1246.49Z" fill="#FFB27D"/>
<path d="M1522.54 1236.18C1522.54 1236.18 1508.95 1225.12 1499.76 1227.62C1490.58 1230.13 1477.07 1241.74 1472.05 1244.49C1467.03 1247.24 1453.4 1257.08 1460.31 1263.02C1467.22 1268.97 1488.73 1263.86 1497.25 1259.3C1505.77 1254.75 1518.98 1256.3 1518.98 1256.3L1522.54 1236.18Z" fill="#FFB27D"/>
<path d="M1502.37 1227.26C1502.37 1227.26 1485.85 1225.29 1481.34 1225.38C1476.83 1225.47 1478.05 1226.46 1480.54 1229.96C1483.03 1233.46 1491.63 1234.8 1492.03 1236.03C1492.42 1237.25 1502.37 1227.26 1502.37 1227.26Z" fill="#FFB27D"/>
<path d="M1577.58 1057.6C1577.58 1057.6 1626.56 1063.41 1640.04 1084.41C1657.1 1110.97 1697.34 1216.74 1696.04 1243.39C1696.04 1243.39 1666.62 1293.46 1565.72 1285.45C1565.72 1285.45 1555.23 1248.38 1576.45 1236.13C1576.45 1236.13 1628.27 1226.92 1634.24 1221.66L1591.99 1144.88L1577.58 1057.6Z" fill="#F99746"/>
<path d="M1382.23 1209.92C1380.71 1203.75 1367.25 1207.6 1362.72 1211.15C1361.61 1212.02 1360.43 1213.49 1359.27 1215.21C1359.13 1214.17 1359 1213.19 1358.94 1212.42C1358.68 1209.52 1355.3 1204.32 1354.47 1208.21C1353.63 1212.1 1352.25 1228.43 1352.25 1228.43C1352.08 1241.59 1360.54 1247.02 1365.98 1242.74C1371.41 1238.46 1383.74 1216.09 1382.23 1209.92Z" fill="#FFB27D"/>
<path d="M3180.08 1976.7H95.0068C92.8213 1976.7 91.0322 1974.91 91.0322 1972.73V1970.12C91.0322 1967.94 92.8201 1966.15 95.0068 1966.15H3180.08C3182.26 1966.15 3184.05 1967.94 3184.05 1970.12V1972.73C3184.05 1974.91 3182.26 1976.7 3180.08 1976.7Z" fill="#2E3552"/>
</g>
<defs>
<clipPath id="clip0_2009_500">
<rect width="3200" height="2000" fill="white"/>
</clipPath>
</defs>
</svg>
