<svg width="2668" height="1990" viewBox="0 0 2668 1990" fill="none" xmlns="http://www.w3.org/2000/svg">
<path d="M2668 1746.72H0V1748.05H2668V1746.72Z" fill="#EBEBEB"/>
<path d="M2400.67 1832.56H2223.94V1833.89H2400.67V1832.56Z" fill="#EBEBEB"/>
<path d="M1767.39 1847.07H1721.02V1848.41H1767.39V1847.07Z" fill="#EBEBEB"/>
<path d="M2218.6 1783.05H2116.2V1784.38H2218.6V1783.05Z" fill="#EBEBEB"/>
<path d="M510.389 1792.01H279.927V1793.35H510.389V1792.01Z" fill="#EBEBEB"/>
<path d="M591.709 1792.01H557.932V1793.35H591.709V1792.01Z" fill="#EBEBEB"/>
<path d="M1201.4 1814.53H701.524V1815.86H1201.4V1814.53Z" fill="#EBEBEB"/>
<path d="M1264.63 1508.77H234.304C226.232 1508.76 218.496 1505.54 212.793 1499.83C207.091 1494.12 203.889 1486.38 203.889 1478.31V30.1968C203.959 22.1729 207.193 14.5008 212.887 8.8468C218.582 3.19285 226.278 0.0137454 234.304 0H1264.63C1272.71 0 1280.46 3.20954 1286.18 8.92256C1291.89 14.6356 1295.1 22.3841 1295.1 30.4635V1478.31C1295.1 1486.39 1291.89 1494.14 1286.18 1499.85C1280.46 1505.56 1272.71 1508.77 1264.63 1508.77ZM234.304 1.06703C226.586 1.08116 219.189 4.15641 213.737 9.61778C208.284 15.0791 205.223 22.4803 205.223 30.1968V1478.31C205.223 1486.02 208.284 1493.43 213.737 1498.89C219.189 1504.35 226.586 1507.42 234.304 1507.44H1264.63C1272.35 1507.42 1279.75 1504.35 1285.22 1498.89C1290.68 1493.43 1293.75 1486.03 1293.77 1478.31V30.1968C1293.75 22.4754 1290.68 15.0743 1285.22 9.61453C1279.75 4.15467 1272.35 1.08113 1264.63 1.06703H234.304Z" fill="#EBEBEB"/>
<path d="M2418.86 1508.77H1388.48C1380.4 1508.76 1372.66 1505.54 1366.95 1499.84C1361.24 1494.12 1358.03 1486.39 1358.01 1478.31V30.1968C1358.1 22.168 1361.34 14.4959 1367.05 8.84344C1372.75 3.19098 1380.45 0.0135954 1388.48 0H2418.86C2426.88 0.0277666 2434.56 3.21307 2440.24 8.86553C2445.93 14.518 2449.15 22.1821 2449.22 30.1968V1478.31C2449.22 1486.37 2446.03 1494.1 2440.34 1499.81C2434.65 1505.52 2426.92 1508.75 2418.86 1508.77ZM1388.48 1.06703C1380.76 1.08113 1373.35 4.15467 1367.89 9.61453C1362.44 15.0743 1359.36 22.4754 1359.35 30.1968V1478.31C1359.36 1486.03 1362.44 1493.43 1367.89 1498.89C1373.35 1504.35 1380.76 1507.42 1388.48 1507.44H2418.86C2426.58 1507.42 2433.99 1504.35 2439.45 1498.89C2444.91 1493.43 2447.98 1486.03 2448 1478.31V30.1968C2447.98 22.4754 2444.91 15.0743 2439.45 9.61453C2433.99 4.15467 2426.58 1.08113 2418.86 1.06703H1388.48Z" fill="#EBEBEB"/>
<path d="M1327.92 254.324H423.357V1267.57H1327.92V254.324Z" fill="#EBEBEB"/>
<path d="M1327.92 270.705H441.126V1249.65H1327.92V270.705Z" fill="#FAFAFA"/>
<path d="M473.89 790.292V721.522H493.526V675.64H519.726V606.87H526.289V675.64H552.489V721.522H572.126V790.292H608.197V809.925H624.579V885.257H627.834V777.167H637.652V845.937H647.47V682.202H654.033V750.972H680.233V728.084H690.051V633.066H709.741V538.1H716.305V551.171H850.612V511.905H873.503V361.241H883.375V511.905H916.138V551.171H929.211V747.717H997.992V688.764H975.101V678.948H997.992V662.569H1063.52V511.905H1079.9V488.964H1158.5V511.905H1168.37V721.522H1204.39V816.487H1224.02V741.155H1240.41V721.522H1276.48V652.699H1296.11V606.87H1319.01V538.1H1327.92V1249.65H441.126V790.292H473.89Z" fill="#F0F0F0"/>
<path d="M800.454 561.468H791.169V570.751H800.454V561.468Z" fill="#FAFAFA"/>
<path d="M800.454 576.993H791.169V586.276H800.454V576.993Z" fill="#FAFAFA"/>
<path d="M800.454 639.254H791.169V648.537H800.454V639.254Z" fill="#FAFAFA"/>
<path d="M800.454 654.779H791.169V664.062H800.454V654.779Z" fill="#FAFAFA"/>
<path d="M800.454 670.357H791.169V679.641H800.454V670.357Z" fill="#FAFAFA"/>
<path d="M800.454 717.04H791.169V726.323H800.454V717.04Z" fill="#FAFAFA"/>
<path d="M800.454 732.565H791.169V741.849H800.454V732.565Z" fill="#FAFAFA"/>
<path d="M815.181 623.676H805.896V632.959H815.181V623.676Z" fill="#FAFAFA"/>
<path d="M815.181 639.254H805.896V648.537H815.181V639.254Z" fill="#FAFAFA"/>
<path d="M815.181 654.779H805.896V664.062H815.181V654.779Z" fill="#FAFAFA"/>
<path d="M815.181 670.357H805.896V679.641H815.181V670.357Z" fill="#FAFAFA"/>
<path d="M815.181 685.937H805.896V695.22H815.181V685.937Z" fill="#FAFAFA"/>
<path d="M815.181 717.04H805.896V726.323H815.181V717.04Z" fill="#FAFAFA"/>
<path d="M815.181 732.565H805.896V741.849H815.181V732.565Z" fill="#FAFAFA"/>
<path d="M829.908 561.468H820.624V570.751H829.908V561.468Z" fill="#FAFAFA"/>
<path d="M829.908 576.993H820.624V586.276H829.908V576.993Z" fill="#FAFAFA"/>
<path d="M829.908 592.572H820.624V601.855H829.908V592.572Z" fill="#FAFAFA"/>
<path d="M829.908 608.15H820.624V617.434H829.908V608.15Z" fill="#FAFAFA"/>
<path d="M829.908 623.676H820.624V632.959H829.908V623.676Z" fill="#FAFAFA"/>
<path d="M829.908 639.254H820.624V648.537H829.908V639.254Z" fill="#FAFAFA"/>
<path d="M829.908 654.779H820.624V664.062H829.908V654.779Z" fill="#FAFAFA"/>
<path d="M829.908 670.357H820.624V679.641H829.908V670.357Z" fill="#FAFAFA"/>
<path d="M829.908 685.937H820.624V695.22H829.908V685.937Z" fill="#FAFAFA"/>
<path d="M829.908 701.462H820.624V710.745H829.908V701.462Z" fill="#FAFAFA"/>
<path d="M829.908 732.565H820.624V741.849H829.908V732.565Z" fill="#FAFAFA"/>
<path d="M844.689 561.468H835.404V570.751H844.689V561.468Z" fill="#FAFAFA"/>
<path d="M844.689 576.993H835.404V586.276H844.689V576.993Z" fill="#FAFAFA"/>
<path d="M844.689 592.572H835.404V601.855H844.689V592.572Z" fill="#FAFAFA"/>
<path d="M844.689 608.15H835.404V617.434H844.689V608.15Z" fill="#FAFAFA"/>
<path d="M844.689 623.676H835.404V632.959H844.689V623.676Z" fill="#FAFAFA"/>
<path d="M844.689 639.254H835.404V648.537H844.689V639.254Z" fill="#FAFAFA"/>
<path d="M844.689 654.779H835.404V664.062H844.689V654.779Z" fill="#FAFAFA"/>
<path d="M844.689 794.826H835.404V804.109H844.689V794.826Z" fill="#FAFAFA"/>
<path d="M859.416 561.468H850.131V570.751H859.416V561.468Z" fill="#FAFAFA"/>
<path d="M859.416 576.993H850.131V586.276H859.416V576.993Z" fill="#FAFAFA"/>
<path d="M859.416 592.572H850.131V601.855H859.416V592.572Z" fill="#FAFAFA"/>
<path d="M859.416 608.15H850.131V617.434H859.416V608.15Z" fill="#FAFAFA"/>
<path d="M859.416 623.676H850.131V632.959H859.416V623.676Z" fill="#FAFAFA"/>
<path d="M859.416 639.254H850.131V648.537H859.416V639.254Z" fill="#FAFAFA"/>
<path d="M859.416 654.779H850.131V664.062H859.416V654.779Z" fill="#FAFAFA"/>
<path d="M859.416 670.357H850.131V679.641H859.416V670.357Z" fill="#FAFAFA"/>
<path d="M859.416 763.723H850.131V773.006H859.416V763.723Z" fill="#FAFAFA"/>
<path d="M859.416 779.248H850.131V788.531H859.416V779.248Z" fill="#FAFAFA"/>
<path d="M859.416 794.826H850.131V804.109H859.416V794.826Z" fill="#FAFAFA"/>
<path d="M859.416 810.404H850.131V819.687H859.416V810.404Z" fill="#FAFAFA"/>
<path d="M859.416 872.612H850.131V881.895H859.416V872.612Z" fill="#FAFAFA"/>
<path d="M874.144 561.468H864.859V570.751H874.144V561.468Z" fill="#FAFAFA"/>
<path d="M874.144 576.993H864.859V586.276H874.144V576.993Z" fill="#FAFAFA"/>
<path d="M874.144 592.572H864.859V601.855H874.144V592.572Z" fill="#FAFAFA"/>
<path d="M874.144 608.15H864.859V617.434H874.144V608.15Z" fill="#FAFAFA"/>
<path d="M874.144 623.676H864.859V632.959H874.144V623.676Z" fill="#FAFAFA"/>
<path d="M874.144 639.254H864.859V648.537H874.144V639.254Z" fill="#FAFAFA"/>
<path d="M874.144 654.779H864.859V664.062H874.144V654.779Z" fill="#FAFAFA"/>
<path d="M874.144 670.357H864.859V679.641H874.144V670.357Z" fill="#FAFAFA"/>
<path d="M874.144 685.937H864.859V695.22H874.144V685.937Z" fill="#FAFAFA"/>
<path d="M874.144 701.462H864.859V710.745H874.144V701.462Z" fill="#FAFAFA"/>
<path d="M874.144 748.144H864.859V757.427H874.144V748.144Z" fill="#FAFAFA"/>
<path d="M874.144 763.723H864.859V773.006H874.144V763.723Z" fill="#FAFAFA"/>
<path d="M874.144 779.248H864.859V788.531H874.144V779.248Z" fill="#FAFAFA"/>
<path d="M874.144 794.826H864.859V804.109H874.144V794.826Z" fill="#FAFAFA"/>
<path d="M874.144 810.404H864.859V819.687H874.144V810.404Z" fill="#FAFAFA"/>
<path d="M874.144 872.612H864.859V881.895H874.144V872.612Z" fill="#FAFAFA"/>
<path d="M888.871 561.468H879.586V570.751H888.871V561.468Z" fill="#FAFAFA"/>
<path d="M888.871 576.993H879.586V586.276H888.871V576.993Z" fill="#FAFAFA"/>
<path d="M888.871 592.572H879.586V601.855H888.871V592.572Z" fill="#FAFAFA"/>
<path d="M888.871 608.15H879.586V617.434H888.871V608.15Z" fill="#FAFAFA"/>
<path d="M888.871 623.676H879.586V632.959H888.871V623.676Z" fill="#FAFAFA"/>
<path d="M888.871 639.254H879.586V648.537H888.871V639.254Z" fill="#FAFAFA"/>
<path d="M888.871 654.779H879.586V664.062H888.871V654.779Z" fill="#FAFAFA"/>
<path d="M888.871 670.357H879.586V679.641H888.871V670.357Z" fill="#FAFAFA"/>
<path d="M888.871 685.937H879.586V695.22H888.871V685.937Z" fill="#FAFAFA"/>
<path d="M888.871 701.462H879.586V710.745H888.871V701.462Z" fill="#FAFAFA"/>
<path d="M888.871 717.04H879.586V726.323H888.871V717.04Z" fill="#FAFAFA"/>
<path d="M888.871 732.565H879.586V741.849H888.871V732.565Z" fill="#FAFAFA"/>
<path d="M888.871 748.144H879.586V757.427H888.871V748.144Z" fill="#FAFAFA"/>
<path d="M888.871 763.723H879.586V773.006H888.871V763.723Z" fill="#FAFAFA"/>
<path d="M888.871 779.248H879.586V788.531H888.871V779.248Z" fill="#FAFAFA"/>
<path d="M888.871 794.826H879.586V804.109H888.871V794.826Z" fill="#FAFAFA"/>
<path d="M888.871 810.404H879.586V819.687H888.871V810.404Z" fill="#FAFAFA"/>
<path d="M888.871 825.93H879.586V835.213H888.871V825.93Z" fill="#FAFAFA"/>
<path d="M903.652 561.468H894.367V570.751H903.652V561.468Z" fill="#FAFAFA"/>
<path d="M903.652 576.993H894.367V586.276H903.652V576.993Z" fill="#FAFAFA"/>
<path d="M903.652 592.572H894.367V601.855H903.652V592.572Z" fill="#FAFAFA"/>
<path d="M903.652 608.15H894.367V617.434H903.652V608.15Z" fill="#FAFAFA"/>
<path d="M903.652 623.676H894.367V632.959H903.652V623.676Z" fill="#FAFAFA"/>
<path d="M903.652 639.254H894.367V648.537H903.652V639.254Z" fill="#FAFAFA"/>
<path d="M903.652 654.779H894.367V664.062H903.652V654.779Z" fill="#FAFAFA"/>
<path d="M903.652 670.357H894.367V679.641H903.652V670.357Z" fill="#FAFAFA"/>
<path d="M903.652 685.937H894.367V695.22H903.652V685.937Z" fill="#FAFAFA"/>
<path d="M903.652 701.462H894.367V710.745H903.652V701.462Z" fill="#FAFAFA"/>
<path d="M903.652 748.144H894.367V757.427H903.652V748.144Z" fill="#FAFAFA"/>
<path d="M903.652 763.723H894.367V773.006H903.652V763.723Z" fill="#FAFAFA"/>
<path d="M903.652 779.248H894.367V788.531H903.652V779.248Z" fill="#FAFAFA"/>
<path d="M903.652 794.826H894.367V804.109H903.652V794.826Z" fill="#FAFAFA"/>
<path d="M918.379 561.468H909.094V570.751H918.379V561.468Z" fill="#FAFAFA"/>
<path d="M918.379 576.993H909.094V586.276H918.379V576.993Z" fill="#FAFAFA"/>
<path d="M918.379 592.572H909.094V601.855H918.379V592.572Z" fill="#FAFAFA"/>
<path d="M918.379 608.15H909.094V617.434H918.379V608.15Z" fill="#FAFAFA"/>
<path d="M918.379 623.676H909.094V632.959H918.379V623.676Z" fill="#FAFAFA"/>
<path d="M918.379 639.254H909.094V648.537H918.379V639.254Z" fill="#FAFAFA"/>
<path d="M918.379 654.779H909.094V664.062H918.379V654.779Z" fill="#FAFAFA"/>
<path d="M918.379 670.357H909.094V679.641H918.379V670.357Z" fill="#FAFAFA"/>
<path d="M918.379 685.937H909.094V695.22H918.379V685.937Z" fill="#FAFAFA"/>
<path d="M918.379 701.462H909.094V710.745H918.379V701.462Z" fill="#FAFAFA"/>
<path d="M918.379 748.144H909.094V757.427H918.379V748.144Z" fill="#FAFAFA"/>
<path d="M918.379 763.723H909.094V773.006H918.379V763.723Z" fill="#FAFAFA"/>
<path d="M918.379 779.248H909.094V788.531H918.379V779.248Z" fill="#FAFAFA"/>
<path d="M1084.33 521.081H1075.04V530.364H1084.33V521.081Z" fill="#FAFAFA"/>
<path d="M1084.33 536.606H1075.04V545.89H1084.33V536.606Z" fill="#FAFAFA"/>
<path d="M1084.33 552.185H1075.04V561.468H1084.33V552.185Z" fill="#FAFAFA"/>
<path d="M1084.33 567.71H1075.04V576.993H1084.33V567.71Z" fill="#FAFAFA"/>
<path d="M1084.33 583.289H1075.04V592.572H1084.33V583.289Z" fill="#FAFAFA"/>
<path d="M1084.33 598.867H1075.04V608.15H1084.33V598.867Z" fill="#FAFAFA"/>
<path d="M1084.33 614.393H1075.04V623.676H1084.33V614.393Z" fill="#FAFAFA"/>
<path d="M1084.33 629.971H1075.04V639.254H1084.33V629.971Z" fill="#FAFAFA"/>
<path d="M1084.33 676.653H1075.04V685.936H1084.33V676.653Z" fill="#FAFAFA"/>
<path d="M1084.33 692.179H1075.04V701.462H1084.33V692.179Z" fill="#FAFAFA"/>
<path d="M1099.11 521.081H1089.82V530.364H1099.11V521.081Z" fill="#FAFAFA"/>
<path d="M1099.11 536.606H1089.82V545.89H1099.11V536.606Z" fill="#FAFAFA"/>
<path d="M1099.11 552.185H1089.82V561.468H1099.11V552.185Z" fill="#FAFAFA"/>
<path d="M1099.11 567.71H1089.82V576.993H1099.11V567.71Z" fill="#FAFAFA"/>
<path d="M1099.11 583.289H1089.82V592.572H1099.11V583.289Z" fill="#FAFAFA"/>
<path d="M1099.11 598.867H1089.82V608.15H1099.11V598.867Z" fill="#FAFAFA"/>
<path d="M1099.11 614.393H1089.82V623.676H1099.11V614.393Z" fill="#FAFAFA"/>
<path d="M1099.11 629.971H1089.82V639.254H1099.11V629.971Z" fill="#FAFAFA"/>
<path d="M1099.11 692.179H1089.82V701.462H1099.11V692.179Z" fill="#FAFAFA"/>
<path d="M1113.84 521.081H1104.55V530.364H1113.84V521.081Z" fill="#FAFAFA"/>
<path d="M1113.84 536.606H1104.55V545.89H1113.84V536.606Z" fill="#FAFAFA"/>
<path d="M1113.84 552.185H1104.55V561.468H1113.84V552.185Z" fill="#FAFAFA"/>
<path d="M1113.84 567.71H1104.55V576.993H1113.84V567.71Z" fill="#FAFAFA"/>
<path d="M1113.84 583.289H1104.55V592.572H1113.84V583.289Z" fill="#FAFAFA"/>
<path d="M1113.84 598.867H1104.55V608.15H1113.84V598.867Z" fill="#FAFAFA"/>
<path d="M1113.84 614.393H1104.55V623.676H1113.84V614.393Z" fill="#FAFAFA"/>
<path d="M1113.84 629.971H1104.55V639.254H1113.84V629.971Z" fill="#FAFAFA"/>
<path d="M1128.56 521.081H1119.28V530.364H1128.56V521.081Z" fill="#FAFAFA"/>
<path d="M1128.56 536.606H1119.28V545.89H1128.56V536.606Z" fill="#FAFAFA"/>
<path d="M1128.56 552.185H1119.28V561.468H1128.56V552.185Z" fill="#FAFAFA"/>
<path d="M1128.56 567.71H1119.28V576.993H1128.56V567.71Z" fill="#FAFAFA"/>
<path d="M1128.56 583.289H1119.28V592.572H1128.56V583.289Z" fill="#FAFAFA"/>
<path d="M1128.56 598.867H1119.28V608.15H1128.56V598.867Z" fill="#FAFAFA"/>
<path d="M1128.56 629.971H1119.28V639.254H1128.56V629.971Z" fill="#FAFAFA"/>
<path d="M1128.56 645.55H1119.28V654.833H1128.56V645.55Z" fill="#FAFAFA"/>
<path d="M1128.56 692.179H1119.28V701.462H1128.56V692.179Z" fill="#FAFAFA"/>
<path d="M1128.56 707.757H1119.28V717.04H1128.56V707.757Z" fill="#FAFAFA"/>
<path d="M1128.56 723.336H1119.28V732.619H1128.56V723.336Z" fill="#FAFAFA"/>
<path d="M1128.56 738.861H1119.28V748.144H1128.56V738.861Z" fill="#FAFAFA"/>
<path d="M1128.56 754.439H1119.28V763.723H1128.56V754.439Z" fill="#FAFAFA"/>
<path d="M1128.56 769.965H1119.28V779.248H1128.56V769.965Z" fill="#FAFAFA"/>
<path d="M1128.56 785.543H1119.28V794.826H1128.56V785.543Z" fill="#FAFAFA"/>
<path d="M1143.29 521.081H1134.01V530.364H1143.29V521.081Z" fill="#FAFAFA"/>
<path d="M1143.29 536.606H1134.01V545.89H1143.29V536.606Z" fill="#FAFAFA"/>
<path d="M1143.29 552.185H1134.01V561.468H1143.29V552.185Z" fill="#FAFAFA"/>
<path d="M1143.29 567.71H1134.01V576.993H1143.29V567.71Z" fill="#FAFAFA"/>
<path d="M1143.29 583.289H1134.01V592.572H1143.29V583.289Z" fill="#FAFAFA"/>
<path d="M1143.29 598.867H1134.01V608.15H1143.29V598.867Z" fill="#FAFAFA"/>
<path d="M1143.29 645.55H1134.01V654.833H1143.29V645.55Z" fill="#FAFAFA"/>
<path d="M1143.29 661.075H1134.01V670.358H1143.29V661.075Z" fill="#FAFAFA"/>
<path d="M1143.29 676.653H1134.01V685.936H1143.29V676.653Z" fill="#FAFAFA"/>
<path d="M1143.29 692.179H1134.01V701.462H1143.29V692.179Z" fill="#FAFAFA"/>
<path d="M1143.29 707.757H1134.01V717.04H1143.29V707.757Z" fill="#FAFAFA"/>
<path d="M1143.29 723.336H1134.01V732.619H1143.29V723.336Z" fill="#FAFAFA"/>
<path d="M1143.29 738.861H1134.01V748.144H1143.29V738.861Z" fill="#FAFAFA"/>
<path d="M1143.29 754.439H1134.01V763.723H1143.29V754.439Z" fill="#FAFAFA"/>
<path d="M1143.29 769.965H1134.01V779.248H1143.29V769.965Z" fill="#FAFAFA"/>
<path d="M1143.29 785.543H1134.01V794.826H1143.29V785.543Z" fill="#FAFAFA"/>
<path d="M1143.29 801.122H1134.01V810.405H1143.29V801.122Z" fill="#FAFAFA"/>
<path d="M1143.29 832.226H1134.01V841.509H1143.29V832.226Z" fill="#FAFAFA"/>
<path d="M1158.07 521.081H1148.79V530.364H1158.07V521.081Z" fill="#FAFAFA"/>
<path d="M1158.07 536.606H1148.79V545.89H1158.07V536.606Z" fill="#FAFAFA"/>
<path d="M1158.07 552.185H1148.79V561.468H1158.07V552.185Z" fill="#FAFAFA"/>
<path d="M1158.07 567.71H1148.79V576.993H1158.07V567.71Z" fill="#FAFAFA"/>
<path d="M1158.07 583.289H1148.79V592.572H1158.07V583.289Z" fill="#FAFAFA"/>
<path d="M1158.07 598.867H1148.79V608.15H1158.07V598.867Z" fill="#FAFAFA"/>
<path d="M1158.07 645.55H1148.79V654.833H1158.07V645.55Z" fill="#FAFAFA"/>
<path d="M1158.07 661.075H1148.79V670.358H1158.07V661.075Z" fill="#FAFAFA"/>
<path d="M1158.07 676.653H1148.79V685.936H1158.07V676.653Z" fill="#FAFAFA"/>
<path d="M1158.07 692.179H1148.79V701.462H1158.07V692.179Z" fill="#FAFAFA"/>
<path d="M1158.07 738.861H1148.79V748.144H1158.07V738.861Z" fill="#FAFAFA"/>
<path d="M1158.07 754.439H1148.79V763.723H1158.07V754.439Z" fill="#FAFAFA"/>
<path d="M1158.07 769.965H1148.79V779.248H1158.07V769.965Z" fill="#FAFAFA"/>
<path d="M1158.07 785.543H1148.79V794.826H1158.07V785.543Z" fill="#FAFAFA"/>
<path d="M1158.07 801.122H1148.79V810.405H1158.07V801.122Z" fill="#FAFAFA"/>
<path d="M1158.07 832.226H1148.79V841.509H1158.07V832.226Z" fill="#FAFAFA"/>
<path d="M1158.07 847.751H1148.79V857.034H1158.07V847.751Z" fill="#FAFAFA"/>
<path d="M1291.79 665.717H1282.51V675H1291.79V665.717Z" fill="#FAFAFA"/>
<path d="M1291.79 681.295H1282.51V690.578H1291.79V681.295Z" fill="#FAFAFA"/>
<path d="M1291.79 696.82H1282.51V706.103H1291.79V696.82Z" fill="#FAFAFA"/>
<path d="M1291.79 712.398H1282.51V721.682H1291.79V712.398Z" fill="#FAFAFA"/>
<path d="M1291.79 727.978H1282.51V737.261H1291.79V727.978Z" fill="#FAFAFA"/>
<path d="M1291.79 743.502H1282.51V752.785H1291.79V743.502Z" fill="#FAFAFA"/>
<path d="M1291.79 759.081H1282.51V768.364H1291.79V759.081Z" fill="#FAFAFA"/>
<path d="M1291.79 805.764H1282.51V815.047H1291.79V805.764Z" fill="#FAFAFA"/>
<path d="M1291.79 821.288H1282.51V830.571H1291.79V821.288Z" fill="#FAFAFA"/>
<path d="M1291.79 836.867H1282.51V846.15H1291.79V836.867Z" fill="#FAFAFA"/>
<path d="M1306.57 665.717H1297.29V675H1306.57V665.717Z" fill="#FAFAFA"/>
<path d="M1306.57 681.295H1297.29V690.578H1306.57V681.295Z" fill="#FAFAFA"/>
<path d="M1306.57 696.82H1297.29V706.103H1306.57V696.82Z" fill="#FAFAFA"/>
<path d="M1306.57 712.398H1297.29V721.682H1306.57V712.398Z" fill="#FAFAFA"/>
<path d="M1306.57 727.978H1297.29V737.261H1306.57V727.978Z" fill="#FAFAFA"/>
<path d="M1306.57 743.502H1297.29V752.785H1306.57V743.502Z" fill="#FAFAFA"/>
<path d="M1306.57 759.081H1297.29V768.364H1306.57V759.081Z" fill="#FAFAFA"/>
<path d="M1325.36 665.717H1312.02V675H1325.36V665.717Z" fill="#FAFAFA"/>
<path d="M1325.36 681.295H1312.02V690.578H1325.36V681.295Z" fill="#FAFAFA"/>
<path d="M1325.36 696.82H1312.02V706.103H1325.36V696.82Z" fill="#FAFAFA"/>
<path d="M1325.36 712.398H1312.02V721.682H1325.36V712.398Z" fill="#FAFAFA"/>
<path d="M1325.36 727.978H1312.02V737.261H1325.36V727.978Z" fill="#FAFAFA"/>
<path d="M1325.36 743.502H1312.02V752.785H1325.36V743.502Z" fill="#FAFAFA"/>
<path d="M1325.36 759.081H1312.02V768.364H1325.36V759.081Z" fill="#FAFAFA"/>
<path d="M510.548 685.937H501.263V695.22H510.548V685.937Z" fill="#FAFAFA"/>
<path d="M510.548 701.462H501.263V710.745H510.548V701.462Z" fill="#FAFAFA"/>
<path d="M510.548 717.04H501.263V726.323H510.548V717.04Z" fill="#FAFAFA"/>
<path d="M510.548 732.565H501.263V741.849H510.548V732.565Z" fill="#FAFAFA"/>
<path d="M510.548 748.144H501.263V757.427H510.548V748.144Z" fill="#FAFAFA"/>
<path d="M510.548 763.723H501.263V773.006H510.548V763.723Z" fill="#FAFAFA"/>
<path d="M510.548 779.248H501.263V788.531H510.548V779.248Z" fill="#FAFAFA"/>
<path d="M510.548 794.826H501.263V804.109H510.548V794.826Z" fill="#FAFAFA"/>
<path d="M510.548 810.404H501.263V819.687H510.548V810.404Z" fill="#FAFAFA"/>
<path d="M510.548 825.93H501.263V835.213H510.548V825.93Z" fill="#FAFAFA"/>
<path d="M510.548 841.509H501.263V850.792H510.548V841.509Z" fill="#FAFAFA"/>
<path d="M510.548 857.034H501.263V866.317H510.548V857.034Z" fill="#FAFAFA"/>
<path d="M510.548 872.612H501.263V881.895H510.548V872.612Z" fill="#FAFAFA"/>
<path d="M510.548 888.191H501.263V897.475H510.548V888.191Z" fill="#FAFAFA"/>
<path d="M510.548 903.716H501.263V912.999H510.548V903.716Z" fill="#FAFAFA"/>
<path d="M510.548 919.295H501.263V928.578H510.548V919.295Z" fill="#FAFAFA"/>
<path d="M510.548 934.82H501.263V944.103H510.548V934.82Z" fill="#FAFAFA"/>
<path d="M510.548 950.398H501.263V959.682H510.548V950.398Z" fill="#FAFAFA"/>
<path d="M510.548 965.977H501.263V975.26H510.548V965.977Z" fill="#FAFAFA"/>
<path d="M510.548 981.502H501.263V990.785H510.548V981.502Z" fill="#FAFAFA"/>
<path d="M525.277 685.937H515.992V695.22H525.277V685.937Z" fill="#FAFAFA"/>
<path d="M525.277 701.462H515.992V710.745H525.277V701.462Z" fill="#FAFAFA"/>
<path d="M525.277 717.04H515.992V726.323H525.277V717.04Z" fill="#FAFAFA"/>
<path d="M525.277 732.565H515.992V741.849H525.277V732.565Z" fill="#FAFAFA"/>
<path d="M525.277 748.144H515.992V757.427H525.277V748.144Z" fill="#FAFAFA"/>
<path d="M525.277 763.723H515.992V773.006H525.277V763.723Z" fill="#FAFAFA"/>
<path d="M525.277 779.248H515.992V788.531H525.277V779.248Z" fill="#FAFAFA"/>
<path d="M525.277 794.826H515.992V804.109H525.277V794.826Z" fill="#FAFAFA"/>
<path d="M525.277 810.404H515.992V819.687H525.277V810.404Z" fill="#FAFAFA"/>
<path d="M525.277 825.93H515.992V835.213H525.277V825.93Z" fill="#FAFAFA"/>
<path d="M525.277 841.509H515.992V850.792H525.277V841.509Z" fill="#FAFAFA"/>
<path d="M525.277 857.034H515.992V866.317H525.277V857.034Z" fill="#FAFAFA"/>
<path d="M525.277 872.612H515.992V881.895H525.277V872.612Z" fill="#FAFAFA"/>
<path d="M525.277 888.191H515.992V897.475H525.277V888.191Z" fill="#FAFAFA"/>
<path d="M525.277 903.716H515.992V912.999H525.277V903.716Z" fill="#FAFAFA"/>
<path d="M525.277 919.295H515.992V928.578H525.277V919.295Z" fill="#FAFAFA"/>
<path d="M525.277 934.82H515.992V944.103H525.277V934.82Z" fill="#FAFAFA"/>
<path d="M525.277 950.398H515.992V959.682H525.277V950.398Z" fill="#FAFAFA"/>
<path d="M540.003 685.937H530.719V695.22H540.003V685.937Z" fill="#FAFAFA"/>
<path d="M540.003 701.462H530.719V710.745H540.003V701.462Z" fill="#FAFAFA"/>
<path d="M540.003 717.04H530.719V726.323H540.003V717.04Z" fill="#FAFAFA"/>
<path d="M540.003 732.565H530.719V741.849H540.003V732.565Z" fill="#FAFAFA"/>
<path d="M540.003 748.144H530.719V757.427H540.003V748.144Z" fill="#FAFAFA"/>
<path d="M540.003 763.723H530.719V773.006H540.003V763.723Z" fill="#FAFAFA"/>
<path d="M540.003 779.248H530.719V788.531H540.003V779.248Z" fill="#FAFAFA"/>
<path d="M540.003 794.826H530.719V804.109H540.003V794.826Z" fill="#FAFAFA"/>
<path d="M540.003 810.404H530.719V819.687H540.003V810.404Z" fill="#FAFAFA"/>
<path d="M540.003 825.93H530.719V835.213H540.003V825.93Z" fill="#FAFAFA"/>
<path d="M540.003 841.509H530.719V850.792H540.003V841.509Z" fill="#FAFAFA"/>
<path d="M540.003 857.034H530.719V866.317H540.003V857.034Z" fill="#FAFAFA"/>
<path d="M540.003 872.612H530.719V881.895H540.003V872.612Z" fill="#FAFAFA"/>
<path d="M540.003 888.191H530.719V897.475H540.003V888.191Z" fill="#FAFAFA"/>
<path d="M540.003 903.716H530.719V912.999H540.003V903.716Z" fill="#FAFAFA"/>
<path d="M540.003 919.295H530.719V928.578H540.003V919.295Z" fill="#FAFAFA"/>
<path d="M540.003 934.82H530.719V944.103H540.003V934.82Z" fill="#FAFAFA"/>
<path d="M540.003 950.398H530.719V959.682H540.003V950.398Z" fill="#FAFAFA"/>
<path d="M455.375 799.468H446.09V808.751H455.375V799.468Z" fill="#FAFAFA"/>
<path d="M455.375 815.047H446.09V824.33H455.375V815.047Z" fill="#FAFAFA"/>
<path d="M455.375 830.571H446.09V839.854H455.375V830.571Z" fill="#FAFAFA"/>
<path d="M455.375 846.15H446.09V855.433H455.375V846.15Z" fill="#FAFAFA"/>
<path d="M455.375 861.676H446.09V870.959H455.375V861.676Z" fill="#FAFAFA"/>
<path d="M455.375 877.254H446.09V886.537H455.375V877.254Z" fill="#FAFAFA"/>
<path d="M455.375 892.832H446.09V902.115H455.375V892.832Z" fill="#FAFAFA"/>
<path d="M455.375 908.357H446.09V917.641H455.375V908.357Z" fill="#FAFAFA"/>
<path d="M455.375 923.937H446.09V933.22H455.375V923.937Z" fill="#FAFAFA"/>
<path d="M455.375 939.461H446.09V948.744H455.375V939.461Z" fill="#FAFAFA"/>
<path d="M455.375 955.04H446.09V964.323H455.375V955.04Z" fill="#FAFAFA"/>
<path d="M455.375 970.618H446.09V979.901H455.375V970.618Z" fill="#FAFAFA"/>
<path d="M455.375 986.144H446.09V995.427H455.375V986.144Z" fill="#FAFAFA"/>
<path d="M470.101 799.468H460.816V808.751H470.101V799.468Z" fill="#FAFAFA"/>
<path d="M470.101 815.047H460.816V824.33H470.101V815.047Z" fill="#FAFAFA"/>
<path d="M470.101 830.571H460.816V839.854H470.101V830.571Z" fill="#FAFAFA"/>
<path d="M470.101 846.15H460.816V855.433H470.101V846.15Z" fill="#FAFAFA"/>
<path d="M470.101 861.676H460.816V870.959H470.101V861.676Z" fill="#FAFAFA"/>
<path d="M470.101 877.254H460.816V886.537H470.101V877.254Z" fill="#FAFAFA"/>
<path d="M470.101 892.832H460.816V902.115H470.101V892.832Z" fill="#FAFAFA"/>
<path d="M470.101 908.357H460.816V917.641H470.101V908.357Z" fill="#FAFAFA"/>
<path d="M470.101 923.937H460.816V933.22H470.101V923.937Z" fill="#FAFAFA"/>
<path d="M470.101 939.461H460.816V948.744H470.101V939.461Z" fill="#FAFAFA"/>
<path d="M470.101 955.04H460.816V964.323H470.101V955.04Z" fill="#FAFAFA"/>
<path d="M470.101 970.618H460.816V979.901H470.101V970.618Z" fill="#FAFAFA"/>
<path d="M470.101 986.144H460.816V995.427H470.101V986.144Z" fill="#FAFAFA"/>
<path d="M484.882 799.468H475.597V808.751H484.882V799.468Z" fill="#FAFAFA"/>
<path d="M484.882 815.047H475.597V824.33H484.882V815.047Z" fill="#FAFAFA"/>
<path d="M484.882 830.571H475.597V839.854H484.882V830.571Z" fill="#FAFAFA"/>
<path d="M484.882 846.15H475.597V855.433H484.882V846.15Z" fill="#FAFAFA"/>
<path d="M484.882 861.676H475.597V870.959H484.882V861.676Z" fill="#FAFAFA"/>
<path d="M484.882 877.254H475.597V886.537H484.882V877.254Z" fill="#FAFAFA"/>
<path d="M484.882 892.832H475.597V902.115H484.882V892.832Z" fill="#FAFAFA"/>
<path d="M484.882 908.357H475.597V917.641H484.882V908.357Z" fill="#FAFAFA"/>
<path d="M484.882 923.937H475.597V933.22H484.882V923.937Z" fill="#FAFAFA"/>
<path d="M484.882 939.461H475.597V948.744H484.882V939.461Z" fill="#FAFAFA"/>
<path d="M484.882 955.04H475.597V964.323H484.882V955.04Z" fill="#FAFAFA"/>
<path d="M484.882 970.618H475.597V979.901H484.882V970.618Z" fill="#FAFAFA"/>
<path d="M484.882 986.144H475.597V995.427H484.882V986.144Z" fill="#FAFAFA"/>
<path d="M484.882 1001.72H475.597V1011.01H484.882V1001.72Z" fill="#FAFAFA"/>
<path d="M566.79 804.109H557.505V813.393H566.79V804.109Z" fill="#FAFAFA"/>
<path d="M566.79 819.635H557.505V828.918H566.79V819.635Z" fill="#FAFAFA"/>
<path d="M566.79 835.213H557.505V844.496H566.79V835.213Z" fill="#FAFAFA"/>
<path d="M566.79 850.792H557.505V860.075H566.79V850.792Z" fill="#FAFAFA"/>
<path d="M566.79 866.316H557.505V875.599H566.79V866.316Z" fill="#FAFAFA"/>
<path d="M566.79 881.896H557.505V891.179H566.79V881.896Z" fill="#FAFAFA"/>
<path d="M566.79 897.474H557.505V906.757H566.79V897.474Z" fill="#FAFAFA"/>
<path d="M566.79 912.999H557.505V922.282H566.79V912.999Z" fill="#FAFAFA"/>
<path d="M566.79 928.578H557.505V937.861H566.79V928.578Z" fill="#FAFAFA"/>
<path d="M566.79 944.104H557.505V953.387H566.79V944.104Z" fill="#FAFAFA"/>
<path d="M566.79 990.785H557.505V1000.07H566.79V990.785Z" fill="#FAFAFA"/>
<path d="M581.517 804.109H572.232V813.393H581.517V804.109Z" fill="#FAFAFA"/>
<path d="M581.517 819.635H572.232V828.918H581.517V819.635Z" fill="#FAFAFA"/>
<path d="M581.517 835.213H572.232V844.496H581.517V835.213Z" fill="#FAFAFA"/>
<path d="M581.517 850.792H572.232V860.075H581.517V850.792Z" fill="#FAFAFA"/>
<path d="M581.517 866.316H572.232V875.599H581.517V866.316Z" fill="#FAFAFA"/>
<path d="M581.517 881.896H572.232V891.179H581.517V881.896Z" fill="#FAFAFA"/>
<path d="M581.517 897.474H572.232V906.757H581.517V897.474Z" fill="#FAFAFA"/>
<path d="M581.517 912.999H572.232V922.282H581.517V912.999Z" fill="#FAFAFA"/>
<path d="M581.517 928.578H572.232V937.861H581.517V928.578Z" fill="#FAFAFA"/>
<path d="M581.517 975.26H572.232V984.543H581.517V975.26Z" fill="#FAFAFA"/>
<path d="M581.517 990.785H572.232V1000.07H581.517V990.785Z" fill="#FAFAFA"/>
<path d="M596.245 804.109H586.96V813.393H596.245V804.109Z" fill="#FAFAFA"/>
<path d="M596.245 819.635H586.96V828.918H596.245V819.635Z" fill="#FAFAFA"/>
<path d="M596.245 835.213H586.96V844.496H596.245V835.213Z" fill="#FAFAFA"/>
<path d="M596.245 850.792H586.96V860.075H596.245V850.792Z" fill="#FAFAFA"/>
<path d="M596.245 866.316H586.96V875.599H596.245V866.316Z" fill="#FAFAFA"/>
<path d="M596.245 881.896H586.96V891.179H596.245V881.896Z" fill="#FAFAFA"/>
<path d="M596.245 897.474H586.96V906.757H596.245V897.474Z" fill="#FAFAFA"/>
<path d="M596.245 912.999H586.96V922.282H596.245V912.999Z" fill="#FAFAFA"/>
<path d="M596.245 959.682H586.96V968.965H596.245V959.682Z" fill="#FAFAFA"/>
<path d="M596.245 975.26H586.96V984.543H596.245V975.26Z" fill="#FAFAFA"/>
<path d="M596.245 990.785H586.96V1000.07H596.245V990.785Z" fill="#FAFAFA"/>
<path d="M733.273 567.71H723.988V576.993H733.273V567.71Z" fill="#FAFAFA"/>
<path d="M733.273 583.289H723.988V592.572H733.273V583.289Z" fill="#FAFAFA"/>
<path d="M733.273 598.867H723.988V608.15H733.273V598.867Z" fill="#FAFAFA"/>
<path d="M733.273 614.393H723.988V623.676H733.273V614.393Z" fill="#FAFAFA"/>
<path d="M733.273 629.971H723.988V639.254H733.273V629.971Z" fill="#FAFAFA"/>
<path d="M733.273 645.55H723.988V654.833H733.273V645.55Z" fill="#FAFAFA"/>
<path d="M733.273 661.075H723.988V670.358H733.273V661.075Z" fill="#FAFAFA"/>
<path d="M733.273 676.653H723.988V685.936H733.273V676.653Z" fill="#FAFAFA"/>
<path d="M733.273 692.179H723.988V701.462H733.273V692.179Z" fill="#FAFAFA"/>
<path d="M733.273 707.757H723.988V717.04H733.273V707.757Z" fill="#FAFAFA"/>
<path d="M733.273 723.336H723.988V732.619H733.273V723.336Z" fill="#FAFAFA"/>
<path d="M733.273 738.861H723.988V748.144H733.273V738.861Z" fill="#FAFAFA"/>
<path d="M733.273 754.439H723.988V763.723H733.273V754.439Z" fill="#FAFAFA"/>
<path d="M733.273 769.965H723.988V779.248H733.273V769.965Z" fill="#FAFAFA"/>
<path d="M733.273 785.543H723.988V794.826H733.273V785.543Z" fill="#FAFAFA"/>
<path d="M733.273 801.122H723.988V810.405H733.273V801.122Z" fill="#FAFAFA"/>
<path d="M733.273 816.646H723.988V825.93H733.273V816.646Z" fill="#FAFAFA"/>
<path d="M733.273 847.751H723.988V857.034H733.273V847.751Z" fill="#FAFAFA"/>
<path d="M733.273 863.329H723.988V872.612H733.273V863.329Z" fill="#FAFAFA"/>
<path d="M733.273 878.908H723.988V888.191H733.273V878.908Z" fill="#FAFAFA"/>
<path d="M733.273 894.433H723.988V903.716H733.273V894.433Z" fill="#FAFAFA"/>
<path d="M733.273 910.012H723.988V919.295H733.273V910.012Z" fill="#FAFAFA"/>
<path d="M748 567.71H738.716V576.993H748V567.71Z" fill="#FAFAFA"/>
<path d="M748 583.289H738.716V592.572H748V583.289Z" fill="#FAFAFA"/>
<path d="M748 598.867H738.716V608.15H748V598.867Z" fill="#FAFAFA"/>
<path d="M748 614.393H738.716V623.676H748V614.393Z" fill="#FAFAFA"/>
<path d="M748 629.971H738.716V639.254H748V629.971Z" fill="#FAFAFA"/>
<path d="M748 645.55H738.716V654.833H748V645.55Z" fill="#FAFAFA"/>
<path d="M748 661.075H738.716V670.358H748V661.075Z" fill="#FAFAFA"/>
<path d="M748 676.653H738.716V685.936H748V676.653Z" fill="#FAFAFA"/>
<path d="M748 692.179H738.716V701.462H748V692.179Z" fill="#FAFAFA"/>
<path d="M748 707.757H738.716V717.04H748V707.757Z" fill="#FAFAFA"/>
<path d="M748 723.336H738.716V732.619H748V723.336Z" fill="#FAFAFA"/>
<path d="M748 738.861H738.716V748.144H748V738.861Z" fill="#FAFAFA"/>
<path d="M748 754.439H738.716V763.723H748V754.439Z" fill="#FAFAFA"/>
<path d="M748 769.965H738.716V779.248H748V769.965Z" fill="#FAFAFA"/>
<path d="M748 785.543H738.716V794.826H748V785.543Z" fill="#FAFAFA"/>
<path d="M748 801.122H738.716V810.405H748V801.122Z" fill="#FAFAFA"/>
<path d="M748 894.433H738.716V903.716H748V894.433Z" fill="#FAFAFA"/>
<path d="M748 910.012H738.716V919.295H748V910.012Z" fill="#FAFAFA"/>
<path d="M762.781 567.71H753.497V576.993H762.781V567.71Z" fill="#FAFAFA"/>
<path d="M762.781 583.289H753.497V592.572H762.781V583.289Z" fill="#FAFAFA"/>
<path d="M762.781 598.867H753.497V608.15H762.781V598.867Z" fill="#FAFAFA"/>
<path d="M762.781 614.393H753.497V623.676H762.781V614.393Z" fill="#FAFAFA"/>
<path d="M762.781 629.971H753.497V639.254H762.781V629.971Z" fill="#FAFAFA"/>
<path d="M762.781 645.55H753.497V654.833H762.781V645.55Z" fill="#FAFAFA"/>
<path d="M762.781 661.075H753.497V670.358H762.781V661.075Z" fill="#FAFAFA"/>
<path d="M762.781 676.653H753.497V685.936H762.781V676.653Z" fill="#FAFAFA"/>
<path d="M762.781 692.179H753.497V701.462H762.781V692.179Z" fill="#FAFAFA"/>
<path d="M762.781 707.757H753.497V717.04H762.781V707.757Z" fill="#FAFAFA"/>
<path d="M762.781 723.336H753.497V732.619H762.781V723.336Z" fill="#FAFAFA"/>
<path d="M762.781 738.861H753.497V748.144H762.781V738.861Z" fill="#FAFAFA"/>
<path d="M762.781 754.439H753.497V763.723H762.781V754.439Z" fill="#FAFAFA"/>
<path d="M762.781 769.965H753.497V779.248H762.781V769.965Z" fill="#FAFAFA"/>
<path d="M762.781 785.543H753.497V794.826H762.781V785.543Z" fill="#FAFAFA"/>
<path d="M762.781 801.122H753.497V810.405H762.781V801.122Z" fill="#FAFAFA"/>
<path d="M762.781 832.226H753.497V841.509H762.781V832.226Z" fill="#FAFAFA"/>
<path d="M762.781 847.751H753.497V857.034H762.781V847.751Z" fill="#FAFAFA"/>
<path d="M762.781 863.329H753.497V872.612H762.781V863.329Z" fill="#FAFAFA"/>
<path d="M762.781 878.908H753.497V888.191H762.781V878.908Z" fill="#FAFAFA"/>
<path d="M762.781 910.012H753.497V919.295H762.781V910.012Z" fill="#FAFAFA"/>
<path d="M679.753 763.723H670.468V773.006H679.753V763.723Z" fill="#FAFAFA"/>
<path d="M679.753 779.248H670.468V788.531H679.753V779.248Z" fill="#FAFAFA"/>
<path d="M679.753 794.826H670.468V804.109H679.753V794.826Z" fill="#FAFAFA"/>
<path d="M679.753 810.404H670.468V819.687H679.753V810.404Z" fill="#FAFAFA"/>
<path d="M679.753 825.93H670.468V835.213H679.753V825.93Z" fill="#FAFAFA"/>
<path d="M679.753 841.509H670.468V850.792H679.753V841.509Z" fill="#FAFAFA"/>
<path d="M679.753 857.034H670.468V866.317H679.753V857.034Z" fill="#FAFAFA"/>
<path d="M679.753 888.191H670.468V897.475H679.753V888.191Z" fill="#FAFAFA"/>
<path d="M679.753 903.716H670.468V912.999H679.753V903.716Z" fill="#FAFAFA"/>
<path d="M679.753 919.295H670.468V928.578H679.753V919.295Z" fill="#FAFAFA"/>
<path d="M679.753 934.82H670.468V944.103H679.753V934.82Z" fill="#FAFAFA"/>
<path d="M679.753 950.398H670.468V959.682H679.753V950.398Z" fill="#FAFAFA"/>
<path d="M679.753 965.977H670.468V975.26H679.753V965.977Z" fill="#FAFAFA"/>
<path d="M679.753 981.502H670.468V990.785H679.753V981.502Z" fill="#FAFAFA"/>
<path d="M679.753 997.081H670.468V1006.36H679.753V997.081Z" fill="#FAFAFA"/>
<path d="M694.534 763.723H685.249V773.006H694.534V763.723Z" fill="#FAFAFA"/>
<path d="M694.534 779.248H685.249V788.531H694.534V779.248Z" fill="#FAFAFA"/>
<path d="M694.534 794.826H685.249V804.109H694.534V794.826Z" fill="#FAFAFA"/>
<path d="M694.534 810.404H685.249V819.687H694.534V810.404Z" fill="#FAFAFA"/>
<path d="M694.534 825.93H685.249V835.213H694.534V825.93Z" fill="#FAFAFA"/>
<path d="M694.534 841.509H685.249V850.792H694.534V841.509Z" fill="#FAFAFA"/>
<path d="M694.534 888.191H685.249V897.475H694.534V888.191Z" fill="#FAFAFA"/>
<path d="M694.534 903.716H685.249V912.999H694.534V903.716Z" fill="#FAFAFA"/>
<path d="M694.534 919.295H685.249V928.578H694.534V919.295Z" fill="#FAFAFA"/>
<path d="M694.534 934.82H685.249V944.103H694.534V934.82Z" fill="#FAFAFA"/>
<path d="M694.534 950.398H685.249V959.682H694.534V950.398Z" fill="#FAFAFA"/>
<path d="M694.534 965.977H685.249V975.26H694.534V965.977Z" fill="#FAFAFA"/>
<path d="M694.534 981.502H685.249V990.785H694.534V981.502Z" fill="#FAFAFA"/>
<path d="M694.534 997.081H685.249V1006.36H694.534V997.081Z" fill="#FAFAFA"/>
<path d="M709.261 763.723H699.977V773.006H709.261V763.723Z" fill="#FAFAFA"/>
<path d="M709.261 779.248H699.977V788.531H709.261V779.248Z" fill="#FAFAFA"/>
<path d="M709.261 794.826H699.977V804.109H709.261V794.826Z" fill="#FAFAFA"/>
<path d="M709.261 810.404H699.977V819.687H709.261V810.404Z" fill="#FAFAFA"/>
<path d="M709.261 825.93H699.977V835.213H709.261V825.93Z" fill="#FAFAFA"/>
<path d="M709.261 841.509H699.977V850.792H709.261V841.509Z" fill="#FAFAFA"/>
<path d="M709.261 872.612H699.977V881.895H709.261V872.612Z" fill="#FAFAFA"/>
<path d="M709.261 888.191H699.977V897.475H709.261V888.191Z" fill="#FAFAFA"/>
<path d="M709.261 903.716H699.977V912.999H709.261V903.716Z" fill="#FAFAFA"/>
<path d="M709.261 919.295H699.977V928.578H709.261V919.295Z" fill="#FAFAFA"/>
<path d="M709.261 934.82H699.977V944.103H709.261V934.82Z" fill="#FAFAFA"/>
<path d="M709.261 950.398H699.977V959.682H709.261V950.398Z" fill="#FAFAFA"/>
<path d="M709.261 965.977H699.977V975.26H709.261V965.977Z" fill="#FAFAFA"/>
<path d="M709.261 981.502H699.977V990.785H709.261V981.502Z" fill="#FAFAFA"/>
<path d="M709.261 997.081H699.977V1006.36H709.261V997.081Z" fill="#FAFAFA"/>
<path d="M1019.92 676.653H1010.64V685.936H1019.92V676.653Z" fill="#FAFAFA"/>
<path d="M1019.92 692.179H1010.64V701.462H1019.92V692.179Z" fill="#FAFAFA"/>
<path d="M1019.92 707.757H1010.64V717.04H1019.92V707.757Z" fill="#FAFAFA"/>
<path d="M1019.92 723.336H1010.64V732.619H1019.92V723.336Z" fill="#FAFAFA"/>
<path d="M1019.92 738.861H1010.64V748.144H1019.92V738.861Z" fill="#FAFAFA"/>
<path d="M1019.92 754.439H1010.64V763.723H1019.92V754.439Z" fill="#FAFAFA"/>
<path d="M1019.92 769.965H1010.64V779.248H1019.92V769.965Z" fill="#FAFAFA"/>
<path d="M1019.92 785.543H1010.64V794.826H1019.92V785.543Z" fill="#FAFAFA"/>
<path d="M1019.92 801.122H1010.64V810.405H1019.92V801.122Z" fill="#FAFAFA"/>
<path d="M1019.92 816.646H1010.64V825.93H1019.92V816.646Z" fill="#FAFAFA"/>
<path d="M1019.92 832.226H1010.64V841.509H1019.92V832.226Z" fill="#FAFAFA"/>
<path d="M1019.92 847.751H1010.64V857.034H1019.92V847.751Z" fill="#FAFAFA"/>
<path d="M1019.92 863.329H1010.64V872.612H1019.92V863.329Z" fill="#FAFAFA"/>
<path d="M1019.92 894.433H1010.64V903.716H1019.92V894.433Z" fill="#FAFAFA"/>
<path d="M1019.92 910.012H1010.64V919.295H1019.92V910.012Z" fill="#FAFAFA"/>
<path d="M1019.92 925.537H1010.64V934.82H1019.92V925.537Z" fill="#FAFAFA"/>
<path d="M1019.92 941.115H1010.64V950.398H1019.92V941.115Z" fill="#FAFAFA"/>
<path d="M1019.92 972.219H1010.64V981.502H1019.92V972.219Z" fill="#FAFAFA"/>
<path d="M1019.92 987.798H1010.64V997.081H1019.92V987.798Z" fill="#FAFAFA"/>
<path d="M1019.92 1003.32H1010.64V1012.61H1019.92V1003.32Z" fill="#FAFAFA"/>
<path d="M1034.65 676.653H1025.37V685.936H1034.65V676.653Z" fill="#FAFAFA"/>
<path d="M1034.65 692.179H1025.37V701.462H1034.65V692.179Z" fill="#FAFAFA"/>
<path d="M1034.65 707.757H1025.37V717.04H1034.65V707.757Z" fill="#FAFAFA"/>
<path d="M1034.65 723.336H1025.37V732.619H1034.65V723.336Z" fill="#FAFAFA"/>
<path d="M1034.65 738.861H1025.37V748.144H1034.65V738.861Z" fill="#FAFAFA"/>
<path d="M1034.65 754.439H1025.37V763.723H1034.65V754.439Z" fill="#FAFAFA"/>
<path d="M1034.65 769.965H1025.37V779.248H1034.65V769.965Z" fill="#FAFAFA"/>
<path d="M1034.65 785.543H1025.37V794.826H1034.65V785.543Z" fill="#FAFAFA"/>
<path d="M1034.65 801.122H1025.37V810.405H1034.65V801.122Z" fill="#FAFAFA"/>
<path d="M1034.65 816.646H1025.37V825.93H1034.65V816.646Z" fill="#FAFAFA"/>
<path d="M1034.65 832.226H1025.37V841.509H1034.65V832.226Z" fill="#FAFAFA"/>
<path d="M1034.65 847.751H1025.37V857.034H1034.65V847.751Z" fill="#FAFAFA"/>
<path d="M1034.65 863.329H1025.37V872.612H1034.65V863.329Z" fill="#FAFAFA"/>
<path d="M1034.65 910.012H1025.37V919.295H1034.65V910.012Z" fill="#FAFAFA"/>
<path d="M1034.65 925.537H1025.37V934.82H1034.65V925.537Z" fill="#FAFAFA"/>
<path d="M1034.65 956.693H1025.37V965.976H1034.65V956.693Z" fill="#FAFAFA"/>
<path d="M1034.65 972.219H1025.37V981.502H1034.65V972.219Z" fill="#FAFAFA"/>
<path d="M1034.65 987.798H1025.37V997.081H1034.65V987.798Z" fill="#FAFAFA"/>
<path d="M1034.65 1003.32H1025.37V1012.61H1034.65V1003.32Z" fill="#FAFAFA"/>
<path d="M1049.38 676.653H1040.09V685.936H1049.38V676.653Z" fill="#FAFAFA"/>
<path d="M1049.38 692.179H1040.09V701.462H1049.38V692.179Z" fill="#FAFAFA"/>
<path d="M1049.38 707.757H1040.09V717.04H1049.38V707.757Z" fill="#FAFAFA"/>
<path d="M1049.38 723.336H1040.09V732.619H1049.38V723.336Z" fill="#FAFAFA"/>
<path d="M1049.38 738.861H1040.09V748.144H1049.38V738.861Z" fill="#FAFAFA"/>
<path d="M1049.38 754.439H1040.09V763.723H1049.38V754.439Z" fill="#FAFAFA"/>
<path d="M1049.38 769.965H1040.09V779.248H1049.38V769.965Z" fill="#FAFAFA"/>
<path d="M1049.38 785.543H1040.09V794.826H1049.38V785.543Z" fill="#FAFAFA"/>
<path d="M1049.38 801.122H1040.09V810.405H1049.38V801.122Z" fill="#FAFAFA"/>
<path d="M1049.38 816.646H1040.09V825.93H1049.38V816.646Z" fill="#FAFAFA"/>
<path d="M1049.38 832.226H1040.09V841.509H1049.38V832.226Z" fill="#FAFAFA"/>
<path d="M1049.38 847.751H1040.09V857.034H1049.38V847.751Z" fill="#FAFAFA"/>
<path d="M1049.38 863.329H1040.09V872.612H1049.38V863.329Z" fill="#FAFAFA"/>
<path d="M1049.38 878.908H1040.09V888.191H1049.38V878.908Z" fill="#FAFAFA"/>
<path d="M1049.38 910.012H1040.09V919.295H1049.38V910.012Z" fill="#FAFAFA"/>
<path d="M1049.38 941.115H1040.09V950.398H1049.38V941.115Z" fill="#FAFAFA"/>
<path d="M1049.38 956.693H1040.09V965.976H1049.38V956.693Z" fill="#FAFAFA"/>
<path d="M1049.38 972.219H1040.09V981.502H1049.38V972.219Z" fill="#FAFAFA"/>
<path d="M1049.38 987.798H1040.09V997.081H1049.38V987.798Z" fill="#FAFAFA"/>
<path d="M1049.38 1003.32H1040.09V1012.61H1049.38V1003.32Z" fill="#FAFAFA"/>
<path d="M959.84 765.323H950.555V774.606H959.84V765.323Z" fill="#FAFAFA"/>
<path d="M959.84 780.901H950.555V790.185H959.84V780.901Z" fill="#FAFAFA"/>
<path d="M959.84 796.48H950.555V805.764H959.84V796.48Z" fill="#FAFAFA"/>
<path d="M959.84 812.006H950.555V821.289H959.84V812.006Z" fill="#FAFAFA"/>
<path d="M959.84 827.584H950.555V836.867H959.84V827.584Z" fill="#FAFAFA"/>
<path d="M959.84 843.109H950.555V852.393H959.84V843.109Z" fill="#FAFAFA"/>
<path d="M959.84 889.791H950.555V899.074H959.84V889.791Z" fill="#FAFAFA"/>
<path d="M959.84 905.37H950.555V914.653H959.84V905.37Z" fill="#FAFAFA"/>
<path d="M959.84 920.896H950.555V930.179H959.84V920.896Z" fill="#FAFAFA"/>
<path d="M959.84 936.474H950.555V945.757H959.84V936.474Z" fill="#FAFAFA"/>
<path d="M959.84 952.053H950.555V961.336H959.84V952.053Z" fill="#FAFAFA"/>
<path d="M959.84 967.577H950.555V976.86H959.84V967.577Z" fill="#FAFAFA"/>
<path d="M959.84 983.156H950.555V992.439H959.84V983.156Z" fill="#FAFAFA"/>
<path d="M974.621 765.323H965.336V774.606H974.621V765.323Z" fill="#FAFAFA"/>
<path d="M974.621 780.901H965.336V790.185H974.621V780.901Z" fill="#FAFAFA"/>
<path d="M974.621 796.48H965.336V805.764H974.621V796.48Z" fill="#FAFAFA"/>
<path d="M974.621 812.006H965.336V821.289H974.621V812.006Z" fill="#FAFAFA"/>
<path d="M974.621 827.584H965.336V836.867H974.621V827.584Z" fill="#FAFAFA"/>
<path d="M974.621 843.109H965.336V852.393H974.621V843.109Z" fill="#FAFAFA"/>
<path d="M974.621 889.791H965.336V899.074H974.621V889.791Z" fill="#FAFAFA"/>
<path d="M974.621 905.37H965.336V914.653H974.621V905.37Z" fill="#FAFAFA"/>
<path d="M974.621 920.896H965.336V930.179H974.621V920.896Z" fill="#FAFAFA"/>
<path d="M974.621 936.474H965.336V945.757H974.621V936.474Z" fill="#FAFAFA"/>
<path d="M974.621 952.053H965.336V961.336H974.621V952.053Z" fill="#FAFAFA"/>
<path d="M974.621 967.577H965.336V976.86H974.621V967.577Z" fill="#FAFAFA"/>
<path d="M974.621 998.734H965.336V1008.02H974.621V998.734Z" fill="#FAFAFA"/>
<path d="M1327.86 256.62H1309.45V1267.57H1327.86V256.62Z" fill="#EBEBEB"/>
<path d="M1031.98 256.62H1016.4V1267.57H1031.98V256.62Z" fill="#EBEBEB"/>
<path d="M738.929 256.62H723.348V1267.57H738.929V256.62Z" fill="#EBEBEB"/>
<path d="M1840.39 296.632C1882.15 296.632 1916 262.785 1916 221.033C1916 179.281 1882.15 145.435 1840.39 145.435C1798.63 145.435 1764.78 179.281 1764.78 221.033C1764.78 262.785 1798.63 296.632 1840.39 296.632Z" fill="#E0E0E0"/>
<path d="M1904.63 221.035C1904.63 233.697 1900.88 246.075 1893.84 256.603C1886.8 267.132 1876.8 275.338 1865.1 280.183C1853.4 285.029 1840.53 286.296 1828.11 283.826C1815.69 281.356 1804.28 275.259 1795.32 266.305C1786.36 257.351 1780.27 245.944 1777.8 233.525C1775.32 221.106 1776.59 208.234 1781.44 196.535C1786.29 184.837 1794.5 174.838 1805.02 167.803C1815.56 160.769 1827.94 157.014 1840.6 157.014C1857.58 157.014 1873.87 163.759 1885.88 175.765C1897.89 187.771 1904.63 204.056 1904.63 221.035Z" fill="#F0F0F0"/>
<path d="M1837.34 176.966V221.888L1807.57 205.029" fill="#F0F0F0"/>
<path d="M1837.35 227.222C1836.43 227.219 1835.53 226.98 1834.73 226.528L1804.96 209.669C1803.72 208.962 1802.82 207.795 1802.45 206.424C1802.08 205.053 1802.27 203.592 1802.98 202.36C1803.69 201.129 1804.85 200.23 1806.23 199.86C1807.6 199.489 1809.06 199.679 1810.29 200.386L1832.12 212.764V176.965C1832.12 175.55 1832.68 174.193 1833.68 173.193C1834.68 172.192 1836.04 171.63 1837.45 171.63C1838.87 171.63 1840.22 172.192 1841.22 173.193C1842.22 174.193 1842.79 175.55 1842.79 176.965V221.887C1842.79 222.827 1842.55 223.751 1842.08 224.567C1841.61 225.382 1840.93 226.058 1840.12 226.528C1839.28 227.008 1838.32 227.247 1837.35 227.222Z" fill="#E0E0E0"/>
<path d="M2217.75 343.047H1883.5V784.156H2217.75V343.047Z" fill="#F5F5F5"/>
<path d="M1997.21 389.998V583.929L2074.48 579.554L2083.33 389.998H1997.21Z" fill="#EBEBEB"/>
<path d="M2059.75 427.503H2178.64L2177.62 597.267L2116.04 598.227L2059.75 427.503Z" fill="#E0E0E0"/>
<path d="M1944.01 402.481H1975.28L1964.34 553.946L1925.23 563.656L1944.01 402.481Z" fill="#E6E6E6"/>
<path d="M1501.34 837.988H1834.52V432.624H1501.34V837.988Z" fill="#E6E6E6"/>
<path d="M1577.59 737.58L1752.66 565.523L1563.23 534.259L1577.59 737.58Z" fill="#E0E0E0"/>
<path d="M1748.45 696.767L1757.09 564.829L1625.29 597.213L1615.69 698.154L1748.45 696.767Z" fill="#F0F0F0"/>
<path d="M1613.59 548.707C1634.36 527.933 1634.36 494.254 1613.59 473.482C1592.81 452.709 1559.12 452.709 1538.35 473.482C1517.57 494.254 1517.57 527.933 1538.35 548.707C1559.12 569.476 1592.81 569.476 1613.59 548.707Z" fill="#FAFAFA"/>
<path d="M1731.21 743.823C1731.21 738.717 1732.73 733.723 1735.57 729.476C1738.4 725.23 1742.43 721.922 1747.16 719.969C1751.87 718.011 1757.06 717.499 1762.08 718.497C1767.09 719.494 1771.69 721.954 1775.3 725.566C1778.91 729.178 1781.37 733.777 1782.37 738.786C1783.37 743.796 1782.85 748.987 1780.9 753.703C1778.94 758.425 1775.63 762.458 1771.39 765.291C1767.14 768.129 1762.14 769.645 1757.04 769.645C1750.19 769.645 1743.62 766.924 1738.78 762.079C1733.93 757.24 1731.21 750.673 1731.21 743.823Z" fill="#E0E0E0"/>
<path d="M1750.9 789.171L1676.36 743.822L1739 692.231L1750.9 789.171Z" fill="#F5F5F5"/>
<path d="M1662.91 484.162H1648.24V807.844H1662.91V484.162Z" fill="#E0E0E0"/>
<path d="M1803.25 484.162H1784.31V793.546H1803.25V484.162Z" fill="#EBEBEB"/>
<path d="M1631.64 698.154H1534.79V794.987H1631.64V698.154Z" fill="#EBEBEB"/>
<path d="M2195.18 1378.49H1845.03V1696.62H2195.18V1378.49Z" fill="#E6E6E6"/>
<path d="M2248.7 1350.48H2204.67V1745.55H2248.7V1350.48Z" fill="#E6E6E6"/>
<path d="M1929.5 1408.15H1900.79V1522.27H1929.5V1408.15Z" fill="#FAFAFA"/>
<path d="M2048.44 1408.15H2019.73V1522.27H2048.44V1408.15Z" fill="#F5F5F5"/>
<path d="M1958.15 1418.08H1929.44V1522.32H1958.15V1418.08Z" fill="#F5F5F5"/>
<path d="M2019.73 1418.08H1991.02V1522.32H2019.73V1418.08Z" fill="#FAFAFA"/>
<path d="M1991.02 1408.15H1972.51V1522.27H1991.02V1408.15Z" fill="#EBEBEB"/>
<path d="M1972.51 1418.08H1958.15V1522.32H1972.51V1418.08Z" fill="#FAFAFA"/>
<path d="M2077.14 1408.15H2048.44V1522.27H2077.14V1408.15Z" fill="#EBEBEB"/>
<path d="M2105.85 1418.08H2077.14V1522.32H2105.85V1418.08Z" fill="#E6E6E6"/>
<path d="M2167.43 1418.08H2138.72V1522.32H2167.43V1418.08Z" fill="#E6E6E6"/>
<path d="M2138.67 1408.15H2120.15V1522.27H2138.67V1408.15Z" fill="#FAFAFA"/>
<path d="M2120.15 1418.08H2105.8V1522.32H2120.15V1418.08Z" fill="#EBEBEB"/>
<path d="M2181.73 1411.51H2167.38V1522.32H2181.73V1411.51Z" fill="#FAFAFA"/>
<path d="M2153.08 1678.96H2181.78V1570.18H2153.08V1678.96Z" fill="#FAFAFA"/>
<path d="M2034.08 1678.96H2062.79V1570.18H2034.08V1678.96Z" fill="#FAFAFA"/>
<path d="M2124.31 1679.02H2153.02V1580.1H2124.31V1679.02Z" fill="#F0F0F0"/>
<path d="M2062.74 1679.02H2091.45V1580.1H2062.74V1679.02Z" fill="#EBEBEB"/>
<path d="M2091.5 1678.96H2110.01V1570.18H2091.5V1678.96Z" fill="#FAFAFA"/>
<path d="M2110.01 1679.02H2124.37V1580.1H2110.01V1679.02Z" fill="#F5F5F5"/>
<path d="M2005.38 1678.96H2034.08V1570.18H2005.38V1678.96Z" fill="#EBEBEB"/>
<path d="M1976.67 1679.02H2005.38V1580.1H1976.67V1679.02Z" fill="#F5F5F5"/>
<path d="M1915.09 1679.02H1943.8V1580.1H1915.09V1679.02Z" fill="#E6E6E6"/>
<path d="M1943.85 1678.96H1962.37V1570.18H1943.85V1678.96Z" fill="#FAFAFA"/>
<path d="M1882.27 1678.96H1900.79V1570.18H1882.27V1678.96Z" fill="#FAFAFA"/>
<path d="M1962.31 1679.02H1976.67V1580.1H1962.31V1679.02Z" fill="#EBEBEB"/>
<path d="M1900.74 1679.02H1915.09V1573.54H1900.74V1679.02Z" fill="#F0F0F0"/>
<path d="M2193.42 1350.48H1833.93V1720.1H2181.68V1745.49H2205.16V1350.69L2193.42 1350.48ZM2181.68 1679.02H1856.18V1545.9H2181.68V1679.02ZM2181.68 1522.43H1856.18V1391.51H2181.68V1522.43Z" fill="#F0F0F0"/>
<path d="M1494.35 1696.62H1844.5V1378.49H1494.35V1696.62Z" fill="#E6E6E6"/>
<path d="M1507.79 1745.49H1551.82V1715.46H1507.79V1745.49Z" fill="#E6E6E6"/>
<path d="M1803.94 1522.27H1832.65V1408.15H1803.94V1522.27Z" fill="#FAFAFA"/>
<path d="M1685 1522.27H1713.71V1408.15H1685V1522.27Z" fill="#F5F5F5"/>
<path d="M1775.29 1522.27H1803.99V1418.02H1775.29V1522.27Z" fill="#F5F5F5"/>
<path d="M1713.71 1522.27H1742.42V1418.02H1713.71V1522.27Z" fill="#FAFAFA"/>
<path d="M1742.42 1522.27H1760.93V1408.15H1742.42V1522.27Z" fill="#EBEBEB"/>
<path d="M1760.93 1522.27H1775.29V1418.02H1760.93V1522.27Z" fill="#FAFAFA"/>
<path d="M1675.24 1522.27H1703.94V1408.15H1675.24V1522.27Z" fill="#EBEBEB"/>
<path d="M1646.53 1522.27H1675.24V1418.02H1646.53V1522.27Z" fill="#E6E6E6"/>
<path d="M1584.95 1522.27H1613.66V1418.02H1584.95V1522.27Z" fill="#E6E6E6"/>
<path d="M1613.71 1522.27H1632.23V1408.15H1613.71V1522.27Z" fill="#FAFAFA"/>
<path d="M1632.18 1522.27H1646.53V1418.02H1632.18V1522.27Z" fill="#EBEBEB"/>
<path d="M1570.65 1522.27H1585.01V1411.46H1570.65V1522.27Z" fill="#F5F5F5"/>
<path d="M1585.86 1570.23H1557.15V1679.02H1585.86V1570.23Z" fill="#FAFAFA"/>
<path d="M1704.8 1570.23H1676.09V1679.02H1704.8V1570.23Z" fill="#FAFAFA"/>
<path d="M1614.57 1580.1H1585.86V1679.02H1614.57V1580.1Z" fill="#F5F5F5"/>
<path d="M1676.14 1580.1H1647.44V1679.02H1676.14V1580.1Z" fill="#EBEBEB"/>
<path d="M1647.38 1570.23H1628.87V1679.02H1647.38V1570.23Z" fill="#FAFAFA"/>
<path d="M1628.87 1580.1H1614.51V1679.02H1628.87V1580.1Z" fill="#F5F5F5"/>
<path d="M1714.62 1570.23H1685.91V1679.02H1714.62V1570.23Z" fill="#EBEBEB"/>
<path d="M1743.27 1580.1H1714.56V1679.02H1743.27V1580.1Z" fill="#F5F5F5"/>
<path d="M1804.85 1580.1H1776.14V1679.02H1804.85V1580.1Z" fill="#E6E6E6"/>
<path d="M1776.14 1570.23H1757.62V1679.02H1776.14V1570.23Z" fill="#FAFAFA"/>
<path d="M1833.93 1570.23H1815.41V1679.02H1833.93V1570.23Z" fill="#FAFAFA"/>
<path d="M1757.63 1580.1H1743.27V1679.02H1757.63V1580.1Z" fill="#EBEBEB"/>
<path d="M1819.2 1573.54H1804.85V1679.02H1819.2V1573.54Z" fill="#EBEBEB"/>
<path d="M1484.32 1350.48V1745.28H1507.79V1719.88H1855.54V1350.48H1484.32ZM1507.79 1545.91H1833.29V1679.02H1507.79V1545.91ZM1507.79 1391.51H1833.29V1522.43H1507.79V1391.51Z" fill="#F0F0F0"/>
<path d="M1334 1987.65C1905.39 1987.65 2368.6 1960.61 2368.6 1927.26C2368.6 1893.9 1905.39 1866.87 1334 1866.87C762.605 1866.87 299.402 1893.9 299.402 1927.26C299.402 1960.61 762.605 1987.65 1334 1987.65Z" fill="#E5E5E5"/>
<path d="M2038.62 1694.54C2038.62 1694.54 1997.21 1645.35 1970.74 1668.29C1944.28 1691.23 1957.67 1739.94 1988.19 1741.54C2006.3 1742.52 2024.16 1737.06 2038.62 1726.12V1694.54Z" fill="#155DFC"/>
<path opacity="0.2" d="M2038.62 1694.54C2038.62 1694.54 1997.21 1645.35 1970.74 1668.29C1944.28 1691.23 1957.67 1739.94 1988.19 1741.54C2006.3 1742.52 2024.16 1737.06 2038.62 1726.12V1694.54Z" fill="white"/>
<path d="M2207.4 1569.7C2207.4 1569.7 2242.14 1533.31 2263.64 1539.5C2285.15 1545.69 2282.96 1632.6 2216.21 1597.39L2207.4 1569.7Z" fill="#155DFC"/>
<path opacity="0.3" d="M2207.4 1569.7C2207.4 1569.7 2242.14 1533.31 2263.64 1539.5C2285.15 1545.69 2282.96 1632.6 2216.21 1597.39L2207.4 1569.7Z" fill="white"/>
<path d="M2083.28 1841.2C2083.28 1841.2 1969.09 1685.04 2061.94 1653.41C2154.78 1621.77 2171.17 1779.05 2144.7 1822.85C2118.23 1866.65 2083.28 1841.2 2083.28 1841.2Z" fill="#155DFC"/>
<path d="M2136.21 1521.47C2136.21 1521.47 2207.08 1357.04 2102.17 1352.08C1997.26 1347.12 1985.79 1515.12 2106.55 1539.5L2136.21 1521.47Z" fill="#155DFC"/>
<path opacity="0.3" d="M2083.28 1841.2C2083.28 1841.2 1969.09 1685.04 2061.94 1653.41C2154.78 1621.77 2171.17 1779.05 2144.7 1822.85C2118.23 1866.65 2083.28 1841.2 2083.28 1841.2Z" fill="white"/>
<path opacity="0.3" d="M2136.21 1521.47C2136.21 1521.47 2207.08 1357.04 2102.17 1352.08C1997.26 1347.12 1985.79 1515.12 2106.55 1539.5L2136.21 1521.47Z" fill="white"/>
<path d="M2111.08 1656.07C2111.08 1656.07 2076.66 1510.91 2143.1 1499.33C2209.53 1487.75 2274.63 1618.94 2137.76 1684.88C2137.44 1684.88 2113.96 1670.32 2111.08 1656.07Z" fill="#155DFC"/>
<path opacity="0.2" d="M2111.08 1656.07C2111.08 1656.07 2076.66 1510.91 2143.1 1499.33C2209.53 1487.75 2274.63 1618.94 2137.76 1684.88C2137.44 1684.88 2113.96 1670.32 2111.08 1656.07Z" fill="white"/>
<path d="M2001.11 1819.06H2192.78L2176.77 1941.72H2017.11L2001.11 1819.06Z" fill="#263238"/>
<path d="M2100.78 1509.84C2061.3 1480.98 2033.92 1425.17 2057.24 1378.17C2056.28 1382.54 2055.11 1387.29 2054.04 1391.67C2046.25 1436.21 2070.69 1478.73 2100.78 1509.84Z" fill="#155DFC"/>
<path d="M2075.7 1368.62C2121.22 1377.85 2141.34 1426.13 2136.05 1468.65C2135.04 1474.68 2134.19 1480.6 2132.96 1486.52C2133.56 1474.61 2133.43 1462.68 2132.59 1450.78C2129.76 1415.73 2110.44 1381.42 2075.7 1368.62Z" fill="#155DFC"/>
<path d="M2155.74 1509.84C2181.3 1518.86 2197.31 1546.92 2197.36 1573.49C2197.36 1596.64 2184.56 1617.66 2170.26 1634.95C2159.84 1647.5 2147.92 1658.73 2134.77 1668.4C2146.38 1657.26 2157.09 1645.22 2166.79 1632.39C2178.69 1616.38 2189.15 1599.04 2191.76 1579.3C2194 1551.88 2180.61 1522.64 2155.48 1509.95L2155.74 1509.84Z" fill="#155DFC"/>
<path d="M2136.21 1521.47C2143.04 1542.81 2149.13 1568.15 2138.03 1589.07C2128.74 1602.62 2127.78 1620.33 2127.36 1636.49C2127.36 1642.15 2127.36 1647.75 2127.73 1653.41C2125 1642.33 2123.77 1630.94 2124.05 1619.53C2123.87 1607.78 2127.07 1596.22 2133.28 1586.24C2143.52 1566.71 2138.62 1542.54 2136 1521.47H2136.21Z" fill="#155DFC"/>
<path d="M2089.68 1668.29C2116.36 1682 2127.04 1774.09 2126.02 1803.06C2125.22 1797.19 2124.32 1791.37 2123.19 1785.56C2118.13 1756.53 2112.84 1727.41 2105.16 1698.97C2101.58 1688.3 2099.29 1675.17 2089.68 1668.29Z" fill="#155DFC"/>
<path d="M2057.24 1673.36C2050.82 1694.26 2049.84 1716.46 2054.39 1737.86C2058.95 1759.25 2068.89 1779.12 2083.28 1795.59C2079.05 1791.96 2075.04 1788.08 2071.28 1783.96C2058.38 1768.91 2050.18 1750.42 2047.69 1730.76C2045.19 1711.11 2048.52 1691.15 2057.24 1673.36Z" fill="#155DFC"/>
<path d="M2234.34 1587.41C2246.51 1584.16 2256.86 1581.22 2265.72 1572.26C2263.53 1585.86 2246.24 1592.27 2234.34 1587.41Z" fill="#155DFC"/>
<path d="M2227.25 1563.46C2232.96 1551.83 2252.49 1544.57 2260.76 1557.22C2249.07 1552.15 2237.7 1558.5 2227.25 1563.46Z" fill="#155DFC"/>
<path d="M2019.73 1701.9C2006.39 1692.51 1992.57 1676.51 1975.33 1684.88C1989.37 1668.24 2012.95 1686.86 2019.73 1701.9Z" fill="#155DFC"/>
<path d="M2019.73 1726.13C2002.28 1732.53 1967.44 1733.01 1965.3 1708.63C1975.28 1728.53 2000.73 1724.15 2019.73 1726.13Z" fill="#155DFC"/>
<path d="M967.31 497.553H814.007C801.483 497.553 789.472 502.528 780.614 511.382C771.762 520.237 766.783 532.246 766.783 544.77V678.148C766.783 690.669 771.762 702.678 780.614 711.535C789.472 720.386 801.483 725.363 814.007 725.363H858.722L821.37 799.468L890.738 725.363H967.524C973.724 725.363 979.86 724.142 985.586 721.767C991.317 719.393 996.519 715.915 1000.9 711.529C1005.28 707.144 1008.75 701.942 1011.12 696.212C1013.49 690.482 1014.7 684.347 1014.69 678.148V544.77C1014.7 538.554 1013.48 532.397 1011.1 526.655C1008.72 520.912 1005.23 515.697 1000.82 511.31C996.418 506.922 991.194 503.447 985.442 501.087C979.69 498.726 973.527 497.525 967.31 497.553Z" fill="#155DFC"/>
<path opacity="0.7" d="M967.31 497.553H814.007C801.483 497.553 789.472 502.528 780.614 511.382C771.762 520.237 766.783 532.246 766.783 544.77V678.148C766.783 690.669 771.762 702.678 780.614 711.535C789.472 720.386 801.483 725.363 814.007 725.363H858.722L821.37 799.468L890.738 725.363H967.524C973.724 725.363 979.86 724.142 985.586 721.767C991.317 719.393 996.519 715.915 1000.9 711.529C1005.28 707.144 1008.75 701.942 1011.12 696.212C1013.49 690.482 1014.7 684.347 1014.69 678.148V544.77C1014.7 538.554 1013.48 532.397 1011.1 526.655C1008.72 520.912 1005.23 515.697 1000.82 511.31C996.418 506.922 991.194 503.447 985.442 501.087C979.69 498.726 973.527 497.525 967.31 497.553Z" fill="white"/>
<path d="M882.681 644.856C881.667 644.856 880.664 644.637 879.746 644.216C878.823 643.794 878.007 643.175 877.345 642.402L847.464 607.243C846.871 606.544 846.418 605.733 846.135 604.858C845.852 603.978 845.745 603.061 845.82 602.143C845.895 601.225 846.151 600.334 846.567 599.513C846.989 598.696 847.565 597.971 848.264 597.373C849.678 596.168 851.514 595.581 853.365 595.73C854.283 595.805 855.174 596.056 855.996 596.477C856.812 596.898 857.543 597.475 858.136 598.174L882.681 627.09L923.128 579.341C923.726 578.642 924.451 578.066 925.273 577.644C926.089 577.223 926.981 576.972 927.898 576.897C928.816 576.822 929.739 576.929 930.614 577.212C931.49 577.495 932.301 577.943 933 578.54C933.704 579.138 934.28 579.863 934.696 580.68C935.118 581.501 935.369 582.392 935.443 583.31C935.518 584.228 935.411 585.145 935.129 586.026C934.851 586.9 934.398 587.711 933.8 588.41L887.964 642.402C887.318 643.17 886.507 643.789 885.595 644.216C884.682 644.637 883.69 644.856 882.681 644.856Z" fill="white"/>
<path d="M944.424 664.676C974.14 634.965 974.14 586.794 944.424 557.082C914.708 527.372 866.529 527.372 836.818 557.082C807.102 586.794 807.102 634.965 836.818 664.676C866.529 694.387 914.708 694.387 944.424 664.676Z" fill="#155DFC"/>
<path d="M1093.88 1931.95H1404.44C1406.06 1931.95 1407.63 1931.31 1408.77 1930.16C1409.93 1929 1410.57 1927.45 1410.57 1925.82V1906.03C1410.56 1904.41 1409.9 1902.86 1408.76 1901.72C1407.6 1900.58 1406.05 1899.94 1404.44 1899.94H1109.89V1266.02H1399.42C1402.37 1266.02 1405.2 1264.86 1407.28 1262.78C1409.38 1260.69 1410.56 1257.87 1410.57 1254.93V1234.01H1093.88C1089.63 1234.01 1085.56 1235.7 1082.56 1238.7C1079.56 1241.7 1077.87 1245.77 1077.87 1250.02V1915.95C1077.87 1920.19 1079.56 1924.27 1082.56 1927.26C1085.56 1930.27 1089.63 1931.95 1093.88 1931.95Z" fill="#263238"/>
<g opacity="0.3">
<path d="M1077.87 1250.02V1915.9C1077.87 1920.14 1079.56 1924.21 1082.56 1927.21C1085.56 1930.21 1089.63 1931.9 1093.88 1931.9H1404.44C1406.05 1931.9 1407.59 1931.26 1408.74 1930.12C1409.88 1928.98 1410.52 1927.43 1410.52 1925.82V1906.03C1410.52 1904.41 1409.88 1902.86 1408.74 1901.7C1407.6 1900.56 1406.05 1899.9 1404.44 1899.89H1109.89V1266.02H1399.42C1402.37 1266.01 1405.19 1264.83 1407.27 1262.74C1409.35 1260.65 1410.52 1257.82 1410.52 1254.87V1234.01H1093.88C1089.63 1234.01 1085.56 1235.7 1082.56 1238.7C1079.56 1241.7 1077.87 1245.77 1077.87 1250.02Z" fill="white"/>
</g>
<path opacity="0.2" d="M1077.87 1250.02V1419.84C1088.54 1422.54 1099.22 1425.15 1109.89 1427.68V1266.02H1399.42C1402.37 1266.01 1405.19 1264.83 1407.27 1262.74C1409.35 1260.65 1410.52 1257.82 1410.52 1254.87V1234.01H1093.88C1089.63 1234.01 1085.56 1235.7 1082.56 1238.7C1079.56 1241.7 1077.87 1245.77 1077.87 1250.02Z" fill="black"/>
<path d="M516.258 1842.59L643.575 1831.49V1664.56H688.344V1831.71L816.408 1842.59C821.845 1843.12 826.888 1845.65 830.554 1849.7C834.225 1853.74 836.258 1859.01 836.258 1864.46V1881.43H496.248V1864.46C496.252 1858.98 498.308 1853.69 502.01 1849.65C505.713 1845.6 510.795 1843.08 516.258 1842.59Z" fill="#263238"/>
<path opacity="0.1" d="M516.258 1842.59L643.575 1831.49V1664.56H688.344V1831.71L816.408 1842.59C821.845 1843.12 826.888 1845.65 830.554 1849.7C834.225 1853.74 836.258 1859.01 836.258 1864.46V1881.43H496.248V1864.46C496.252 1858.98 498.308 1853.69 502.01 1849.65C505.713 1845.6 510.795 1843.08 516.258 1842.59Z" fill="white"/>
<path d="M794.744 1902.5C794.744 1908.3 796.462 1913.96 799.679 1918.78C802.897 1923.59 807.475 1927.34 812.827 1929.56C818.179 1931.78 824.07 1932.36 829.753 1931.23C835.436 1930.1 840.655 1927.31 844.753 1923.21C848.851 1919.12 851.641 1913.9 852.767 1908.22C853.899 1902.54 853.322 1896.65 851.102 1891.29C848.888 1885.94 845.131 1881.37 840.313 1878.15C835.495 1874.93 829.833 1873.21 824.038 1873.21C820.191 1873.21 816.376 1873.96 812.817 1875.43C809.263 1876.9 806.029 1879.06 803.308 1881.78C800.587 1884.5 798.431 1887.73 796.958 1891.28C795.491 1894.84 794.738 1898.66 794.744 1902.5Z" fill="#263238"/>
<path d="M537.602 1902.5C537.602 1908.3 535.884 1913.96 532.661 1918.78C529.44 1923.6 524.862 1927.35 519.505 1929.57C514.15 1931.78 508.257 1932.36 502.573 1931.23C496.889 1930.09 491.669 1927.3 487.574 1923.19C483.479 1919.1 480.693 1913.87 479.569 1908.19C478.445 1902.5 479.032 1896.61 481.258 1891.26C483.484 1885.91 487.247 1881.33 492.071 1878.12C496.896 1874.91 502.565 1873.2 508.361 1873.21C512.205 1873.21 516.012 1873.97 519.563 1875.44C523.115 1876.92 526.34 1879.08 529.056 1881.79C531.772 1884.51 533.925 1887.75 535.393 1891.3C536.86 1894.85 537.607 1898.66 537.602 1902.5Z" fill="#263238"/>
<path d="M676.231 1698.44H655.688C650.437 1698.44 645.4 1696.35 641.691 1692.64C637.978 1688.93 635.891 1683.89 635.891 1678.64V1534.59H696.028V1678.64C696.028 1683.89 693.941 1688.93 690.228 1692.64C686.519 1696.35 681.482 1698.44 676.231 1698.44Z" fill="#263238"/>
<path opacity="0.2" d="M676.231 1698.44H655.688C650.437 1698.44 645.4 1696.35 641.691 1692.64C637.978 1688.93 635.891 1683.89 635.891 1678.64V1534.59H696.028V1678.64C696.028 1683.89 693.941 1688.93 690.228 1692.64C686.519 1696.35 681.482 1698.44 676.231 1698.44Z" fill="white"/>
<path d="M533.92 1203.92C533.92 1203.92 547.687 1480.44 607.237 1528.03H543.525C543.525 1528.03 486.751 1433.81 482.536 1203.92H533.92Z" fill="#263238"/>
<path opacity="0.1" d="M533.92 1203.92C533.92 1203.92 547.687 1480.44 607.237 1528.03H543.525C543.525 1528.03 486.751 1433.81 482.536 1203.92H533.92Z" fill="white"/>
<path d="M528.743 1505.09H811.072C817.427 1505.09 823.521 1507.61 828.014 1512.11C832.507 1516.6 835.03 1522.69 835.03 1529.05V1550.92H504.731V1529.05C504.731 1525.89 505.353 1522.78 506.56 1519.86C507.767 1516.96 509.537 1514.31 511.768 1512.09C513.998 1509.86 516.645 1508.1 519.558 1506.9C522.471 1505.7 525.593 1505.09 528.743 1505.09Z" fill="#155DFC"/>
<path d="M838.019 1528.03H501.852C496.518 1528.03 492.194 1532.36 492.194 1537.69V1541.26C492.194 1546.6 496.518 1550.92 501.852 1550.92H838.019C843.355 1550.92 847.677 1546.6 847.677 1541.26V1537.69C847.677 1532.36 843.355 1528.03 838.019 1528.03Z" fill="#263238"/>
<path opacity="0.6" d="M838.019 1528.03H501.852C496.518 1528.03 492.194 1532.36 492.194 1537.69V1541.26C492.194 1546.6 496.518 1550.92 501.852 1550.92H838.019C843.355 1550.92 847.677 1546.6 847.677 1541.26V1537.69C847.677 1532.36 843.355 1528.03 838.019 1528.03Z" fill="white"/>
<path d="M471.33 1264.42H573.407C603.288 1264.42 624.846 1237.75 621.431 1204.4L617.109 1160.23C613.8 1127.1 586.96 1100.21 557.079 1100.21H455.162C425.28 1100.21 403.722 1126.88 407.138 1160.23L411.46 1204.4C414.555 1237.75 441.448 1264.42 471.33 1264.42Z" fill="#155DFC"/>
<path d="M808.191 1025.89C814.54 1046 822.011 1066.97 830.228 1086.18C837.165 1102.18 847.037 1122.56 858.296 1133.29C868.541 1142.41 892.926 1145.88 908.774 1147.96C930.118 1150.68 952.849 1151.69 974.994 1152.6L978.943 1182.48C955.464 1188.78 931.393 1192.59 907.12 1193.84C880.013 1194.8 848.424 1193.84 824.946 1177.19C790.849 1150.52 776.014 1114.99 760.914 1077.48C756.645 1065.58 752.803 1054.7 749.548 1042.22L808.244 1025.89H808.191Z" fill="#B65B52"/>
<path d="M781.991 997.668C798.799 1003.43 814.007 1027.6 856.321 1124.54C856.321 1124.54 863.205 1136.38 897.515 1143.8L894.367 1198.22C894.367 1198.22 845.382 1196.08 834.017 1188.24C822.651 1180.4 754.51 1068.3 754.51 1068.3L781.991 997.668Z" fill="#263238"/>
<path opacity="0.2" d="M897.515 1143.9L894.367 1198.32C894.367 1198.32 855.094 1196.61 838.713 1190.59C837.058 1190.03 835.484 1189.28 834.017 1188.35C827.454 1183.76 802.001 1144.33 781.457 1111.89C766.57 1088.31 754.777 1068.41 754.777 1068.41L781.991 997.668C798.799 1003.43 814.007 1027.6 856.375 1124.48C856.375 1124.59 863.205 1136.38 897.515 1143.9Z" fill="white"/>
<path opacity="0.2" d="M838.712 1190.59C837.058 1190.03 835.484 1189.28 834.017 1188.34C827.453 1183.76 802.001 1144.33 781.457 1111.89C786.804 1093.5 793.127 1075.41 800.4 1057.69C800.4 1057.69 839.459 1135.95 838.712 1190.59Z" fill="black"/>
<path d="M963.361 1155.32L1001.62 1141.56L996.925 1192.77C996.925 1192.77 961.814 1197.25 957.492 1178.79L963.361 1155.32Z" fill="#B55B52"/>
<path d="M1033.32 1151.91L1027.45 1194.11L996.925 1192.77L1001.62 1141.56L1033.32 1151.91Z" fill="#B55B52"/>
<path d="M897.782 1141.56L917.312 1147.42L910.162 1200.35L890.632 1203.71L897.782 1141.56Z" fill="#263238"/>
<path d="M809.685 1334.26C809.685 1334.26 1067.89 1436.11 1127.92 1478.68C1187.95 1521.26 1339.34 1808.29 1339.34 1808.29L1276.74 1856.3C1276.74 1856.3 1096.17 1594.13 1073.98 1576.37C1051.78 1558.6 764.489 1470.41 764.489 1470.41L809.685 1334.26Z" fill="#155DFC"/>
<path opacity="0.4" d="M1339.34 1808.29L1276.74 1856.3C1276.74 1856.3 1234.59 1795.11 1188.54 1729.86C1139.29 1660.02 1085.56 1585.81 1074.14 1576.37C1058.13 1563.35 899.916 1512.67 816.088 1486.42C785.246 1476.71 764.489 1470.41 764.489 1470.41L809.631 1334.1C809.631 1334.1 1067.79 1435.95 1127.87 1478.52C1187.95 1521.1 1339.34 1808.29 1339.34 1808.29Z" fill="white"/>
<path d="M1350.81 1910.99L1380.96 1880.68L1331.65 1804.44L1301.56 1834.75L1350.81 1910.99Z" fill="#B55B52"/>
<path opacity="0.2" d="M1301.56 1834.75L1331.65 1804.5L1359.83 1848.09L1328.66 1876.79L1301.56 1834.75Z" fill="black"/>
<path d="M1386.19 1877.38C1386.19 1877.38 1386.19 1877.38 1386.56 1877.38C1390.11 1876.07 1393.51 1874.39 1396.7 1872.36C1399.18 1871.03 1401.08 1868.82 1402.03 1866.17C1402.23 1865.17 1402.14 1864.14 1401.77 1863.2C1401.4 1862.26 1400.77 1861.43 1399.95 1860.84C1399.51 1860.38 1398.97 1860.04 1398.36 1859.86C1397.75 1859.67 1397.1 1859.64 1396.48 1859.77C1393.55 1860.46 1390.67 1864.62 1388.48 1868.63C1388.94 1864.89 1388.08 1861.11 1386.03 1857.96C1385.43 1857.35 1384.64 1856.97 1383.8 1856.87C1382.95 1856.78 1382.1 1856.97 1381.38 1857.42C1380.71 1857.74 1380.13 1858.21 1379.67 1858.79C1379.22 1859.37 1378.91 1860.06 1378.77 1860.78C1377.54 1866.55 1385.28 1875.83 1385.65 1876.36L1386.19 1875.83L1385.71 1876.42C1385.71 1876.42 1385.33 1877 1385.33 1877.06C1385.41 1877.2 1385.54 1877.32 1385.7 1877.38C1385.86 1877.43 1386.03 1877.43 1386.19 1877.38ZM1386.45 1873.43C1386.45 1873.75 1386.19 1874.07 1386.08 1874.33C1383.73 1871.03 1380.26 1865.21 1381.01 1861.8C1381.07 1861.4 1381.22 1861.01 1381.44 1860.67C1381.66 1860.34 1381.95 1860.04 1382.29 1859.82H1382.66C1383.95 1859.18 1384.64 1859.56 1385.07 1859.82C1387.11 1864.05 1387.6 1868.87 1386.45 1873.43ZM1388.27 1874.71C1390.62 1869.37 1394.51 1862.44 1397.45 1861.8C1397.75 1861.72 1398.08 1861.73 1398.37 1861.82C1398.68 1861.91 1398.94 1862.09 1399.15 1862.33C1399.65 1862.71 1400.04 1863.22 1400.28 1863.8C1400.53 1864.38 1400.62 1865.01 1400.54 1865.64C1399.95 1868.41 1395.42 1871.72 1388.27 1874.71Z" fill="#155DFC"/>
<path d="M1380.37 1874.65L1340.56 1901.33C1340.22 1901.53 1339.92 1901.81 1339.68 1902.13C1339.44 1902.45 1339.27 1902.81 1339.18 1903.2C1339.08 1903.59 1339.06 1903.99 1339.13 1904.38C1339.19 1904.78 1339.34 1905.16 1339.55 1905.49L1358.76 1938.3C1359.86 1939.96 1361.57 1941.12 1363.52 1941.52C1365.47 1941.92 1367.5 1941.53 1369.16 1940.44C1382.88 1930.89 1388.96 1925.66 1406.52 1913.76C1422.5 1903.93 1437.78 1893.01 1452.25 1881.06C1465.37 1868.84 1452.94 1856.2 1446.32 1860.2C1430.31 1869.64 1403.21 1873.69 1387.95 1872.57C1385.25 1872.37 1382.57 1873.1 1380.37 1874.65Z" fill="#263238"/>
<path d="M1279.68 1877.48L1357.85 1825.47L1339.82 1788.71L1255.13 1847.45L1279.68 1877.48Z" fill="#155DFC"/>
<path opacity="0.2" d="M1279.68 1877.48L1357.85 1825.47L1339.82 1788.71L1255.13 1847.45L1279.68 1877.48Z" fill="white"/>
<path opacity="0.2" d="M1188.65 1730.07C1139.4 1660.24 1085.66 1586.02 1074.24 1576.58C1058.24 1563.56 900.023 1512.88 816.195 1486.63L806.43 1385.26L837.058 1379.93L840.527 1387.72C840.527 1387.72 1031.88 1431.09 1085.98 1458.2C1120.83 1475.32 1167.62 1646.47 1188.65 1730.07Z" fill="black"/>
<path d="M1177.18 1887.51C1177.23 1887.54 1177.3 1887.55 1177.36 1887.55C1177.43 1887.55 1177.49 1887.54 1177.55 1887.51C1181.34 1887.47 1185.11 1887.02 1188.81 1886.18C1191.63 1885.78 1194.2 1884.33 1196.01 1882.12C1196.54 1881.28 1196.82 1880.29 1196.82 1879.3C1196.82 1878.29 1196.54 1877.32 1196.01 1876.47C1195.74 1875.89 1195.34 1875.38 1194.82 1875C1194.31 1874.61 1193.71 1874.37 1193.08 1874.28C1190.09 1873.91 1185.98 1876.95 1182.4 1879.99C1184.04 1876.68 1184.43 1872.89 1183.53 1869.32C1183.17 1868.55 1182.56 1867.93 1181.81 1867.55C1181.05 1867.17 1180.19 1867.06 1179.36 1867.24C1178.63 1867.35 1177.93 1867.61 1177.31 1868C1176.68 1868.4 1176.15 1868.92 1175.73 1869.53C1172.69 1874.6 1176.91 1885.91 1177.12 1886.55L1177.76 1886.18L1177.12 1886.61C1177.12 1886.61 1176.53 1887.03 1176.59 1887.09L1177.18 1887.51ZM1178.78 1883.83L1178.08 1884.58C1176.42 1880.25 1176.2 1875.5 1177.44 1871.03C1177.64 1870.68 1177.91 1870.38 1178.23 1870.14C1178.55 1869.9 1178.92 1869.73 1179.31 1869.64H1179.79C1181.18 1869.64 1181.71 1870.07 1181.92 1870.6C1182.46 1875.24 1181.35 1879.93 1178.78 1883.83ZM1180 1885.64C1184.01 1881.38 1189.98 1876.15 1192.97 1876.52C1193.28 1876.55 1193.58 1876.67 1193.83 1876.86C1194.09 1877.04 1194.29 1877.3 1194.41 1877.59C1194.71 1878.14 1194.86 1878.75 1194.86 1879.38C1194.86 1880 1194.71 1880.61 1194.41 1881.16C1193.13 1883.56 1187.79 1885.22 1180 1885.64Z" fill="#155DFC"/>
<path d="M1132.67 1907.47L1171.15 1888.85L1148.25 1797.19L1109.83 1815.81L1132.67 1907.47Z" fill="#B55B52"/>
<path opacity="0.2" d="M1109.83 1815.81L1148.25 1797.24L1161.33 1849.63L1122.37 1866.33L1109.83 1815.81Z" fill="black"/>
<path d="M1172.59 1882.98L1126.16 1894.98C1125.77 1895.06 1125.4 1895.21 1125.07 1895.43C1124.74 1895.65 1124.46 1895.94 1124.24 1896.27C1124.02 1896.61 1123.86 1896.98 1123.79 1897.37C1123.72 1897.76 1123.73 1898.17 1123.81 1898.56L1131.07 1935.9C1131.59 1937.8 1132.84 1939.42 1134.55 1940.42C1136.25 1941.42 1138.28 1941.71 1140.2 1941.24C1156.2 1936.75 1163.78 1933.82 1184.17 1928.38C1202.44 1924.48 1220.41 1919.29 1237.95 1912.85C1254.39 1905.7 1246.86 1889.65 1239.29 1891.25C1221.25 1894.93 1194.09 1889.65 1180.11 1883.51C1177.72 1882.53 1175.08 1882.35 1172.59 1882.98Z" fill="#263238"/>
<path d="M1166.98 1814.58C1166.98 1814.58 1101.88 1488.02 1088.54 1468.6C1066.88 1436.59 806.376 1385 806.376 1385L836.952 1379.66L801.627 1285.76L569.671 1294.89C569.671 1294.89 574.527 1448.11 598.112 1489.19C621.697 1530.27 970.618 1549.16 993.296 1558.55C1015.97 1567.94 1085.18 1824.08 1085.18 1824.08L1166.98 1814.58Z" fill="#155DFC"/>
<path opacity="0.4" d="M1166.98 1814.58C1166.98 1814.58 1101.88 1488.02 1088.54 1468.6C1066.88 1436.59 806.376 1385 806.376 1385L836.952 1379.66L801.627 1285.76L569.671 1294.89C569.671 1294.89 574.527 1448.11 598.112 1489.19C621.697 1530.27 970.618 1549.16 993.296 1558.55C1015.97 1567.94 1085.18 1824.08 1085.18 1824.08L1166.98 1814.58Z" fill="white"/>
<path d="M1086.57 1852.99L1177.6 1829.84L1172.75 1789.19L1073.39 1816.55L1086.57 1852.99Z" fill="#155DFC"/>
<path opacity="0.2" d="M1086.57 1852.99L1177.6 1829.84L1172.75 1789.19L1073.39 1816.55L1086.57 1852.99Z" fill="white"/>
<path d="M643.095 1298.46L575.861 1297.34L574.42 1317.67L645.976 1319.38L643.095 1298.46Z" fill="#263238"/>
<path d="M653.447 1298.09L656.382 1319.22L806.43 1317.08L801.574 1297.82L653.447 1298.09Z" fill="#263238"/>
<path d="M725.696 1301.77L727.617 1315.69C727.894 1317.4 728.775 1318.94 730.098 1320.05C731.422 1321.15 733.097 1321.75 734.821 1321.72L758.833 1320.98C759.628 1320.99 760.412 1320.83 761.138 1320.5C761.863 1320.17 762.504 1319.68 763.016 1319.08C763.523 1318.47 763.896 1317.75 764.094 1316.98C764.291 1316.21 764.318 1315.41 764.169 1314.63L762.194 1300.65C761.911 1298.95 761.026 1297.42 759.702 1296.32C758.379 1295.22 756.709 1294.64 754.991 1294.67L731.032 1295.42C730.237 1295.4 729.447 1295.57 728.722 1295.9C728.001 1296.23 727.361 1296.72 726.849 1297.33C726.336 1297.93 725.968 1298.65 725.765 1299.42C725.568 1300.18 725.541 1300.99 725.696 1301.77Z" fill="white"/>
<path d="M575.541 1294.35H795.918C798.554 1294.37 801.104 1293.41 803.079 1291.65C805.048 1289.9 806.296 1287.48 806.59 1284.86C833.803 1071.45 781.831 997.774 781.831 997.774C762.039 992.124 741.848 988.006 721.427 985.45C691.588 983.103 661.637 982.462 631.729 983.529C611.351 984.079 591.037 986.096 570.952 989.558C560.28 994.2 549.234 1041.74 560.28 1189.84C563.161 1228.62 563.588 1262.13 563.321 1281.76C563.279 1285.05 564.538 1288.22 566.827 1290.58C569.122 1292.94 572.254 1294.3 575.541 1294.35Z" fill="#263238"/>
<path d="M751.095 1073.27H793.57L796.771 1123.95L773.987 1138.73L751.095 1127.42V1073.27Z" fill="#263238"/>
<path opacity="0.2" d="M806.75 1284.86C806.462 1287.48 805.208 1289.9 803.239 1291.65C801.27 1293.41 798.719 1294.37 796.078 1294.35H575.701C574.052 1294.36 572.414 1294.04 570.888 1293.41C569.367 1292.77 567.98 1291.85 566.817 1290.68C565.659 1289.5 564.741 1288.11 564.122 1286.58C563.503 1285.05 563.193 1283.41 563.215 1281.76C563.215 1262.13 563.215 1228.41 560.227 1189.84C558.695 1168.5 557.575 1149.22 556.865 1132.01C555.125 1100.51 555.301 1068.94 557.398 1037.47C560.066 1005.46 565.563 991.959 571.112 989.452C591.271 985.979 611.655 983.962 632.102 983.423C661.995 982.356 691.93 982.996 721.747 985.344C742.115 987.905 762.253 992.029 781.991 997.668C781.991 997.668 833.963 1071.67 806.75 1284.86Z" fill="white"/>
<path d="M633.917 981.342L705.099 1005.62L707.981 985.237C701.044 973.073 699.283 965.39 705.153 951.252L657.662 896.674C658.889 924.63 653.82 962.829 633.917 981.342Z" fill="#B55B52"/>
<path d="M678.953 1016.18L692.933 1022L705.099 1029.63C705.099 1029.63 721.374 1122.78 716.838 1201.42L730.498 1212.62L744.906 1201.04C744.906 1201.04 726.977 1056.62 720.52 1028.5L723.348 1021.73L729.911 1007.75L717.799 1001.4L698.536 1005.62H685.089L678.953 1016.18Z" fill="white"/>
<path opacity="0.2" d="M676.978 918.921L705.099 951.252C702.986 956.208 701.289 961.33 700.03 966.563C688.131 962.989 673.35 947.144 674.044 934.233C674.081 928.994 675.079 923.808 676.978 918.921Z" fill="black"/>
<path d="M638.346 968.431C658.436 981.806 679.902 992.983 702.378 1001.78C704.832 991.841 704.832 981.459 702.378 971.525L733.807 987.21C733.807 987.21 736.421 1011.59 729.218 1024.56L706.113 1007.64L680.18 1028.98C680.18 1028.98 631.089 1010.04 623.405 984.329L638.346 968.431Z" fill="#263238"/>
<path opacity="0.2" d="M798.479 1157.72L725.696 1216.41C621.217 1239.67 575.274 1174.53 556.812 1131.85C555.072 1100.35 555.248 1068.78 557.345 1037.31C582.424 1036.13 613.64 1036.13 622.071 1042.64C636.745 1053.9 687.864 1132.81 695.494 1138.67C703.125 1144.54 798.479 1157.72 798.479 1157.72Z" fill="black"/>
<path d="M839.886 1154.95L878.145 1141.13L873.45 1192.35C873.45 1192.35 838.339 1196.83 834.017 1178.37L839.886 1154.95Z" fill="#B55B52"/>
<path d="M909.788 1151.48L903.972 1193.68L873.45 1192.35L878.145 1141.13L909.788 1151.48Z" fill="#B55B52"/>
<path d="M617.322 1051.61C628.607 1073.9 641.078 1095.57 654.674 1116.53C663.041 1130.24 673.52 1142.54 685.729 1152.97C686.652 1153.77 687.72 1154.39 688.878 1154.79C702.239 1158.32 716.038 1159.94 729.858 1159.59C768.597 1159.96 808.03 1156.39 846.93 1153.08L853.28 1182.53C827.219 1191.02 800.645 1197.84 773.72 1202.96C744.532 1208.3 717.905 1212.3 686.85 1209.31C676.829 1208.26 667.107 1205.31 658.195 1200.62C623.618 1180.4 602.434 1147.69 582.371 1115.25C575.167 1102.66 568.604 1090.93 562.521 1077.48L617.482 1051.5L617.322 1051.61Z" fill="#B65B52"/>
<path d="M570.952 989.559C502.117 1014.37 591.389 1185.84 628.954 1205.04C666.52 1224.25 729.911 1216.41 729.911 1216.41L734.394 1156.81C734.394 1156.81 701.524 1152.81 691.706 1150.47C676.071 1146.73 644.482 1077.69 623.191 1040.19C611.441 1018.31 593.187 1000.62 570.952 989.559Z" fill="#263238"/>
<path opacity="0.2" d="M570.952 989.559C502.117 1014.37 591.389 1185.84 628.954 1205.04C666.52 1224.25 729.911 1216.41 729.911 1216.41L734.394 1156.81C734.394 1156.81 701.524 1152.81 691.706 1150.47C676.071 1146.73 644.482 1077.69 623.191 1040.19C611.441 1018.31 593.187 1000.62 570.952 989.559Z" fill="white"/>
<path d="M725.536 1152.33L719.986 1221.53L739.73 1217.85L744.906 1156.01L725.536 1152.33Z" fill="#263238"/>
<path d="M780.017 840.442C782.738 856.447 775.855 887.498 755.845 874.373C735.835 861.249 775.268 813.019 780.017 840.442Z" fill="#263238"/>
<path d="M667 846.15C659.316 885.203 652.806 907.664 667 932.312C688.344 969.338 740.797 963.682 760.06 927.67C777.402 895.18 787.06 836.973 753.283 812.058C745.802 806.606 737.062 803.133 727.878 801.964C718.695 800.796 709.368 801.964 700.756 805.363C692.149 808.767 684.539 814.288 678.638 821.421C672.736 828.549 668.729 837.059 667 846.15Z" fill="#B55B52"/>
<path d="M648.217 803.096L692.453 801.068L693.627 826.464L691.012 825.023C691.012 825.023 688.237 862.369 667.053 874.8C638.399 852.926 629.968 817.127 648.217 803.096Z" fill="#263238"/>
<path d="M643.628 874.32C643.9 879.244 645.154 884.072 647.305 888.511C649.461 892.955 652.47 896.925 656.168 900.195C666.146 908.891 676.925 901.369 679.006 888.991C680.874 877.841 677.939 859.862 665.613 855.914C662.891 855.113 660.015 855.001 657.235 855.583C654.46 856.159 651.867 857.418 649.695 859.237C647.518 861.057 645.827 863.388 644.77 866.018C643.714 868.649 643.319 871.498 643.628 874.32Z" fill="#B55B52"/>
<path d="M722.601 871.599C721.747 874.746 722.601 877.681 724.842 878.214C727.083 878.748 729.218 876.614 730.178 873.466C731.139 870.318 730.178 867.384 727.937 866.904C725.696 866.424 723.402 868.504 722.601 871.599Z" fill="#263238"/>
<path d="M758.085 880.561C757.285 883.656 758.085 886.643 760.327 887.124C762.568 887.604 764.755 885.523 765.663 882.429C766.57 879.334 765.663 876.347 763.421 875.813C761.18 875.28 758.939 877.414 758.085 880.561Z" fill="#263238"/>
<path d="M746.4 879.281C747.846 889.503 750.716 899.469 754.937 908.891C752.392 909.793 749.681 910.15 746.987 909.942C744.297 909.729 741.677 908.955 739.303 907.664L746.4 879.281Z" fill="#A02724"/>
<path d="M719.346 915.4C720.643 915.949 721.982 916.392 723.348 916.733C723.593 916.787 723.855 916.744 724.068 916.616C724.287 916.488 724.447 916.28 724.522 916.04C724.554 915.917 724.559 915.789 724.543 915.666C724.527 915.538 724.485 915.421 724.421 915.309C724.357 915.202 724.271 915.106 724.17 915.032C724.068 914.952 723.951 914.898 723.828 914.866C719.912 913.991 716.262 912.199 713.178 909.627C710.099 907.056 707.676 903.785 706.113 900.088C706.017 899.858 705.841 899.666 705.611 899.56C705.387 899.453 705.126 899.432 704.886 899.501C704.763 899.538 704.645 899.597 704.549 899.682C704.453 899.762 704.373 899.869 704.315 899.981C704.261 900.099 704.229 900.227 704.229 900.355C704.224 900.483 704.251 900.611 704.299 900.728C705.654 904.084 707.692 907.12 710.286 909.643C712.873 912.167 715.958 914.13 719.346 915.4Z" fill="#263238"/>
<path d="M714.65 857.46C714.96 857.578 715.296 857.61 715.627 857.556C715.958 857.498 716.262 857.354 716.518 857.14C718.359 855.609 720.536 854.526 722.868 853.976C725.199 853.432 727.633 853.438 729.965 853.993C730.199 854.073 730.455 854.11 730.706 854.088C730.957 854.072 731.203 854.003 731.427 853.891C731.651 853.774 731.848 853.619 732.008 853.422C732.174 853.23 732.291 853.005 732.366 852.765C732.446 852.536 732.483 852.291 732.467 852.045C732.456 851.8 732.392 851.56 732.28 851.341C732.168 851.122 732.019 850.925 731.832 850.77C731.64 850.61 731.427 850.487 731.192 850.418C728.257 849.634 725.178 849.57 722.217 850.231C719.255 850.887 716.491 852.253 714.17 854.206C713.967 854.355 713.802 854.547 713.679 854.766C713.551 854.985 713.471 855.225 713.444 855.47C713.412 855.721 713.434 855.972 713.503 856.212C713.572 856.452 713.69 856.681 713.85 856.873C714.069 857.124 714.341 857.327 714.65 857.46Z" fill="#263238"/>
<path d="M776.601 872.239C776.927 872.357 777.274 872.389 777.615 872.325C777.951 872.266 778.272 872.117 778.533 871.898C778.8 871.674 779.003 871.391 779.12 871.066C779.237 870.74 779.275 870.393 779.216 870.052C778.65 867.091 777.391 864.306 775.534 861.932C773.677 859.558 771.281 857.658 768.544 856.394C768.069 856.218 767.541 856.229 767.077 856.426C766.607 856.623 766.234 856.997 766.036 857.461C765.86 857.931 765.871 858.448 766.068 858.907C766.271 859.366 766.639 859.728 767.103 859.915C769.227 860.907 771.084 862.391 772.514 864.247C773.944 866.104 774.905 868.281 775.321 870.585C775.364 870.954 775.502 871.3 775.732 871.594C775.956 871.882 776.255 872.106 776.601 872.239Z" fill="#263238"/>
<path d="M677.352 834.519C678.2 835.239 679.107 835.88 680.073 836.44C682.634 837.971 685.537 838.835 688.52 838.958C691.503 839.081 694.47 838.451 697.148 837.133C708.14 831.798 711.609 800.428 742.878 816.38C746.309 815.553 749.911 815.734 753.246 816.908C756.581 818.082 759.499 820.2 761.66 822.995C769.718 832.865 764.168 868.877 781.35 863.916C798.532 858.954 795.544 853.619 795.544 853.619C795.544 853.619 790.742 856.66 787.914 854.259C790.459 852.114 792.273 849.233 793.105 846.011C793.938 842.789 793.746 839.385 792.556 836.28C792.556 836.28 788.394 841.241 785.619 840.281C788.485 825.711 786.825 810.612 780.87 797.013C770.892 772.152 709.848 777.7 709.848 777.7C709.848 777.7 702.164 764.842 674.577 773.805C646.99 782.768 634.397 816.006 638.772 830.464" fill="#263238"/>
<path d="M1041.59 1188.34L1037.64 1173.46H875.798L801.307 1180.88L798.479 1188.34H1041.59Z" fill="#263238"/>
<path opacity="0.5" d="M1041.59 1188.34L1037.64 1173.46H875.798L801.307 1180.88L798.479 1188.34H1041.59Z" fill="white"/>
<path opacity="0.2" d="M875.798 1173.46V1188.34H1041.59L1037.64 1173.46H875.798Z" fill="black"/>
<path d="M930.545 1102.18C930.332 1103.99 930.508 1105.82 931.057 1107.55C931.612 1109.28 932.525 1110.87 933.741 1112.22C934.963 1113.57 936.452 1114.65 938.117 1115.37C939.787 1116.1 941.585 1116.45 943.405 1116.43H1191.32C1195.19 1116.34 1198.9 1114.84 1201.75 1112.22C1204.61 1109.6 1206.42 1106.03 1206.84 1102.18L1221.57 943.516C1221.71 941.98 1221.6 940.432 1221.25 938.928C1220.57 936.132 1218.96 933.651 1216.68 931.896C1214.4 930.141 1211.59 929.212 1208.71 929.271H960.8C956.926 929.367 953.218 930.861 950.363 933.481C947.508 936.1 945.699 939.664 945.272 943.516L930.545 1102.18Z" fill="#263238"/>
<path opacity="0.5" d="M930.545 1102.18C930.332 1103.99 930.508 1105.82 931.057 1107.55C931.612 1109.28 932.525 1110.87 933.741 1112.22C934.963 1113.57 936.452 1114.65 938.117 1115.37C939.787 1116.1 941.585 1116.45 943.405 1116.43H1191.32C1195.19 1116.34 1198.9 1114.84 1201.75 1112.22C1204.61 1109.6 1206.42 1106.03 1206.84 1102.18L1221.57 943.516C1221.71 941.98 1221.6 940.432 1221.25 938.928C1220.57 936.132 1218.96 933.651 1216.68 931.896C1214.4 930.141 1211.59 929.212 1208.71 929.271H960.8C956.926 929.367 953.218 930.861 950.363 933.481C947.508 936.1 945.699 939.664 945.272 943.516L930.545 1102.18Z" fill="white"/>
<path opacity="0.1" d="M944.472 1116.43H1191.48C1195.35 1116.34 1199.06 1114.84 1201.91 1112.22C1204.77 1109.6 1206.58 1106.03 1207 1102.18L1221.73 943.516C1221.87 941.979 1221.76 940.432 1221.41 938.928H974.354C970.491 939.034 966.793 940.534 963.949 943.153C961.105 945.773 959.306 949.331 958.879 953.172L944.152 1111.84C943.987 1113.38 944.093 1114.93 944.472 1116.43Z" fill="black"/>
<path d="M1114.58 1019.12H1063.3L1076.96 1165.94L995.911 1178.1V1188.35H1166.72V1178.1L1131.71 1165.94L1114.58 1019.12Z" fill="#263238"/>
<path opacity="0.5" d="M1114.58 1019.12H1063.3L1076.96 1165.94L995.911 1178.1V1188.35H1166.72V1178.1L1131.71 1165.94L1114.58 1019.12Z" fill="white"/>
<path opacity="0.2" d="M1063.3 1019.12L1101.3 1186L1131.71 1185.09L1114.58 1019.12H1063.3Z" fill="white"/>
<path d="M640 1931.95H950.555C951.355 1931.95 952.156 1931.79 952.897 1931.48C953.634 1931.18 954.311 1930.72 954.877 1930.15C955.443 1929.58 955.886 1928.91 956.19 1928.16C956.494 1927.42 956.643 1926.62 956.638 1925.82V1906.03C956.638 1904.41 955.998 1902.86 954.856 1901.73C953.714 1900.58 952.166 1899.94 950.555 1899.94H656.008V1266.02H945.539C948.484 1266.02 951.307 1264.86 953.388 1262.78C955.469 1260.69 956.638 1257.87 956.638 1254.93V1234.01H640C635.752 1234.01 631.681 1235.7 628.682 1238.7C625.678 1241.7 623.992 1245.77 623.992 1250.02V1915.95C623.992 1920.19 625.678 1924.27 628.682 1927.26C631.681 1930.27 635.752 1931.95 640 1931.95Z" fill="#263238"/>
<g opacity="0.4">
<path d="M640 1931.95H950.555C951.355 1931.95 952.156 1931.79 952.897 1931.48C953.634 1931.18 954.311 1930.72 954.877 1930.15C955.443 1929.58 955.886 1928.91 956.19 1928.16C956.494 1927.42 956.643 1926.62 956.638 1925.82V1906.03C956.638 1904.41 955.998 1902.86 954.856 1901.73C953.714 1900.58 952.166 1899.94 950.555 1899.94H656.008V1266.02H945.539C948.484 1266.02 951.307 1264.86 953.388 1262.78C955.469 1260.69 956.638 1257.87 956.638 1254.93V1234.01H640C635.752 1234.01 631.681 1235.7 628.682 1238.7C625.678 1241.7 623.992 1245.77 623.992 1250.02V1915.95C623.992 1920.19 625.678 1924.27 628.682 1927.26C631.681 1930.27 635.752 1931.95 640 1931.95Z" fill="white"/>
</g>
<path d="M1418.84 1239.35H600.193C597.445 1239.35 594.814 1238.26 592.872 1236.32C590.93 1234.38 589.841 1231.75 589.841 1229V1203.82H1429.19V1229.05C1429.18 1231.79 1428.08 1234.41 1426.14 1236.34C1424.21 1238.27 1421.58 1239.35 1418.84 1239.35Z" fill="#155DFC"/>
<path opacity="0.2" d="M589.841 1221.53H1429.19V1203.76H589.841V1221.53Z" fill="black"/>
<path d="M572.286 1208.35H1446.86C1449.51 1208.35 1452.05 1207.31 1453.93 1205.43C1455.81 1203.57 1456.87 1201.03 1456.89 1198.37C1456.89 1195.72 1455.83 1193.16 1453.95 1191.28C1452.07 1189.4 1449.52 1188.34 1446.86 1188.34H572.286C569.629 1188.34 567.073 1189.4 565.195 1191.28C563.311 1193.16 562.254 1195.72 562.254 1198.37C562.27 1201.03 563.332 1203.57 565.211 1205.43C567.094 1207.31 569.634 1208.35 572.286 1208.35Z" fill="#155DFC"/>
</svg>
