<svg width="1024" height="1024" viewBox="0 0 1024 1024" fill="none" xmlns="http://www.w3.org/2000/svg">
<g clip-path="url(#clip0_2005_91)">
<path fill-rule="evenodd" clip-rule="evenodd" d="M1012.13 578.601L520.004 360.518C517.473 359.397 514.735 358.818 511.967 358.818C509.2 358.818 506.462 359.397 503.931 360.518L11.8295 578.601C8.3097 580.161 5.318 582.711 3.21797 585.942C1.11794 589.173 0 592.946 0 596.801C0 600.656 1.11794 604.429 3.21797 607.66C5.318 610.891 8.3097 613.441 11.8295 615.001L217.897 706.21V867.354C217.897 895.415 248.533 912.252 320.354 923.596C371.076 931.616 439.143 936.035 511.977 936.035C646.144 936.035 806.058 924.114 806.058 867.354V706.21L873.151 676.517V698.548C862.907 702.535 854.101 709.525 847.885 718.603C841.668 727.682 838.329 738.428 838.303 749.437C838.303 763.985 844.085 777.14 853.343 786.951C842.416 801.878 835.542 822.953 835.323 846.875L819.171 1002.03C818.875 1004.8 819.166 1007.61 820.024 1010.26C820.882 1012.91 822.288 1015.36 824.151 1017.43C826.014 1019.5 828.292 1021.16 830.837 1022.29C833.381 1023.42 836.135 1024 838.919 1024H946.96C949.744 1024 952.498 1023.42 955.042 1022.29C957.587 1021.16 959.865 1019.5 961.727 1017.43C963.59 1015.36 964.997 1012.91 965.855 1010.26C966.713 1007.61 967.004 1004.8 966.708 1002.03L950.536 846.875C950.337 822.953 943.463 801.878 932.536 786.971C942.181 776.869 947.574 763.435 947.595 749.457C947.569 738.474 944.245 727.753 938.055 718.688C931.865 709.623 923.095 702.633 912.887 698.628V658.964L1012.13 615.041C1015.66 613.486 1018.66 610.936 1020.77 607.7C1022.88 604.465 1024 600.685 1024 596.821C1024 592.957 1022.88 589.177 1020.77 585.941C1018.66 582.706 1015.66 580.155 1012.13 578.601ZM903.517 759.95C906.298 757.153 907.86 753.365 907.86 749.417C907.855 745.472 906.291 741.689 903.51 738.896C900.729 736.103 896.957 734.526 893.019 734.51L892.939 734.491C888.987 734.48 885.193 736.043 882.391 738.834C879.59 741.626 878.01 745.418 877.999 749.377C877.988 753.336 879.548 757.136 882.335 759.943C885.122 762.75 888.908 764.333 892.86 764.343L892.939 764.323L893.019 764.343C896.961 764.327 900.735 762.748 903.517 759.95ZM874.939 849.98L860.972 984.157H924.887L910.9 849.98C909.112 822.416 900.032 803.947 892.979 804.146H892.86C885.012 804.047 876.906 822.695 874.939 849.98ZM511.977 782.374C562.858 782.374 698.535 785.757 766.323 819.112L766.303 635.5C766.303 632.455 753.846 617.489 696.309 605.07C647.912 594.642 582.448 588.89 511.977 588.89C333.288 588.89 257.632 622.245 257.632 635.52V819.112C325.42 785.737 461.096 782.374 511.977 782.374ZM511.977 822.197C345.685 822.197 266.771 851.333 258.466 865.065C274.917 878.24 362.235 896.231 511.958 896.231C660.607 896.231 747.727 878.519 765.071 865.364C761.455 860.747 747.528 848.826 696.389 838.039C647.991 827.829 582.488 822.197 511.977 822.197ZM806.058 635.539V662.685L873.151 632.972V560.51L511.977 400.461L68.9887 596.791L217.897 662.685V635.539C217.897 555.336 442.977 549.107 511.977 549.107C580.978 549.107 806.058 555.336 806.058 635.539ZM912.887 578.143V615.419L954.966 596.791L912.887 578.143Z" fill="#155DFC"/>
<path d="M359.353 160.728L417.82 202.625L395.509 270.398C392.959 277.858 392.915 285.929 395.384 293.415C397.853 300.901 402.703 307.403 409.214 311.957C415.946 316.786 423.665 319.191 431.363 319.191C439.082 319.191 446.802 316.786 453.533 311.957L511.98 270.08L570.447 311.957C583.91 321.616 601.283 321.636 614.745 311.957C621.257 307.403 626.107 300.901 628.576 293.415C631.044 285.929 631 277.858 628.45 270.398L606.14 202.625L664.607 160.709C671.12 156.157 675.969 149.654 678.435 142.166C680.9 134.679 680.85 126.607 678.291 119.15C675.909 111.641 671.138 105.088 664.683 100.463C658.229 95.8379 650.435 93.3863 642.457 93.4717H570.165L547.854 25.6784C542.674 10.0766 528.607 0 511.98 0C495.353 0 481.285 10.0766 476.126 25.6784L453.815 93.4717H381.522C364.895 93.4717 350.828 103.548 345.688 119.15C343.123 126.608 343.067 134.683 345.529 142.174C347.991 149.665 352.839 156.173 359.353 160.728ZM455.689 133.222C472.055 133.222 486.445 122.906 491.544 107.543L511.98 45.4937L532.436 107.583C534.891 115.047 539.682 121.551 546.12 126.161C552.559 130.771 560.313 133.25 568.27 133.241H634.416L580.927 171.58C574.467 176.182 569.657 182.69 567.19 190.162C564.723 197.635 564.727 205.688 567.202 213.158L587.638 275.168L534.149 236.83C527.712 232.2 519.951 229.703 511.983 229.7C504.015 229.696 496.252 232.186 489.81 236.81L436.321 275.129L456.758 213.099C459.235 205.637 459.242 197.591 456.778 190.124C454.315 182.658 449.508 176.157 443.053 171.56L389.544 133.222H455.689ZM105.17 297.051L86.5875 353.456C84.8488 358.674 84.3912 364.225 85.2523 369.652C86.1135 375.079 88.2688 380.227 91.5409 384.672C94.813 389.118 99.1086 392.734 104.074 395.223C109.04 397.711 114.534 399.002 120.104 398.989C127.359 398.989 134.635 396.763 140.822 392.331L189.514 357.47L238.187 392.331C244.205 396.664 251.463 399 258.915 399C266.367 399 273.626 396.664 279.644 392.331C292.018 383.447 297.178 367.825 292.441 353.456L273.859 297.031L322.511 262.17C328.548 257.864 333.042 251.779 335.346 244.793C337.649 237.806 337.644 230.278 335.329 223.295C333.045 216.304 328.567 210.21 322.544 205.892C316.52 201.573 309.261 199.253 301.813 199.266H241.653L223.071 142.841C218.335 128.471 204.852 118.832 189.535 118.832C174.217 118.832 160.734 128.471 155.998 142.841L137.416 199.266H77.2562C61.9391 199.266 48.456 208.925 43.74 223.295C41.4256 230.278 41.4199 237.806 43.7236 244.793C46.0273 251.779 50.5214 257.864 56.558 262.17L105.17 297.051ZM141.084 239.036C156.442 239.036 169.905 229.376 174.6 215.027L189.514 169.712L204.428 214.967C206.699 221.968 211.171 228.073 217.198 232.397C223.225 236.721 230.492 239.04 237.945 239.016H286.234L247.175 267C241.141 271.307 236.649 277.392 234.345 284.378C232.042 291.365 232.046 298.891 234.357 305.875L249.271 351.13L210.213 323.146C204.192 318.829 196.939 316.503 189.494 316.503C182.05 316.503 174.797 318.829 168.776 323.146L129.717 351.13L144.631 305.895C146.944 298.908 146.949 291.378 144.646 284.389C142.342 277.399 137.849 271.311 131.813 267L92.7547 239.016L141.084 239.036ZM750.1 297.051L731.518 353.456C729.78 358.674 729.322 364.225 730.183 369.652C731.044 375.079 733.199 380.227 736.472 384.672C739.744 389.118 744.039 392.734 749.005 395.223C753.97 397.711 759.464 399.002 765.034 398.989C772.29 398.989 779.566 396.763 785.753 392.331L834.445 357.47L883.117 392.331C889.135 396.664 896.394 399 903.846 399C911.297 399 918.556 396.664 924.574 392.331C936.949 383.447 942.108 367.825 937.372 353.456L918.79 297.031L967.442 262.17C973.478 257.864 977.973 251.779 980.276 244.793C982.58 237.806 982.574 230.278 980.26 223.295C977.975 216.304 973.498 210.21 967.474 205.892C961.45 201.573 954.191 199.253 946.744 199.266H886.584L868.002 142.841C863.266 128.471 849.782 118.832 834.465 118.832C819.148 118.832 805.665 128.471 800.929 142.841L782.347 199.266H722.187C706.87 199.266 693.387 208.925 688.671 223.295C686.356 230.278 686.351 237.806 688.654 244.793C690.958 251.779 695.452 257.864 701.489 262.17L750.1 297.051ZM786.015 239.036C801.372 239.036 814.835 229.376 819.531 215.027L834.445 169.712L849.359 214.967C851.629 221.968 856.102 228.073 862.129 232.397C868.155 236.721 875.422 239.04 882.875 239.016H931.165L892.106 267C886.072 271.307 881.58 277.392 879.276 284.378C876.973 291.365 876.977 298.891 879.288 305.875L894.202 351.13L855.143 323.146C849.122 318.829 841.869 316.503 834.425 316.503C826.981 316.503 819.728 318.829 813.707 323.146L774.648 351.13L789.562 305.895C791.875 298.908 791.88 291.378 789.576 284.389C787.273 277.399 782.78 271.311 776.744 267L737.685 239.016L786.015 239.036Z" fill="#FA8F45"/>
</g>
<defs>
<clipPath id="clip0_2005_91">
<rect width="1024" height="1024" fill="white"/>
</clipPath>
</defs>
</svg>
