<svg width="1024" height="1024" viewBox="0 0 1024 1024" fill="none" xmlns="http://www.w3.org/2000/svg">
<path fill-rule="evenodd" clip-rule="evenodd" d="M939.853 568.41L519.339 382.06C517.176 381.102 514.837 380.607 512.472 380.607C510.107 380.607 507.768 381.102 505.605 382.06L85.1082 568.41C82.1006 569.743 79.5442 571.922 77.7497 574.683C75.9553 577.444 75 580.667 75 583.962C75 587.256 75.9553 590.48 77.7497 593.241C79.5442 596.001 82.1006 598.181 85.1082 599.514L261.191 677.451V815.147C261.191 839.125 287.369 853.512 348.74 863.206C392.082 870.059 450.244 873.834 512.481 873.834C627.125 873.834 763.77 863.648 763.77 815.147V677.451L821.101 652.079V670.904C812.347 674.311 804.823 680.283 799.511 688.041C794.198 695.799 791.345 704.981 791.324 714.388C791.324 726.819 796.264 738.06 804.175 746.444C794.838 759.198 788.964 777.207 788.777 797.648L774.975 930.226C774.722 932.595 774.971 934.992 775.704 937.259C776.437 939.526 777.639 941.613 779.231 943.384C780.823 945.155 782.769 946.571 784.943 947.538C787.118 948.506 789.471 949.004 791.85 949H884.17C886.549 949.004 888.902 948.506 891.076 947.538C893.25 946.571 895.197 945.155 896.789 943.384C898.381 941.613 899.582 939.526 900.316 937.259C901.049 934.992 901.297 932.595 901.044 930.226L887.225 797.648C887.056 777.207 881.182 759.198 871.844 746.461C880.087 737.829 884.695 726.35 884.713 714.405C884.69 705.02 881.85 695.859 876.561 688.113C871.271 680.367 863.778 674.395 855.054 670.972V637.079L939.853 599.548C942.871 598.219 945.437 596.04 947.239 593.275C949.041 590.511 950 587.28 950 583.979C950 580.677 949.041 577.447 947.239 574.682C945.437 571.918 942.871 569.738 939.853 568.41ZM847.048 723.372C849.425 720.981 850.759 717.745 850.759 714.371C850.755 711 849.418 707.768 847.042 705.381C844.666 702.994 841.443 701.647 838.078 701.633L838.01 701.616C834.633 701.607 831.391 702.943 828.997 705.328C826.602 707.714 825.252 710.954 825.243 714.337C825.234 717.719 826.567 720.967 828.949 723.365C831.33 725.764 834.565 727.116 837.942 727.125L838.01 727.108L838.078 727.125C841.446 727.112 844.671 725.762 847.048 723.372ZM822.629 800.301L810.694 914.954H865.308L853.357 800.301C851.829 776.748 844.07 760.967 838.044 761.137H837.942C831.236 761.052 824.31 776.986 822.629 800.301ZM512.481 742.532C555.958 742.532 671.892 745.423 729.817 773.925L729.8 617.03C729.8 614.428 719.156 601.639 669.991 591.028C628.636 582.117 572.697 577.202 512.481 577.202C359.792 577.202 295.144 605.704 295.144 617.047V773.925C353.069 745.406 469.003 742.532 512.481 742.532ZM512.481 776.561C370.385 776.561 302.954 801.458 295.857 813.192C309.914 824.449 384.527 839.823 512.464 839.823C639.484 839.823 713.927 824.688 728.747 813.447C725.658 809.501 713.757 799.315 670.059 790.098C628.704 781.374 572.731 776.561 512.481 776.561ZM763.77 617.064V640.26L821.101 614.87V552.952L512.481 416.191L133.95 583.953L261.191 640.26V617.064C261.191 548.53 453.52 543.207 512.481 543.207C571.441 543.207 763.77 548.53 763.77 617.064ZM855.054 568.019V599.871L891.011 583.953L855.054 568.019Z" fill="black"/>
<path d="M382.1 211.364L432.046 247.171L412.987 305.092C410.809 311.467 410.771 318.366 412.88 324.763C414.989 331.161 419.132 336.718 424.695 340.61C430.445 344.737 437.039 346.793 443.616 346.793C450.21 346.793 456.804 344.737 462.554 340.61L512.483 304.82L562.428 340.61C573.929 348.865 588.77 348.882 600.271 340.61C605.833 336.718 609.976 331.161 612.085 324.763C614.194 318.366 614.157 311.467 611.978 305.092L592.919 247.171L642.865 211.347C648.429 207.457 652.572 201.9 654.678 195.501C656.784 189.102 656.741 182.203 654.555 175.83C652.521 169.412 648.444 163.812 642.931 159.859C637.417 155.907 630.759 153.811 623.944 153.884H562.187L543.129 95.9457C538.704 82.6118 526.687 74 512.483 74C498.279 74 486.262 82.6118 481.854 95.9457L462.795 153.884H401.039C386.835 153.884 374.818 162.496 370.427 175.83C368.236 182.203 368.188 189.105 370.291 195.507C372.394 201.909 376.536 207.471 382.1 211.364ZM464.396 187.856C478.376 187.856 490.669 179.04 495.025 165.91L512.483 112.881L529.958 165.944C532.055 172.323 536.147 177.882 541.647 181.822C547.148 185.762 553.772 187.88 560.569 187.873H617.074L571.381 220.639C565.863 224.572 561.754 230.133 559.646 236.52C557.539 242.907 557.543 249.789 559.657 256.173L577.114 309.169L531.421 276.403C525.922 272.446 519.292 270.313 512.486 270.31C505.679 270.307 499.047 272.434 493.544 276.386L447.851 309.135L465.309 256.122C467.425 249.745 467.431 242.868 465.327 236.487C463.222 230.106 459.116 224.55 453.602 220.622L407.891 187.856H464.396ZM164.963 327.87L149.089 376.076C147.604 380.536 147.213 385.28 147.949 389.918C148.684 394.556 150.525 398.956 153.321 402.755C156.116 406.554 159.785 409.645 164.027 411.772C168.269 413.899 172.962 415.002 177.721 414.991C183.919 414.991 190.134 413.088 195.419 409.3L237.015 379.507L278.593 409.3C283.734 413.004 289.935 415 296.301 415C302.666 415 308.867 413.004 314.008 409.3C324.579 401.708 328.987 388.357 324.941 376.076L309.067 327.853L350.628 298.06C355.785 294.38 359.624 289.18 361.592 283.209C363.56 277.238 363.555 270.804 361.578 264.836C359.626 258.862 355.802 253.654 350.656 249.963C345.51 246.272 339.309 244.289 332.947 244.3H281.555L265.681 196.077C261.635 183.796 250.117 175.558 237.032 175.558C223.947 175.558 212.43 183.796 208.384 196.077L192.51 244.3H141.118C128.033 244.3 116.515 252.555 112.486 264.836C110.509 270.804 110.504 277.238 112.472 283.209C114.44 289.18 118.279 294.38 123.436 298.06L164.963 327.87ZM195.643 278.289C208.762 278.289 220.263 270.033 224.275 257.77L237.015 219.042L249.755 257.719C251.695 263.702 255.516 268.92 260.664 272.615C265.812 276.311 272.02 278.292 278.387 278.272H319.638L286.272 302.188C281.117 305.869 277.28 311.07 275.312 317.04C273.344 323.011 273.348 329.443 275.322 335.412L288.063 374.089L254.697 350.173C249.553 346.483 243.357 344.495 236.998 344.495C230.638 344.495 224.442 346.483 219.299 350.173L185.933 374.089L198.673 335.429C200.649 329.458 200.653 323.023 198.685 317.049C196.718 311.075 192.88 305.872 187.723 302.188L154.357 278.272L195.643 278.289ZM715.898 327.87L700.025 376.076C698.539 380.536 698.148 385.28 698.884 389.918C699.62 394.556 701.461 398.956 704.256 402.755C707.051 406.554 710.721 409.645 714.963 411.772C719.205 413.899 723.898 415.002 728.656 414.991C734.854 414.991 741.069 413.088 746.355 409.3L787.95 379.507L829.529 409.3C834.67 413.004 840.871 415 847.236 415C853.602 415 859.803 413.004 864.944 409.3C875.515 401.708 879.922 388.357 875.876 376.076L860.003 327.853L901.564 298.06C906.72 294.38 910.56 289.18 912.528 283.209C914.495 277.238 914.491 270.804 912.514 264.836C910.562 258.862 906.737 253.654 901.591 249.963C896.445 246.272 890.244 244.289 883.882 244.3H832.49L816.616 196.077C812.57 183.796 801.052 175.558 787.968 175.558C774.883 175.558 763.365 183.796 759.319 196.077L743.445 244.3H692.053C678.969 244.3 667.451 252.555 663.422 264.836C661.445 270.804 661.44 277.238 663.408 283.209C665.376 289.18 669.215 294.38 674.372 298.06L715.898 327.87ZM746.579 278.289C759.698 278.289 771.199 270.033 775.21 257.77L787.95 219.042L800.691 257.719C802.63 263.702 806.451 268.92 811.599 272.615C816.748 276.311 822.955 278.292 829.322 278.272H870.574L837.208 302.188C832.053 305.869 828.215 311.07 826.248 317.04C824.28 323.011 824.283 329.443 826.258 335.412L838.998 374.089L805.632 350.173C800.489 346.483 794.293 344.495 787.933 344.495C781.574 344.495 775.378 346.483 770.234 350.173L736.868 374.089L749.609 335.429C751.584 329.458 751.589 323.023 749.621 317.049C747.653 311.075 743.815 305.872 738.659 302.188L705.293 278.272L746.579 278.289Z" fill="#155DFC"/>
</svg>
